<?xml version="1.0" encoding="utf-8"?>
<!-- Generator: Adobe Illustrator 16.0.0, SVG Export Plug-In . SVG Version: 6.00 Build 0)  -->
<!DOCTYPE svg PUBLIC "-//W3C//DTD SVG 1.1//EN" "http://www.w3.org/Graphics/SVG/1.1/DTD/svg11.dtd">
<svg version="1.1" id="Layer_1" xmlns="http://www.w3.org/2000/svg" xmlns:xlink="http://www.w3.org/1999/xlink" x="0px" y="0px"
	 width="330px" height="60px" viewBox="0 0 330 60" enable-background="new 0 0 330 60" xml:space="preserve">
<path fill-rule="evenodd" clip-rule="evenodd" fill="#FFFFFF" d="M1.998,9.28c0.227-0.311,0.531-0.398,0.911-0.389
	c0.887,0.024,1.776,0.023,2.663,0c0.309-0.008,0.375,0.08,0.375,0.38c-0.01,4.986-0.007,9.972-0.007,14.958
	c0,9.559-0.001,19.117,0,28.676c0,1.807,1.089,3.293,2.733,3.74c2.354,0.641,4.639-1.084,4.71-3.559c0.003-0.107,0-0.219,0-0.328
	c0-14.471,0.002-28.944-0.009-43.415c0-0.364,0.079-0.467,0.451-0.454c0.898,0.029,1.799,0.008,2.699,0.011
	c0.504,0.001,0.791,0.236,0.8,0.644c0.01,0.427-0.289,0.683-0.801,0.684c-0.475,0.001-0.949,0.008-1.423-0.003
	c-0.193-0.005-0.267,0.059-0.244,0.25c0.01,0.084,0.002,0.171,0.002,0.254c0,13.962-0.006,27.924,0.008,41.885
	c0.001,1.453-0.321,2.766-1.295,3.873c-0.806,0.914-1.811,1.488-3.017,1.697c-0.057,0.01-0.109,0.045-0.164,0.066
	c-0.536,0-1.071,0-1.606,0c-0.099-0.129-0.258-0.105-0.39-0.139c-0.557-0.146-1.083-0.361-1.558-0.684
	c-1.625-1.104-2.378-2.654-2.377-4.609c0.006-14.029,0.003-28.057,0.003-42.086c0-0.073-0.009-0.146,0.001-0.219
	c0.03-0.215-0.042-0.301-0.276-0.292c-0.449,0.019-0.9-0.013-1.349,0.011c-0.383,0.021-0.659-0.111-0.843-0.443
	C1.998,9.62,1.998,9.449,1.998,9.28z"/>
<path fill-rule="evenodd" clip-rule="evenodd" fill="#DF8C1E" d="M9.515,2.929C9.564,2.98,9.616,3.028,9.663,3.08
	c0.217,0.242,0.212,0.562-0.01,0.778C9.442,4.065,9.116,4.069,8.9,3.87c-0.217-0.2-0.232-0.502-0.049-0.755
	c0.047-0.065,0.154-0.082,0.154-0.186C9.174,2.929,9.345,2.929,9.515,2.929z"/>
<path fill-rule="evenodd" clip-rule="evenodd" fill="#FFFFFF" d="M99.889,17.208c-1.285,3.747-2.5,7.291-3.715,10.834
	c-0.346,1.01-0.722,2.011-1.025,3.033c-0.13,0.442-0.317,0.613-0.779,0.586c-0.836-0.047-1.865,0.25-2.457-0.139
	c-0.542-0.357-0.628-1.426-0.892-2.188c-2.031-5.86-4.055-11.722-6.079-17.585c-0.045-0.132-0.069-0.27-0.124-0.49
	c1.203,0,2.355,0.008,3.506-0.004c0.468-0.005,0.453,0.362,0.543,0.644c1.39,4.312,2.776,8.626,4.164,12.938
	c0.123,0.383,0.259,0.763,0.442,1.3c0.744-2.231,1.443-4.324,2.137-6.417c0.861-2.602,1.731-5.199,2.561-7.81
	c0.165-0.519,0.357-0.776,0.943-0.722c0.774,0.071,1.732-0.21,2.279,0.157c0.499,0.335,0.567,1.327,0.801,2.037
	c1.285,3.889,2.562,7.782,3.844,11.673c0.087,0.264,0.185,0.526,0.295,0.839c0.327-0.205,0.328-0.515,0.408-0.762
	c1.4-4.338,2.809-8.675,4.165-13.027c0.212-0.681,0.499-0.923,1.201-0.86c0.746,0.068,1.504,0.026,2.257,0.011
	c0.413-0.006,0.647-0.009,0.45,0.558c-2.248,6.456-4.471,12.919-6.693,19.385c-0.125,0.361-0.324,0.455-0.699,0.468
	c-2.597,0.091-2.59,0.098-3.421-2.357C102.663,25.348,101.312,21.391,99.889,17.208z"/>
<path fill-rule="evenodd" clip-rule="evenodd" fill="#FFFFFF" d="M26.3,30.63c0,8.927,0.001,17.854,0,26.78
	c0,0.287,0.067,0.654-0.365,0.654c-0.43-0.004-0.364-0.373-0.364-0.66c0-17.863,0-35.731,0-53.597c0-0.123-0.006-0.245,0.006-0.365
	c0.022-0.212,0.153-0.336,0.362-0.333c0.209,0.003,0.338,0.125,0.358,0.339c0.01,0.108,0.002,0.218,0.002,0.328
	C26.3,12.727,26.3,21.678,26.3,30.63z"/>
<path fill-rule="evenodd" clip-rule="evenodd" fill="#FFFFFF" d="M251.863,17.225c0,4.658-0.014,9.085,0.015,13.512
	c0.004,0.63-0.117,0.888-0.796,0.818c-0.63-0.065-1.278-0.068-1.907,0c-0.729,0.08-0.835-0.236-0.832-0.877
	c0.021-6.193,0.023-12.388-0.003-18.583c-0.003-0.671,0.178-0.783,0.836-0.87c1.839-0.242,2.973,0.469,4.058,1.967
	c2.763,3.816,5.73,7.483,8.618,11.21c0.154,0.199,0.317,0.393,0.49,0.608c0.224-0.25,0.113-0.517,0.114-0.754
	c0.009-4.082,0.02-8.163-0.01-12.244c-0.003-0.593,0.117-0.816,0.749-0.767c0.886,0.071,2.06-0.289,2.599,0.156
	c0.561,0.463,0.165,1.678,0.168,2.563c0.014,5.587-0.003,11.174,0.021,16.759c0.003,0.62-0.13,0.772-0.786,0.852
	c-1.612,0.194-2.608-0.4-3.574-1.715c-2.927-3.983-6.02-7.846-9.047-11.755C252.386,17.863,252.188,17.629,251.863,17.225z"/>
<path fill-rule="evenodd" clip-rule="evenodd" fill="#FFFFFF" d="M83.198,21.475c-0.211,6.135-4.9,10.622-10.881,10.414
	c-6.144-0.215-10.49-4.78-10.318-10.834c0.169-5.939,4.98-10.358,11.041-10.14C78.897,11.123,83.393,15.797,83.198,21.475z
	 M72.576,14.219c-3.859-0.008-6.8,3.072-6.806,7.129c-0.005,4.055,2.977,7.208,6.837,7.229c3.815,0.02,6.827-3.127,6.831-7.139
	C79.443,17.403,76.423,14.226,72.576,14.219z"/>
<path fill-rule="evenodd" clip-rule="evenodd" fill="#FFFFFF" d="M57.747,21.434c0,3.068-0.035,6.136,0.024,9.203
	c0.015,0.811-0.239,0.988-0.966,0.916c-0.602-0.058-1.22-0.063-1.82,0.002c-0.762,0.084-0.892-0.234-0.879-0.925
	c0.044-2.286-0.006-4.573,0.031-6.858c0.01-0.61-0.158-0.768-0.764-0.76c-2.691,0.035-5.383,0.045-8.074-0.005
	c-0.706-0.015-0.781,0.237-0.772,0.832c0.031,2.314-0.008,4.631,0.026,6.945c0.009,0.596-0.13,0.832-0.755,0.768
	c-0.941-0.102-2.209,0.402-2.743-0.202c-0.465-0.527-0.138-1.765-0.138-2.688c-0.005-5.47,0.021-10.939-0.026-16.41
	c-0.008-0.875,0.252-1.09,1.057-1.005c0.658,0.068,1.333,0.048,1.995,0.003c0.519-0.036,0.61,0.171,0.605,0.638
	c-0.021,2.373,0.009,4.746-0.023,7.119c-0.007,0.54,0.135,0.671,0.669,0.666c2.749-0.028,5.499-0.033,8.249,0.003
	c0.605,0.008,0.696-0.205,0.69-0.736c-0.026-2.258,0.033-4.516-0.034-6.772c-0.024-0.809,0.237-0.987,0.967-0.921
	c0.66,0.062,1.334,0.058,1.995,0c0.596-0.051,0.702,0.183,0.697,0.725C57.735,15.125,57.747,18.279,57.747,21.434z"/>
<path fill-rule="evenodd" clip-rule="evenodd" fill="#FFFFFF" d="M310.079,21.372c0-3.128,0.02-6.254-0.017-9.382
	c-0.007-0.624,0.178-0.748,0.769-0.744c4.488,0.026,8.978,0.026,13.464,0c0.613-0.002,0.914,0.093,0.832,0.789
	c-0.089,0.771,0.312,1.786-0.149,2.265c-0.464,0.48-1.479,0.138-2.252,0.144c-2.781,0.017-5.562,0.019-8.341-0.006
	c-0.514-0.004-0.715,0.098-0.696,0.66c0.043,1.301,0.043,2.605,0,3.908c-0.019,0.545,0.142,0.671,0.674,0.666
	c2.896-0.026,5.791,0.005,8.686-0.026c0.594-0.007,0.833,0.117,0.775,0.75c-0.059,0.602-0.062,1.219,0,1.822
	c0.066,0.649-0.206,0.737-0.775,0.732c-2.867-0.03-5.734,0.005-8.603-0.028c-0.603-0.008-0.783,0.136-0.76,0.753
	c0.052,1.331,0.046,2.665,0.003,3.996c-0.019,0.543,0.142,0.667,0.672,0.664c3.359-0.025,6.718,0.005,10.076-0.03
	c0.637-0.006,0.874,0.126,0.808,0.796c-0.078,0.773,0.248,1.817-0.145,2.269c-0.456,0.524-1.524,0.161-2.321,0.165
	c-3.97,0.018-7.936-0.006-11.902,0.023c-0.636,0.005-0.826-0.131-0.816-0.803C310.101,27.627,310.079,24.499,310.079,21.372z"/>
<path fill-rule="evenodd" clip-rule="evenodd" fill="#FFFFFF" d="M196.286,31.54c-1.194,0-2.287-0.019-3.378,0.011
	c-0.425,0.011-0.529-0.244-0.655-0.547c-0.53-1.279-1.079-2.552-1.594-3.838c-0.159-0.398-0.37-0.566-0.826-0.562
	c-2.78,0.022-5.561,0.022-8.341,0c-0.461-0.004-0.652,0.174-0.815,0.575c-0.52,1.282-1.099,2.54-1.609,3.826
	c-0.169,0.426-0.391,0.565-0.831,0.547c-0.751-0.033-1.51-0.051-2.26,0.002c-0.697,0.05-0.85-0.098-0.54-0.779
	c1.106-2.444,2.168-4.909,3.24-7.367c1.698-3.886,3.399-7.771,5.074-11.667c0.2-0.464,0.423-0.678,0.948-0.633
	c0.887,0.077,1.966-0.326,2.614,0.152c0.609,0.446,0.783,1.494,1.128,2.286c2.521,5.761,5.035,11.525,7.551,17.289
	C196.079,31.035,196.161,31.238,196.286,31.54z M189.108,23.456c-1.157-2.676-2.264-5.243-3.449-7.99
	c-1.142,2.652-2.197,5.11-3.256,7.566c-0.114,0.268-0.116,0.429,0.253,0.428C184.761,23.452,186.863,23.456,189.108,23.456z"/>
<path fill-rule="evenodd" clip-rule="evenodd" fill="#FFFFFF" d="M269.393,31.541c0.903-2.068,1.759-4.015,2.608-5.964
	c2.006-4.6,4.021-9.196,6.004-13.805c0.216-0.5,0.455-0.71,1.011-0.668c0.862,0.064,1.925-0.256,2.545,0.142
	c0.609,0.393,0.786,1.472,1.13,2.259c2.513,5.731,5.012,11.469,7.536,17.194c0.287,0.651,0.281,0.93-0.536,0.85
	c-0.973-0.093-2.162,0.373-2.87-0.174c-0.661-0.511-0.824-1.664-1.213-2.53c-0.326-0.736-0.401-1.763-1.026-2.131
	c-0.585-0.344-1.52-0.098-2.301-0.099c-2.084-0.004-4.17,0.036-6.254-0.021c-0.674-0.019-0.965,0.221-1.19,0.805
	c-0.465,1.21-1.008,2.391-1.487,3.596c-0.164,0.411-0.388,0.57-0.835,0.556C271.53,31.519,270.547,31.541,269.393,31.541z
	 M283.36,23.421c-1.142-2.643-2.256-5.225-3.437-7.966c-1.173,2.743-2.282,5.338-3.404,7.966
	C278.841,23.421,281.055,23.421,283.36,23.421z"/>
<path fill-rule="evenodd" clip-rule="evenodd" fill="#FFFFFF" d="M206.396,31.822c-2.968-0.023-5.596-0.984-7.922-2.829
	c-0.435-0.345-0.416-0.559-0.071-0.928c0.474-0.505,0.928-1.037,1.335-1.597c0.312-0.425,0.52-0.449,0.938-0.093
	c1.488,1.261,3.194,2.055,5.164,2.232c0.909,0.082,1.797,0.008,2.644-0.325c0.96-0.378,1.578-1.063,1.635-2.139
	c0.057-1.064-0.523-1.718-1.432-2.164c-1.258-0.614-2.627-0.857-3.962-1.215c-0.864-0.233-1.713-0.507-2.537-0.858
	c-2.227-0.949-3.413-2.576-3.364-5.044c0.05-2.491,1.227-4.314,3.5-5.199c3.716-1.446,7.196-0.694,10.416,1.547
	c0.356,0.248,0.345,0.432,0.095,0.75c-0.446,0.568-0.878,1.151-1.251,1.768c-0.282,0.468-0.504,0.477-0.936,0.169
	c-1.359-0.975-2.863-1.62-4.559-1.72c-0.815-0.048-1.615,0.032-2.361,0.415c-0.778,0.4-1.253,1.017-1.296,1.905
	c-0.043,0.922,0.357,1.615,1.179,2.054c1.184,0.633,2.482,0.922,3.769,1.244c1.066,0.267,2.111,0.589,3.111,1.054
	c2.005,0.933,3.202,2.424,3.229,4.71c0.026,2.371-0.923,4.198-3.051,5.333C209.34,31.602,207.892,31.831,206.396,31.822z"/>
<path fill-rule="evenodd" clip-rule="evenodd" fill="#FFFFFF" d="M227.588,10.915c2.772-0.015,5.217,0.848,7.303,2.705
	c0.369,0.328,0.511,0.526,0.09,0.934c-0.518,0.501-0.98,1.065-1.422,1.637c-0.344,0.447-0.589,0.524-1.059,0.103
	c-1.767-1.583-3.831-2.387-6.221-1.976c-2.896,0.497-4.847,2.618-5.442,5.78c-0.656,3.492,1.333,7.133,4.539,8.137
	c2.731,0.856,5.137,0.096,7.2-1.792c0.488-0.445,0.796-0.513,1.196,0.036c0.185,0.255,0.441,0.458,0.666,0.683
	c1.164,1.163,1.181,1.184-0.136,2.255c-3.391,2.761-7.207,3.222-11.154,1.608c-3.93-1.607-5.942-4.822-6.156-8.998
	c-0.217-4.223,1.461-7.607,5.188-9.801C223.837,11.254,225.669,10.87,227.588,10.915z"/>
<path fill-rule="evenodd" clip-rule="evenodd" fill="#FFFFFF" d="M160.247,21.382c0-3.127,0.017-6.252-0.016-9.378
	c-0.006-0.609,0.148-0.764,0.759-0.76c4.543,0.028,9.087,0.027,13.631,0.001c0.609-0.004,0.826,0.158,0.757,0.768
	c-0.092,0.824,0.353,1.896-0.179,2.416c-0.485,0.473-1.541,0.127-2.347,0.132c-2.776,0.015-5.556,0.028-8.333-0.011
	c-0.625-0.009-0.694,0.235-0.683,0.751c0.028,1.302,0.046,2.605-0.006,3.906c-0.023,0.636,0.125,0.828,0.797,0.818
	c2.866-0.042,5.731-0.003,8.596-0.032c0.597-0.005,0.903,0.064,0.831,0.774c-0.081,0.8,0.271,1.889-0.134,2.347
	c-0.473,0.532-1.577,0.152-2.405,0.162c-2.257,0.023-4.518,0.052-6.773-0.016c-0.809-0.026-0.928,0.244-0.913,0.959
	c0.047,2.2-0.001,4.4,0.031,6.599c0.006,0.559-0.132,0.774-0.72,0.735c-0.921-0.059-2.114,0.297-2.693-0.156
	c-0.61-0.479-0.178-1.727-0.19-2.636C160.227,26.301,160.247,23.84,160.247,21.382z"/>
<path fill-rule="evenodd" clip-rule="evenodd" fill="#FFFFFF" d="M299.973,23.09c0,2.576-0.017,5.154,0.015,7.731
	c0.007,0.572-0.149,0.765-0.722,0.731c-0.721-0.046-1.45-0.055-2.17,0c-0.616,0.047-0.766-0.162-0.76-0.764
	c0.026-4.373,0.013-8.746,0.013-13.119c0-0.84-0.029-1.681,0.013-2.519c0.022-0.476-0.15-0.572-0.588-0.566
	c-1.737,0.022-3.477-0.018-5.211,0.024c-0.561,0.015-0.689-0.16-0.653-0.68c0.045-0.663,0.043-1.333,0-1.997
	c-0.032-0.508,0.078-0.69,0.647-0.688c5.067,0.027,10.134,0.021,15.203,0.007c0.463-0.001,0.688,0.08,0.654,0.609
	c-0.045,0.721-0.04,1.449,0,2.171c0.025,0.477-0.159,0.577-0.597,0.572c-1.621-0.022-3.244,0.028-4.864-0.026
	c-0.746-0.024-1.025,0.12-1.003,0.956C300.015,18.05,299.973,20.57,299.973,23.09z"/>
<path fill-rule="evenodd" clip-rule="evenodd" fill="#D3D3D3" d="M135.207,21.359c0.017-5.195,3.346-9.319,8.303-10.289
	c6.073-1.186,11.743,3.209,12.054,9.4c0.226,4.477-1.368,8.136-5.438,10.252C143.381,34.227,135.184,29.767,135.207,21.359z
	 M144.599,30.457c2.846-0.001,4.691-0.599,6.229-1.954c2.604-2.293,3.44-5.228,3.03-8.605c-0.632-5.211-5.755-8.699-10.774-7.244
	c-3.761,1.09-5.709,3.802-6.186,7.561C136.233,25.453,139.832,30.409,144.599,30.457z"/>
<path fill-rule="evenodd" clip-rule="evenodd" fill="#FFFFFF" d="M239.375,21.36c0-3.067,0.036-6.135-0.022-9.202
	c-0.018-0.81,0.242-0.979,0.963-0.912c0.63,0.059,1.275,0.054,1.906,0c0.605-0.051,0.771,0.145,0.765,0.754
	c-0.03,3.21-0.013,6.422-0.013,9.635c0,3.038-0.024,6.076,0.016,9.114c0.01,0.673-0.19,0.853-0.826,0.803
	c-0.69-0.053-1.389-0.045-2.082,0c-0.572,0.037-0.725-0.16-0.72-0.731C239.391,27.668,239.375,24.514,239.375,21.36z"/>
<path fill-rule="evenodd" clip-rule="evenodd" fill="#D3D3D3" d="M126.16,22.161c0,2.866-0.02,5.729,0.015,8.595
	c0.008,0.65-0.172,0.837-0.824,0.834c-0.641-0.003-0.835-0.167-0.832-0.828c0.026-5.729,0.002-11.46,0.033-17.189
	c0.004-0.712-0.152-0.933-0.893-0.909c-1.821,0.059-3.646-0.012-5.468,0.036c-0.631,0.018-0.667-0.245-0.686-0.752
	c-0.021-0.57,0.153-0.721,0.719-0.718c4.746,0.023,9.493,0.021,14.239,0.001c0.553-0.002,0.727,0.129,0.732,0.709
	c0.006,0.615-0.166,0.772-0.772,0.759c-1.851-0.042-3.704,0.006-5.555-0.029c-0.57-0.01-0.727,0.154-0.721,0.722
	C126.175,16.315,126.16,19.239,126.16,22.161z"/>
<path fill-rule="evenodd" clip-rule="evenodd" fill="#D8D8D8" d="M159.026,48.27c0.917,0.42,1.646,0.951,1.765,2.002
	c0.17,1.525-0.874,2.725-2.688,2.854c-1.555,0.111-3.123,0.033-4.685,0.055c-0.336,0.004-0.447-0.109-0.447-0.447
	c0.01-2.834,0.011-5.67,0-8.506c0-0.338,0.112-0.449,0.447-0.445c1.477,0.018,2.954-0.033,4.427,0.037
	c1.189,0.055,2.116,0.777,2.352,1.742C160.476,46.695,160.078,47.592,159.026,48.27z M156.35,51.656c0.46,0,0.923,0.027,1.381-0.006
	c0.901-0.07,1.383-0.516,1.387-1.232c0.003-0.699-0.486-1.176-1.386-1.234c-0.833-0.055-1.672,0.012-2.504-0.039
	c-0.564-0.035-0.658,0.195-0.66,0.699C154.56,51.67,154.541,51.67,156.35,51.656z M156.112,47.748
	c0.46,0.025,1.037,0.014,1.594-0.15c0.595-0.174,0.912-0.576,0.882-1.213c-0.027-0.615-0.402-0.92-0.962-1.047
	c-0.651-0.146-1.321-0.066-1.975-0.137c-0.859-0.094-1.146,0.166-1.094,1.066C154.641,47.746,154.579,47.748,156.112,47.748z"/>
<path fill-rule="evenodd" clip-rule="evenodd" fill="#D8D8D8" d="M257.293,48.479c-0.005,2.758-2.135,4.867-4.915,4.867
	c-2.782,0.002-4.907-2.111-4.899-4.875c0.007-2.748,2.151-4.861,4.926-4.857C255.22,43.619,257.299,45.686,257.293,48.479z
	 M255.531,48.465c-0.005-1.904-1.33-3.299-3.14-3.307c-1.815-0.006-3.15,1.383-3.156,3.287c-0.005,1.928,1.36,3.361,3.196,3.355
	C254.233,51.795,255.536,50.393,255.531,48.465z"/>
<path fill-rule="evenodd" clip-rule="evenodd" fill="#D8D8D8" d="M84.352,43.613c2.819,0.006,4.897,2.068,4.892,4.863
	c-0.004,2.758-2.134,4.867-4.912,4.869c-2.784,0.002-4.909-2.109-4.902-4.869C79.435,45.727,81.579,43.609,84.352,43.613z
	 M87.483,48.498c0.002-1.912-1.31-3.322-3.108-3.338c-1.827-0.018-3.17,1.354-3.188,3.252c-0.018,1.93,1.336,3.381,3.163,3.389
	C86.158,51.809,87.48,50.414,87.483,48.498z"/>
<path fill-rule="evenodd" clip-rule="evenodd" fill="#D8D8D8" d="M121.975,53.115c-0.196,0.037-0.225,0.043-0.253,0.049
	c-1.169,0.211-2.046-0.109-2.589-1.258c-0.268-0.566-0.723-1.041-1.075-1.57c-0.192-0.287-0.42-0.414-0.781-0.43
	c-1.546-0.066-1.546-0.08-1.546,1.465c0,0.291-0.037,0.586,0.007,0.867c0.116,0.752-0.141,1.012-0.929,0.963
	c-0.573-0.035-0.786-0.121-0.776-0.754c0.039-2.631,0.033-5.262,0.003-7.893c-0.007-0.572,0.088-0.814,0.735-0.785
	c1.241,0.057,2.486,0.002,3.729,0.02c1.626,0.023,2.849,0.893,3.151,2.205c0.344,1.492-0.21,2.68-1.735,3.469
	c-0.477,0.246-0.236,0.414-0.085,0.627C120.52,51.074,121.219,52.053,121.975,53.115z M117.285,45.273
	c0,0.006-0.001,0.012-0.001,0.018c-0.23,0-0.464,0.025-0.691-0.006c-0.647-0.084-0.953,0.113-0.876,0.832
	c0.063,0.598,0.017,1.207,0.012,1.812c-0.002,0.285,0.033,0.525,0.405,0.512c0.89-0.039,1.788,0.107,2.667-0.117
	c0.799-0.205,1.229-0.711,1.21-1.555c-0.018-0.785-0.499-1.305-1.348-1.416C118.208,45.295,117.744,45.299,117.285,45.273z"/>
<path fill-rule="evenodd" clip-rule="evenodd" fill="#D8D8D8" d="M135.599,48.467c0-1.359,0.022-2.719-0.012-4.074
	c-0.012-0.506,0.158-0.633,0.637-0.617c1.039,0.033,2.08-0.002,3.121,0.014c2.646,0.037,4.692,1.986,4.754,4.518
	c0.063,2.607-1.875,4.709-4.523,4.85c-1.153,0.061-2.312-0.004-3.467,0.027c-0.444,0.012-0.522-0.166-0.517-0.557
	C135.61,51.242,135.599,49.854,135.599,48.467z M137.279,48.393c0,0.375,0,0.752,0,1.127c0,2.322,0,2.322,2.345,2.094
	c1.562-0.146,2.682-1.414,2.714-3.064c0.033-1.639-1.036-2.994-2.573-3.189c-0.656-0.082-1.327-0.035-1.989-0.07
	c-0.376-0.018-0.509,0.131-0.502,0.506C137.292,46.66,137.28,47.527,137.279,48.393z"/>
<path fill-rule="evenodd" clip-rule="evenodd" fill="#D8D8D8" d="M269.109,50.004c0,0.059,0,0.117,0,0.174
	c0,1.992-0.221,2.287-2.156,2.898c-2.793,0.879-5.528-0.383-6.365-2.932c-0.853-2.604,0.417-5.361,2.918-6.234
	c1.65-0.576,3.25-0.395,4.729,0.557c0.235,0.15,0.792,0.344,0.288,0.729c-0.347,0.266-0.365,1.242-1.193,0.639
	c-0.893-0.652-1.9-0.846-2.963-0.58c-1.19,0.295-2.111,1.418-2.246,2.703c-0.145,1.389,0.199,2.625,1.447,3.389
	c1.186,0.725,2.452,0.635,3.627-0.047c0.657-0.381,0.304-1.111,0.293-1.666c-0.01-0.549-0.544-0.201-0.836-0.271
	c-0.247-0.057-0.52-0.035-0.779-0.004c-0.557,0.066-0.812-0.061-0.812-0.723c0.003-0.656,0.251-0.758,0.812-0.73
	c0.866,0.041,1.737,0.035,2.603,0.002c0.483-0.02,0.684,0.117,0.641,0.623c-0.04,0.49-0.009,0.982-0.009,1.475
	C269.108,50.004,269.109,50.004,269.109,50.004z"/>
<path fill-rule="evenodd" clip-rule="evenodd" fill="#D8D8D8" d="M41.197,48.449c0-1.359-0.002-2.721,0.001-4.08
	c0-0.275-0.082-0.607,0.394-0.584c1.47,0.072,2.958-0.186,4.412,0.15c2.381,0.549,3.898,2.588,3.683,4.867
	c-0.229,2.422-2.066,4.225-4.508,4.352c-1.155,0.061-2.316-0.002-3.473,0.027c-0.451,0.014-0.521-0.178-0.517-0.562
	C41.208,51.229,41.198,49.84,41.197,48.449z M42.837,48.49c0,0.461,0,0.922,0,1.383c0,1.762,0,1.762,1.745,1.756
	c2.01-0.006,3.257-1.115,3.32-2.955c0.068-2.008-1.065-3.24-3.105-3.365c-0.46-0.027-0.924,0.008-1.384-0.023
	c-0.464-0.031-0.596,0.17-0.583,0.607C42.855,46.758,42.837,47.623,42.837,48.49z"/>
<path fill-rule="evenodd" clip-rule="evenodd" fill="#D8D8D8" d="M316.818,48.467c0-1.303,0.026-2.605-0.014-3.908
	c-0.019-0.576,0.096-0.824,0.741-0.787c1.009,0.057,2.025,0,3.039,0.018c2.644,0.045,4.661,1.998,4.729,4.564
	c0.063,2.541-1.885,4.65-4.497,4.801c-1.154,0.064-2.316,0-3.474,0.027c-0.426,0.01-0.538-0.141-0.533-0.547
	C316.831,51.246,316.818,49.855,316.818,48.467z M318.457,48.48c0,0.461,0,0.924,0,1.385c0,1.77,0,1.77,1.738,1.764
	c2.014-0.006,3.263-1.111,3.326-2.949c0.072-2.037-1.079-3.264-3.184-3.377c-0.431-0.025-0.865,0.012-1.297-0.018
	c-0.456-0.031-0.604,0.152-0.591,0.6C318.479,46.748,318.459,47.615,318.457,48.48z"/>
<path fill-rule="evenodd" clip-rule="evenodd" fill="#D8D8D8" d="M282.749,48.416c0-1.332,0.047-2.664-0.018-3.992
	c-0.035-0.697,0.33-0.67,0.786-0.639c0.409,0.031,0.958-0.211,0.9,0.607c-0.062,0.893,0.008,1.793-0.021,2.689
	c-0.014,0.459,0.158,0.602,0.6,0.594c1.101-0.021,2.199-0.025,3.301,0.004c0.448,0.012,0.604-0.127,0.587-0.586
	c-0.03-0.926,0.028-1.852-0.02-2.775c-0.038-0.713,0.437-0.545,0.795-0.521c0.361,0.023,0.912-0.273,0.905,0.518
	c-0.021,2.775-0.021,5.553,0.002,8.33c0.007,0.791-0.542,0.498-0.902,0.52c-0.357,0.02-0.838,0.197-0.8-0.518
	c0.048-0.924-0.008-1.852,0.019-2.777c0.014-0.447-0.056-0.684-0.596-0.66c-1.069,0.043-2.142,0.035-3.211,0.002
	c-0.548-0.016-0.698,0.197-0.68,0.711c0.032,0.895-0.033,1.795,0.021,2.689c0.045,0.771-0.475,0.545-0.856,0.557
	c-0.404,0.014-0.859,0.158-0.828-0.586C282.792,51.195,282.749,49.805,282.749,48.416z"/>
<path fill-rule="evenodd" clip-rule="evenodd" fill="#D8D8D8" d="M236.28,48.494c0-1.361,0.043-2.723-0.016-4.078
	c-0.036-0.803,0.464-0.623,0.896-0.629c0.414-0.004,0.878-0.146,0.817,0.605c-0.072,0.889,0.002,1.793-0.025,2.688
	c-0.016,0.441,0.104,0.613,0.575,0.6c1.097-0.031,2.198-0.031,3.297,0c0.517,0.012,0.63-0.207,0.615-0.67
	c-0.029-0.895,0.024-1.795-0.019-2.689c-0.038-0.795,0.522-0.502,0.883-0.523c0.362-0.023,0.805-0.18,0.796,0.525
	c-0.034,2.777-0.029,5.555-0.004,8.332c0.008,0.797-0.542,0.477-0.895,0.51c-0.375,0.037-0.822,0.158-0.783-0.537
	c0.054-0.896-0.006-1.795,0.021-2.689c0.013-0.494-0.099-0.744-0.663-0.727c-1.101,0.035-2.199,0.027-3.299,0
	c-0.437-0.01-0.535,0.158-0.524,0.557c0.024,0.924-0.047,1.855,0.024,2.775c0.057,0.709-0.344,0.664-0.791,0.631
	c-0.408-0.031-0.952,0.221-0.922-0.602C236.318,51.213,236.28,49.854,236.28,48.494z"/>
<path fill-rule="evenodd" clip-rule="evenodd" fill="#D8D8D8" d="M294.322,48.49c-0.002-1.361,0.018-2.721-0.01-4.08
	c-0.011-0.492,0.142-0.645,0.636-0.637c1.91,0.027,3.821,0.043,5.729-0.006c0.664-0.016,0.65,0.305,0.67,0.783
	c0.021,0.547-0.112,0.779-0.715,0.758c-1.33-0.041-2.663,0.006-3.994-0.023c-0.478-0.01-0.639,0.113-0.646,0.619
	c-0.024,1.764-0.046,1.764,1.751,1.764c0.81,0,1.621,0.029,2.43-0.008c0.714-0.035,0.498,0.461,0.522,0.82
	c0.025,0.377,0.09,0.736-0.529,0.713c-1.154-0.047-2.313,0.004-3.47-0.023c-0.486-0.012-0.707,0.055-0.707,0.639
	c-0.003,1.857-0.032,1.857,1.834,1.857c1.013,0,2.027,0.029,3.038-0.012c0.71-0.027,0.513,0.451,0.528,0.816
	c0.019,0.367,0.106,0.73-0.52,0.719c-1.996-0.037-3.993-0.027-5.989-0.004c-0.488,0.006-0.572-0.193-0.565-0.615
	C294.333,51.209,294.322,49.85,294.322,48.49z"/>
<path fill-rule="evenodd" clip-rule="evenodd" fill="#D8D8D8" d="M125.17,48.48c0-1.361,0.021-2.721-0.012-4.08
	c-0.012-0.498,0.136-0.635,0.628-0.627c1.909,0.029,3.82,0.039,5.729-0.006c0.613-0.014,0.645,0.264,0.619,0.721
	c-0.026,0.428,0.108,0.857-0.625,0.824c-1.329-0.062-2.663,0.01-3.993-0.029c-0.551-0.016-0.671,0.18-0.675,0.697
	c-0.011,1.688-0.033,1.688,1.666,1.688c0.781,0,1.564,0.039,2.343-0.012c0.615-0.041,0.722,0.23,0.709,0.764
	c-0.012,0.49-0.024,0.809-0.678,0.775c-1.126-0.057-2.257,0.002-3.386-0.025c-0.461-0.01-0.646,0.09-0.657,0.607
	c-0.039,1.889-0.061,1.889,1.818,1.889c0.983,0,1.97,0.037,2.952-0.014c0.694-0.037,0.62,0.375,0.642,0.826
	c0.024,0.49-0.066,0.723-0.65,0.711c-1.938-0.037-3.877-0.029-5.815-0.002c-0.495,0.008-0.64-0.133-0.628-0.629
	C125.191,51.201,125.17,49.84,125.17,48.48z"/>
<path fill-rule="evenodd" clip-rule="evenodd" fill="#D8D8D8" d="M103.621,48.42c0-1.332,0.017-2.664-0.009-3.994
	c-0.009-0.457,0.07-0.664,0.6-0.654c1.938,0.033,3.878,0.041,5.816-0.002c0.69-0.014,0.537,0.4,0.553,0.781
	c0.018,0.424,0.053,0.783-0.593,0.76c-1.3-0.047-2.604,0.014-3.905-0.027c-0.586-0.018-0.8,0.123-0.792,0.756
	c0.021,1.629-0.011,1.629,1.643,1.629c0.839,0,1.68,0.027,2.517-0.008c0.685-0.027,0.53,0.438,0.548,0.818
	c0.019,0.393,0.051,0.734-0.55,0.713c-1.186-0.041-2.373,0.006-3.559-0.021c-0.449-0.01-0.581,0.123-0.596,0.582
	c-0.061,1.914-0.079,1.914,1.79,1.914c0.983,0,1.97,0.039,2.951-0.016c0.669-0.037,0.667,0.324,0.668,0.801
	c0.002,0.453-0.005,0.752-0.623,0.74c-1.967-0.041-3.936-0.031-5.903-0.004c-0.481,0.006-0.572-0.17-0.564-0.602
	C103.636,51.197,103.621,49.809,103.621,48.42z"/>
<path fill-rule="evenodd" clip-rule="evenodd" fill="#52701D" d="M10.684,53.832c-0.003,0.82-0.628,1.443-1.454,1.445
	c-0.822,0.002-1.476-0.658-1.467-1.482c0.008-0.805,0.664-1.449,1.468-1.449C10.062,52.346,10.686,52.984,10.684,53.832z"/>
<path fill-rule="evenodd" clip-rule="evenodd" fill="#006F7B" d="M11.192,44.236c0.021,0.145,0.166,0.148,0.252,0.217
	c0.565,0.443,0.74,1.234,0.401,1.863c-0.342,0.637-1.082,0.928-1.771,0.693c-0.667-0.227-1.089-0.916-0.979-1.6
	c0.118-0.734,0.726-1.242,1.469-1.254c0.163-0.002,0.323,0.109,0.486,0.01l-0.003-0.006c0.004,0.117,0.062,0.127,0.151,0.078
	L11.192,44.236z"/>
<path fill-rule="evenodd" clip-rule="evenodd" fill="#4A2A58" d="M12.009,34.674c-0.022,0.803-0.7,1.457-1.485,1.434
	c-0.833-0.025-1.47-0.713-1.438-1.553c0.03-0.791,0.715-1.416,1.521-1.387C11.414,33.199,12.033,33.861,12.009,34.674z"/>
<path fill-rule="evenodd" clip-rule="evenodd" fill="#741C1A" d="M11.998,29.915c0.002,0.842-0.626,1.482-1.457,1.479
	c-0.81-0.001-1.458-0.643-1.463-1.447c-0.006-0.833,0.632-1.473,1.467-1.473C11.37,28.473,11.995,29.093,11.998,29.915z"/>
<path fill-rule="evenodd" clip-rule="evenodd" fill="#194E80" d="M8.811,40.895c-0.816-0.004-1.453-0.641-1.455-1.455
	c-0.001-0.824,0.66-1.48,1.483-1.469c0.802,0.014,1.463,0.686,1.447,1.477C10.27,40.258,9.616,40.898,8.811,40.895z"/>
<path fill-rule="evenodd" clip-rule="evenodd" fill="#BE532C" d="M8.857,24.434c0.008-0.808,0.666-1.447,1.476-1.434
	c0.802,0.014,1.452,0.677,1.444,1.479c-0.008,0.823-0.664,1.452-1.506,1.442C9.46,25.911,8.85,25.267,8.857,24.434z"/>
<path fill-rule="evenodd" clip-rule="evenodd" fill="#DF8C1E" d="M10.258,14.843c-0.003,0.843-0.633,1.452-1.488,1.443
	c-0.787-0.009-1.43-0.658-1.434-1.447c-0.002-0.81,0.679-1.483,1.491-1.473C9.638,13.375,10.263,14.021,10.258,14.843z"/>
<path fill-rule="evenodd" clip-rule="evenodd" fill="#D8D8D8" d="M303.979,53.123c0.677-1.551,1.34-3.076,2.007-4.602
	c0.61-1.4,1.25-2.787,1.819-4.205c0.209-0.521,0.496-0.68,1.032-0.658c0.493,0.02,0.832,0.053,1.066,0.613
	c1.242,2.941,2.539,5.863,3.847,8.859c-0.203,0.02-0.336,0.02-0.464,0.047c-0.983,0.195-1.601-0.188-1.783-1.178
	c-0.177-0.961-0.749-1.197-1.659-1.104c-0.801,0.086-1.622,0.068-2.425,0.004c-0.635-0.053-0.969,0.184-1.119,0.766
	c-0.013,0.055-0.034,0.109-0.056,0.164C305.644,53.26,305.644,53.26,303.979,53.123z M307.257,49.408c0.962,0,1.8,0.004,2.633,0
	c0.237-0.002,0.522,0,0.371-0.367c-0.443-1.062-0.908-2.119-1.429-3.326C308.27,47.035,307.795,48.145,307.257,49.408z"/>
<path fill-rule="evenodd" clip-rule="evenodd" fill="#D8D8D8" d="M199.021,53.143c-0.214,0.016-0.331,0.012-0.443,0.035
	c-1.021,0.197-1.636-0.191-1.832-1.232c-0.16-0.852-0.665-1.143-1.539-1.049c-0.859,0.09-1.739,0.057-2.603,0.006
	c-0.559-0.033-0.874,0.15-1.007,0.682c-0.035,0.139-0.112,0.266-0.171,0.398c-0.568,1.316-0.568,1.316-2.177,1.111
	c0.825-1.893,1.643-3.762,2.46-5.635c0.473-1.084,0.975-2.158,1.404-3.26c0.191-0.488,0.498-0.562,0.938-0.531
	c0.415,0.031,0.808-0.084,1.052,0.488C196.364,47.133,197.681,50.084,199.021,53.143z M192.521,49.408c0.985,0,1.847-0.002,2.707,0
	c0.331,0.002,0.403-0.152,0.281-0.438c-0.457-1.035-0.91-2.072-1.424-3.242C193.533,47.025,193.053,48.158,192.521,49.408z"/>
<path fill-rule="evenodd" clip-rule="evenodd" fill="#D8D8D8" d="M183.259,43.633c1.032,0.031,1.992,0.281,2.867,0.852
	c0.319,0.211,0.539,0.441,0.175,0.713c-0.31,0.232-0.22,1.146-1.013,0.623c-0.767-0.504-1.604-0.787-2.54-0.652
	c-0.558,0.078-1.002,0.312-1.101,0.926c-0.103,0.627,0.245,0.992,0.788,1.176c0.736,0.248,1.493,0.443,2.23,0.686
	c1.638,0.539,2.302,1.4,2.187,2.793c-0.111,1.348-0.987,2.225-2.572,2.498c-1.563,0.27-2.969-0.162-4.248-1.068
	c-0.277-0.197-0.576-0.426-0.164-0.719c0.324-0.229,0.36-1.086,1.075-0.549c0.862,0.648,1.817,0.998,2.91,0.885
	c0.646-0.066,1.198-0.273,1.302-1.023c0.099-0.732-0.385-1.045-0.966-1.232c-0.686-0.223-1.395-0.373-2.08-0.594
	c-1.604-0.518-2.318-1.463-2.169-2.812c0.154-1.395,1.306-2.391,2.885-2.498C182.97,43.627,183.116,43.633,183.259,43.633z"/>
<path fill-rule="evenodd" clip-rule="evenodd" fill="#D8D8D8" d="M61.788,43.633c1.064,0.014,2.045,0.297,2.949,0.871
	c0.363,0.23,0.422,0.508,0.1,0.74c-0.299,0.217-0.217,1.072-0.952,0.594c-0.769-0.502-1.597-0.799-2.536-0.676
	c-0.597,0.08-1.065,0.342-1.154,0.98c-0.086,0.623,0.314,0.969,0.848,1.146c0.738,0.244,1.495,0.43,2.233,0.676
	c1.615,0.535,2.229,1.363,2.12,2.826c-0.097,1.303-0.962,2.174-2.506,2.451c-1.562,0.279-2.969-0.146-4.257-1.037
	c-0.317-0.219-0.592-0.465-0.16-0.791c0.312-0.236,0.379-1.051,1.086-0.482c0.846,0.678,1.826,0.979,2.914,0.861
	c0.615-0.066,1.136-0.291,1.247-0.986c0.115-0.717-0.338-1.066-0.923-1.26c-0.684-0.225-1.393-0.371-2.08-0.588
	c-1.65-0.521-2.388-1.502-2.195-2.871c0.205-1.449,1.362-2.395,3.005-2.455C61.614,43.629,61.701,43.633,61.788,43.633z"/>
<path fill-rule="evenodd" clip-rule="evenodd" fill="#D8D8D8" d="M275.769,43.633c1.03,0.031,1.988,0.291,2.863,0.855
	c0.33,0.213,0.506,0.457,0.153,0.729c-0.303,0.234-0.236,1.123-1.019,0.594c-0.76-0.512-1.606-0.779-2.541-0.641
	c-0.56,0.082-1.001,0.344-1.1,0.938c-0.104,0.621,0.275,0.984,0.811,1.168c0.735,0.25,1.493,0.439,2.232,0.682
	c1.633,0.531,2.254,1.346,2.158,2.797c-0.088,1.342-0.971,2.23-2.56,2.496c-1.562,0.264-2.969-0.17-4.248-1.074
	c-0.294-0.209-0.533-0.455-0.14-0.732c0.32-0.227,0.354-1.092,1.075-0.529c0.854,0.664,1.82,0.99,2.912,0.883
	c0.654-0.066,1.201-0.305,1.291-1.043c0.082-0.707-0.393-1.039-0.981-1.221c-0.689-0.213-1.396-0.371-2.08-0.592
	c-1.604-0.52-2.323-1.477-2.154-2.818c0.182-1.416,1.303-2.385,2.891-2.488C275.478,43.625,275.622,43.633,275.769,43.633z"/>
<path fill-rule="evenodd" clip-rule="evenodd" fill="#D8D8D8" d="M73.026,43.609c1.553-0.004,2.607,0.391,3.545,1.145
	c0.301,0.244,0.369,0.479,0.052,0.67c-0.352,0.213-0.376,1.086-1.064,0.613c-0.605-0.414-1.211-0.795-1.957-0.865
	c-1.483-0.141-2.67,0.594-3.213,1.975c-0.571,1.451-0.124,3.168,1.059,4.076c1.047,0.803,2.587,0.771,3.804-0.096
	c0.393-0.279,0.651-0.643,1.188-0.07c0.525,0.557,0.477,0.801-0.097,1.234c-1.743,1.316-4.167,1.426-5.92,0.207
	c-1.749-1.217-2.462-3.492-1.765-5.635C69.321,44.832,71.118,43.592,73.026,43.609z"/>
<path fill-rule="evenodd" clip-rule="evenodd" fill="#D8D8D8" d="M91.47,43.84c1.669-0.164,1.663-0.162,2.263,1.375
	c0.722,1.842,1.456,3.682,2.266,5.727c0.803-2.057,1.532-3.916,2.253-5.775c0.576-1.484,0.572-1.484,2.324-1.318
	c-0.373,0.898-0.737,1.77-1.096,2.641c-0.844,2.055-1.7,4.102-2.517,6.166c-0.188,0.475-0.426,0.664-0.951,0.652
	c-0.515-0.014-0.828-0.1-1.044-0.646c-1.086-2.732-2.225-5.443-3.338-8.166C91.545,44.287,91.378,44.094,91.47,43.84z"/>
<path fill-rule="evenodd" clip-rule="evenodd" fill="#D8D8D8" d="M162.777,43.855c0.142-0.039,0.168-0.051,0.197-0.057
	c1.22-0.242,2.05,0.143,2.604,1.334c0.442,0.951,1.116,1.797,1.735,2.764c0.647-1.01,1.334-1.885,1.809-2.865
	c0.563-1.162,1.374-1.516,2.656-1.139c-0.67,1.021-1.256,2.119-2.031,3.061c-1.33,1.613-1.896,3.395-1.599,5.449
	c0.101,0.688-0.195,0.822-0.816,0.789c-0.557-0.029-1.062,0.035-0.917-0.787c0.375-2.176-0.402-3.986-1.73-5.664
	C163.993,45.863,163.442,44.871,162.777,43.855z"/>
<path fill-rule="evenodd" clip-rule="evenodd" fill="#D8D8D8" d="M223.399,47.898c0.648-1.012,1.331-1.879,1.8-2.852
	c0.56-1.152,1.378-1.504,2.595-1.197c0.117,0.191-0.105,0.316-0.2,0.465c-0.565,0.873-1.072,1.795-1.73,2.592
	c-1.342,1.621-1.955,3.424-1.625,5.512c0.116,0.725-0.24,0.793-0.827,0.771c-0.561-0.02-1.042,0.02-0.906-0.791
	c0.359-2.131-0.36-3.928-1.68-5.58c-0.717-0.896-1.276-1.918-1.911-2.891c1.466-0.385,1.796-0.264,2.535,0.902
	C222.078,45.824,222.71,46.814,223.399,47.898z"/>
<path fill-rule="evenodd" clip-rule="evenodd" fill="#BE532C" d="M9.192,11.92c-0.669-0.001-1.175-0.503-1.178-1.166
	C8.012,10.078,8.535,9.556,9.21,9.559c0.652,0.002,1.176,0.525,1.181,1.177C10.396,11.411,9.88,11.921,9.192,11.92z"/>
<path fill-rule="evenodd" clip-rule="evenodd" fill="#D8D8D8" d="M213.46,47.703c0,1.068,0.027,2.139-0.013,3.207
	c-0.02,0.551,0.117,0.754,0.705,0.729c1.184-0.047,2.371,0.031,3.552-0.031c0.664-0.035,0.694,0.287,0.669,0.773
	c-0.021,0.422,0.12,0.838-0.616,0.814c-1.788-0.059-3.582-0.037-5.373-0.008c-0.515,0.008-0.621-0.18-0.618-0.65
	c0.018-2.717,0.034-5.434-0.006-8.148c-0.013-0.818,0.512-0.572,0.921-0.602c0.44-0.029,0.844-0.094,0.797,0.623
	C213.407,45.504,213.46,46.604,213.46,47.703z"/>
<path fill-rule="evenodd" clip-rule="evenodd" fill="#D8D8D8" d="M202.044,48.438c0-1.359,0.029-2.719-0.012-4.076
	c-0.027-0.836,0.553-0.537,0.943-0.568c0.388-0.033,0.782-0.127,0.77,0.557c-0.046,2.166,0.014,4.334-0.035,6.5
	c-0.017,0.68,0.199,0.816,0.824,0.791c1.184-0.049,2.369,0.018,3.553-0.029c0.693-0.025,0.543,0.418,0.546,0.797
	c0.003,0.377,0.147,0.799-0.546,0.781c-1.818-0.041-3.642-0.025-5.461-0.004c-0.452,0.004-0.601-0.133-0.593-0.59
	C202.059,51.209,202.044,49.82,202.044,48.438z"/>
<path fill-rule="evenodd" clip-rule="evenodd" fill="#741C1A" d="M9.521,32.627c-0.002,0.605-0.473,1.086-1.074,1.094
	c-0.582,0.008-1.088-0.49-1.098-1.082c-0.01-0.606,0.489-1.107,1.104-1.1C9.06,31.545,9.523,32.018,9.521,32.627z"/>
<path fill-rule="evenodd" clip-rule="evenodd" fill="#4A2A58" d="M9.516,36.623c-0.007,0.613-0.47,1.055-1.101,1.047
	c-0.61-0.006-1.077-0.494-1.062-1.102c0.016-0.596,0.517-1.074,1.116-1.061C9.079,35.521,9.523,35.994,9.516,36.623z"/>
<path fill-rule="evenodd" clip-rule="evenodd" fill="#006F7B" d="M12.008,37.438c0.007,0.609-0.464,1.098-1.067,1.105
	c-0.597,0.008-1.094-0.475-1.107-1.074c-0.013-0.588,0.482-1.096,1.078-1.104C11.513,36.355,12.001,36.834,12.008,37.438z"/>
<path fill-rule="evenodd" clip-rule="evenodd" fill="#006F7B" d="M10.869,47.375c0.604,0,1.091,0.48,1.095,1.082
	c0.004,0.586-0.501,1.096-1.09,1.1c-0.598,0-1.083-0.488-1.083-1.094C9.791,47.844,10.255,47.377,10.869,47.375z"/>
<path fill-rule="evenodd" clip-rule="evenodd" fill="#BE532C" d="M12.008,18.259c-0.005,0.602-0.497,1.087-1.091,1.081
	c-0.595-0.007-1.082-0.502-1.078-1.1c0.003-0.595,0.5-1.082,1.096-1.08C11.531,17.165,12.014,17.658,12.008,18.259z"/>
<path fill-rule="evenodd" clip-rule="evenodd" fill="#194E80" d="M9.516,43.479c-0.002,0.613-0.465,1.068-1.087,1.066
	c-0.619-0.004-1.078-0.465-1.072-1.082c0.004-0.619,0.461-1.066,1.089-1.062C9.066,42.4,9.518,42.855,9.516,43.479z"/>
<path fill-rule="evenodd" clip-rule="evenodd" fill="#BE532C" d="M10.938,28.269c-0.616,0.003-1.099-0.465-1.1-1.07
	c0-0.605,0.477-1.074,1.094-1.073c0.604,0,1.065,0.45,1.075,1.049C12.019,27.79,11.556,28.264,10.938,28.269z"/>
<path fill-rule="evenodd" clip-rule="evenodd" fill="#DF8C1E" d="M8.441,21.38c0.612,0.005,1.081,0.479,1.075,1.086
	c-0.005,0.598-0.504,1.09-1.095,1.079c-0.596-0.01-1.095-0.516-1.084-1.098C7.347,21.84,7.828,21.376,8.441,21.38z"/>
<path fill-rule="evenodd" clip-rule="evenodd" fill="#52701D" d="M8.31,52.26c-0.535,0.002-0.984-0.443-0.976-0.969
	c0.008-0.523,0.433-0.939,0.962-0.943c0.531-0.002,0.959,0.406,0.975,0.93C9.288,51.797,8.839,52.256,8.31,52.26z"/>
<path fill-rule="evenodd" clip-rule="evenodd" fill="#DF8C1E" d="M11.056,7.601c-0.518-0.005-0.952-0.445-0.945-0.958
	c0.008-0.51,0.456-0.945,0.968-0.938c0.526,0.006,0.936,0.43,0.931,0.961C12.004,7.197,11.586,7.607,11.056,7.601z"/>
<path fill-rule="evenodd" clip-rule="evenodd" fill="#BE532C" d="M9.224,19.226c-0.007,0.531-0.436,0.946-0.961,0.927
	c-0.503-0.016-0.926-0.45-0.924-0.945c0.002-0.525,0.433-0.948,0.96-0.941C8.836,18.273,9.231,18.683,9.224,19.226z"/>
<path fill-rule="evenodd" clip-rule="evenodd" fill="#DF8C1E" d="M12.008,20.479c0.005,0.532-0.407,0.955-0.934,0.96
	c-0.523,0.004-0.948-0.421-0.947-0.949c0.001-0.521,0.396-0.922,0.917-0.934C11.582,19.546,12.003,19.949,12.008,20.479z"/>
<path fill-rule="evenodd" clip-rule="evenodd" fill="#D8D8D8" d="M54.828,48.48c0,1.33-0.043,2.662,0.018,3.99
	c0.032,0.691-0.279,0.742-0.814,0.711c-0.463-0.027-0.874,0.092-0.859-0.664c0.048-2.691,0.048-5.383,0-8.072
	c-0.014-0.752,0.392-0.643,0.858-0.666c0.532-0.027,0.848,0.016,0.815,0.709C54.785,45.814,54.828,47.148,54.828,48.48z"/>
<path fill-rule="evenodd" clip-rule="evenodd" fill="#52701D" d="M11.173,51.225c0.483-0.006,0.833,0.328,0.842,0.803
	s-0.332,0.838-0.802,0.852c-0.477,0.014-0.873-0.363-0.872-0.826C10.343,51.592,10.708,51.229,11.173,51.225z"/>
<path fill-rule="evenodd" clip-rule="evenodd" fill="#52701D" d="M9.435,47.545c-0.006,0.467-0.368,0.828-0.831,0.828
	c-0.475,0.002-0.846-0.381-0.833-0.859c0.011-0.465,0.381-0.816,0.848-0.809C9.084,46.713,9.442,47.08,9.435,47.545z"/>
<path fill-rule="evenodd" clip-rule="evenodd" fill="#006F7B" d="M10.396,41.611c0.463,0.006,0.814,0.369,0.813,0.838
	c-0.001,0.477-0.386,0.85-0.861,0.832c-0.449-0.018-0.826-0.42-0.807-0.859C9.562,41.961,9.939,41.602,10.396,41.611z"/>
<path fill-rule="evenodd" clip-rule="evenodd" fill="#194E80" d="M12.01,40.607c0,0.461-0.369,0.832-0.828,0.838
	c-0.449,0.004-0.833-0.381-0.833-0.836c0-0.473,0.356-0.822,0.831-0.824C11.652,39.783,12.01,40.137,12.01,40.607z"/>
<path fill-rule="evenodd" clip-rule="evenodd" fill="#BE532C" d="M9.005,28.765c0.004,0.469-0.349,0.834-0.816,0.844
	c-0.453,0.008-0.847-0.369-0.852-0.818c-0.006-0.457,0.367-0.835,0.827-0.841C8.634,27.945,9,28.3,9.005,28.765z"/>
<path fill-rule="evenodd" clip-rule="evenodd" fill="#DF8C1E" d="M11.288,13.28c0.418,0.005,0.727,0.324,0.719,0.743
	c-0.008,0.412-0.336,0.73-0.747,0.72c-0.41-0.01-0.73-0.342-0.724-0.75C10.544,13.581,10.867,13.274,11.288,13.28z"/>
<path fill-rule="evenodd" clip-rule="evenodd" fill="#006F7B" d="M10.583,50.719c-0.009,0.32-0.269,0.572-0.59,0.572
	c-0.336,0-0.604-0.279-0.586-0.611c0.017-0.324,0.275-0.559,0.606-0.549C10.337,50.143,10.592,50.404,10.583,50.719z"/>
<path fill-rule="evenodd" clip-rule="evenodd" fill="#741C1A" d="M12.01,22.393c-0.008,0.313-0.272,0.576-0.582,0.579
	c-0.316,0.002-0.603-0.294-0.591-0.612c0.012-0.324,0.307-0.595,0.627-0.575C11.781,21.806,12.019,22.069,12.01,22.393z"/>
<path fill-rule="evenodd" clip-rule="evenodd" fill="#4A2A58" d="M8.509,25.86c0.008,0.335-0.221,0.577-0.555,0.586
	c-0.331,0.009-0.597-0.224-0.615-0.537c-0.019-0.324,0.254-0.613,0.584-0.619C8.242,25.284,8.501,25.537,8.509,25.86z"/>
<path fill-rule="evenodd" clip-rule="evenodd" fill="#006F7B" d="M7.919,49.803c-0.33-0.01-0.571-0.256-0.567-0.586
	c0.003-0.316,0.267-0.584,0.578-0.586c0.33-0.004,0.593,0.271,0.582,0.613C8.5,49.568,8.245,49.811,7.919,49.803z"/>
<path fill-rule="evenodd" clip-rule="evenodd" fill="#194E80" d="M7.919,45.053c0.318-0.006,0.581,0.246,0.588,0.566
	c0.007,0.33-0.227,0.586-0.553,0.6c-0.335,0.012-0.618-0.252-0.617-0.58C7.339,45.334,7.614,45.057,7.919,45.053z"/>
<path fill-rule="evenodd" clip-rule="evenodd" fill="#741C1A" d="M8.938,27.638c-0.316,0.004-0.58-0.245-0.591-0.562
	c-0.013-0.334,0.243-0.612,0.572-0.62c0.323-0.008,0.598,0.269,0.596,0.598C9.512,27.362,9.244,27.634,8.938,27.638z"/>
<path fill-rule="evenodd" clip-rule="evenodd" fill="#4A2A58" d="M10.159,32.705c-0.325,0.004-0.579-0.241-0.586-0.568
	c-0.006-0.334,0.227-0.586,0.552-0.598c0.34-0.012,0.618,0.248,0.618,0.58C10.743,32.424,10.467,32.701,10.159,32.705z"/>
<path fill-rule="evenodd" clip-rule="evenodd" fill="#194E80" d="M7.91,35.197c-0.318-0.008-0.579-0.277-0.571-0.59
	c0.008-0.309,0.284-0.578,0.59-0.576c0.334,0.002,0.591,0.273,0.578,0.615C8.495,34.973,8.241,35.207,7.91,35.197z"/>
<path fill-rule="evenodd" clip-rule="evenodd" fill="#741C1A" d="M9.268,20.153c0.326,0.011,0.562,0.259,0.556,0.585
	c-0.006,0.334-0.278,0.592-0.611,0.576c-0.308-0.015-0.57-0.291-0.566-0.596C8.653,20.392,8.927,20.142,9.268,20.153z"/>
<path fill-rule="evenodd" clip-rule="evenodd" fill="#52701D" d="M12.004,50.279c-0.007,0.32-0.266,0.576-0.58,0.576
	c-0.319-0.002-0.6-0.295-0.588-0.615c0.012-0.309,0.287-0.578,0.589-0.576C11.748,49.666,12.012,49.947,12.004,50.279z"/>
<path fill-rule="evenodd" clip-rule="evenodd" fill="#006F7B" d="M8.803,41.586c0.006,0.336-0.222,0.586-0.55,0.598
	c-0.331,0.016-0.608-0.252-0.609-0.586c-0.001-0.328,0.243-0.568,0.578-0.572C8.562,41.023,8.797,41.248,8.803,41.586z"/>
<path fill-rule="evenodd" clip-rule="evenodd" fill="#741C1A" d="M7.911,24.915c-0.319-0.006-0.574-0.264-0.576-0.58
	c-0.003-0.308,0.306-0.609,0.611-0.595c0.318,0.013,0.564,0.273,0.565,0.594C8.512,24.676,8.257,24.923,7.911,24.915z"/>
<path fill-rule="evenodd" clip-rule="evenodd" fill="#194E80" d="M11.05,44.166c0.027-0.104-0.082-0.133-0.118-0.203
	c-0.144-0.262-0.136-0.512,0.074-0.73c0.2-0.205,0.447-0.23,0.697-0.1c0.259,0.135,0.343,0.375,0.282,0.645
	c-0.062,0.279-0.267,0.42-0.547,0.447c-0.081,0.008-0.164,0.008-0.246,0.012l0.006,0.002c-0.018-0.09-0.07-0.111-0.151-0.078
	L11.05,44.166z"/>
<path fill-rule="evenodd" clip-rule="evenodd" fill="#4A2A58" d="M7.986,31.32c-0.323-0.006-0.579-0.263-0.578-0.579
	c0-0.332,0.282-0.597,0.615-0.582c0.327,0.015,0.564,0.271,0.554,0.601C8.566,31.092,8.319,31.326,7.986,31.32z"/>
<path fill-rule="evenodd" clip-rule="evenodd" fill="#194E80" d="M12.006,32.59c-0.018,0.32-0.283,0.559-0.605,0.545
	c-0.309-0.016-0.572-0.297-0.562-0.602c0.012-0.328,0.298-0.58,0.634-0.559C11.796,31.998,12.024,32.26,12.006,32.59z"/>
<path fill-rule="evenodd" clip-rule="evenodd" fill="#BE532C" d="M8.506,17.359c0.006,0.326-0.232,0.586-0.552,0.6
	c-0.321,0.015-0.62-0.271-0.615-0.585c0.004-0.317,0.264-0.575,0.582-0.579C8.249,16.792,8.499,17.034,8.506,17.359z"/>
<path fill-rule="evenodd" clip-rule="evenodd" fill="#DF8C1E" d="M9.455,17.662c-0.317-0.008-0.57-0.271-0.567-0.589
	c0.003-0.338,0.268-0.583,0.615-0.569c0.331,0.015,0.549,0.257,0.538,0.599C10.031,17.434,9.783,17.67,9.455,17.662z"/>
<path fill-rule="evenodd" clip-rule="evenodd" fill="#52701D" d="M9.854,49.396c-0.01,0.309-0.271,0.549-0.579,0.531
	c-0.294-0.016-0.515-0.258-0.509-0.557c0.006-0.314,0.257-0.547,0.569-0.529C9.625,48.861,9.863,49.113,9.854,49.396z"/>
<path fill-rule="evenodd" clip-rule="evenodd" fill="#BE532C" d="M10.944,15.555c0.297-0.005,0.53,0.212,0.543,0.509
	c0.014,0.315-0.211,0.566-0.518,0.574c-0.3,0.011-0.549-0.241-0.547-0.549C10.426,15.788,10.648,15.562,10.944,15.555z"/>
<path fill-rule="evenodd" clip-rule="evenodd" fill="#FFFFFF" d="M11.047,44.16c0.081-0.033,0.133-0.012,0.151,0.078
	C11.109,44.287,11.051,44.277,11.047,44.16z"/>
</svg>
