<?xml version="1.0" encoding="utf-8"?>
<!-- Generator: Adobe Illustrator 16.0.0, SVG Export Plug-In . SVG Version: 6.00 Build 0)  -->
<!DOCTYPE svg PUBLIC "-//W3C//DTD SVG 1.1//EN" "http://www.w3.org/Graphics/SVG/1.1/DTD/svg11.dtd">
<svg version="1.1" id="Layer_1" xmlns="http://www.w3.org/2000/svg" xmlns:xlink="http://www.w3.org/1999/xlink" x="0px" y="0px"
	 width="112px" height="36px" viewBox="0 0 112 36" enable-background="new 0 0 112 36" xml:space="preserve">
<g>
	<g>
		<path fill="#F9F9F9" d="M40.659,26.046c-1.246-1.615-4.832-1.062-5.883,0.549c-0.69,1.062-0.697,2.871,0.275,3.796
			c0.345,0.327,0.977,0.176,1.099,0.823c0.28,1.487-2.242,0.56-3.191,0.275c-0.997-0.3-1.972-0.65-2.582-0.881
			c-4.216-1.574-8.302-3.099-12.265-5.059c-0.323-0.158-2.226-0.86-1.815-1.65c0.147-0.285,1.252-0.339,1.705-0.438
			c0.565-0.122,1.511-0.232,1.595-0.552c0.09-0.328-0.546-0.868-0.824-0.934c-0.466-0.108-1.24,0.055-1.651,0.055
			c-2.917,0-5.279-0.35-7.311-1.21c-0.772-0.325-1.889-0.674-2.09-1.318c-0.458-1.46,1.996-2.37,3.021-2.804
			c0.305-0.128,1.14-0.574,1.431-0.496c0.412,0.115,0.615,1.16,0.771,1.485c0.248,0.523,0.505,1.039,0.826,1.431
			c1.432,1.748,4.979,2.188,6.872,0.328c0.866-0.846,1.467-2.132,1.871-3.354c0.114-0.348,0.278-1.209,0.44-1.319
			c0.41-0.276,1.97,0.03,2.528,0.11c0.875,0.125,1.663,0.347,2.257,0.496c1.656,0.41,2.708,0.582,3.737,1.814
			c-1.681,1.534-3.313,2.029-5.444,2.64c-0.73,0.208-1.907,0.535-3.135,0.878c-0.53,0.149-2.886,0.648-3.023,1.046
			c-0.169,0.488,0.334,1.251,0.824,1.374c0.784,0.197,2.068-0.241,2.916-0.439c1.02-0.233,1.966-0.509,2.694-0.715
			c1.831-0.512,3.543-0.971,4.949-1.813c0.963-0.582,2.016-1.896,3.023-2.036c1.208-0.164,2.097,0.599,3.408,0.552
			c0.706-0.028,1.673-0.365,1.761-1.153c0.093-0.85-0.767-1.667-1.32-1.98c-1.27-0.722-3.347-0.846-4.892-1.265
			c-3.476-0.942-6.709-1.5-10.724-1.706c-1.892-0.098-4.132-0.217-5.939-0.055c-3.071,0.278-5.415,1.466-7.7,2.53
			c-0.763,0.356-1.737,0.935-2.585,0.88c-0.756-0.048-1.902-1.021-1.87-1.816c0.024-0.6,0.733-1.071,1.208-1.429
			c2.685-2.014,5.752-3.078,10.01-3.354c1.613-0.105,3.332,0.118,4.891,0.33c5.605,0.764,10.658,1.79,15.893,2.805
			c0.516,0.099,1.936,0.555,2.254,0.329c0.274-0.195,0.212-1.058,0.109-1.429c-0.423-1.537-1.604-1.384-3.354-1.651
			c-2.792-0.425-5.725-0.904-8.304-1.318c-3.673-0.589-7.753-1.29-11.822-1.1C12.08,7.443,9.332,7.953,6.948,9.275
			c-1.091,0.607-2.193,1.292-3.134,2.033c-0.831,0.658-1.994,1.623-2.584,2.585c-0.228,0.374-0.851,1.774-0.438,2.254
			c0.472,0.552,1.925-0.292,2.417-0.166c0.301,0.078,0.788,0.994,1.21,1.265c0.708,0.458,1.609,0.406,1.649,1.375
			c0.071,1.732-2.595,0.689-3.739,1.153c-0.718,0.293-1.484,2.037-0.274,2.477c0.739,0.27,1.902-0.446,3.024-0.552
			c1.703-0.153,2.918,0.215,4.29,0.715c0.705,0.26,2.311,0.871,2.474,1.377c0.134,0.41,0.007,1.117,0.057,1.702
			c0.04,0.517,0.1,1.085,0.162,1.596c0.096,0.768,0.186,2.541,0.825,2.752c0.471,0.148,1.113-0.179,1.267-0.442
			c0.369-0.634-0.116-1.65-0.277-2.197c-0.213-0.732-0.524-1.326-0.439-2.256c0.054-0.591,0.529-1.427,0.934-1.318
			c0.477,0.125,0.672,1.51,0.717,2.146c0.134,1.993-0.404,3.572-0.111,5.552c0.1,0.682,0.596,1.781,1.375,1.318
			c0.557-0.33,0.222-1.918,0.164-2.641c-0.058-0.721-0.32-2.492,0.056-2.747c0.194-0.133,0.596,0.004,1.208,0.329
			c1.192,0.634,2.188,1.101,3.301,1.649c3.157,1.563,6.008,2.523,9.458,3.74c1.677,0.589,3.534,1.23,5.608,1.041
			c1.667-0.149,3.285-1.01,4.125-2.029C41.288,30.755,41.769,27.48,40.659,26.046z M14.046,15.654
			c0.285-0.682,1.452-1.176,2.64-1.32c1.75-0.215,4.338,0.49,4.29,2.088c-0.032,1.045-1.593,2.385-2.531,2.75
			c-1.449,0.562-2.843-0.032-3.628-0.987C14.315,17.572,13.711,16.459,14.046,15.654z M38.847,28.631
			c-0.1,0.618-0.942,1.276-0.936,1.704c0,0.124,0.18,0.278,0.164,0.383c-0.034,0.27-0.409,0.756-0.715,0.771
			c-0.254,0.015-0.483-0.13-0.493-0.329c-0.024-0.431,0.794-0.389,0.933-0.658c0.379-0.736-0.309-1.219-1.155-1.266
			c-0.218-0.665-0.056-1.255,0.222-1.488C37.617,27.126,39.018,27.556,38.847,28.631z"/>
		<g>
			<path fill="#F9F9F9" d="M47.259,26.591h-1.285V14.779h1.285V26.591z"/>
			<path fill="#F9F9F9" d="M49.672,14.277l8.985,9.648v-9.146h1.285v12.343l-8.985-9.636v9.104h-1.285V14.277z"/>
			<path fill="#F9F9F9" d="M63.624,16v3.51h3.836v1.22h-3.836v5.861h-1.285V14.779h5.245V16H63.624z"/>
			<path fill="#F9F9F9" d="M81.072,20.698c0,3.402-2.717,6.097-6.004,6.097c-3.283,0-6.003-2.694-6.003-6.097
				c0-3.384,2.72-6.125,6.003-6.125C78.355,14.573,81.072,17.314,81.072,20.698z M70.347,20.685c0,2.664,2.109,4.888,4.722,4.888
				c2.616,0,4.723-2.224,4.723-4.888c0-2.68-2.075-4.887-4.723-4.887C72.424,15.798,70.347,18.007,70.347,20.685z"/>
			<path fill="#F9F9F9" d="M87.876,17.081c-0.458-0.815-1.009-1.283-1.986-1.283c-1.024,0-1.912,0.751-1.912,1.831
				c0,1.017,1.024,1.49,1.802,1.849l0.764,0.346c1.499,0.674,2.765,1.439,2.765,3.32c0,2.07-1.621,3.651-3.617,3.651
				c-1.85,0-3.226-1.223-3.591-3.056l1.253-0.359c0.168,1.205,1.066,2.194,2.308,2.194c1.238,0,2.368-0.973,2.368-2.307
				c0-1.379-1.055-1.847-2.123-2.35l-0.702-0.312c-1.348-0.626-2.509-1.33-2.509-3.023c0-1.834,1.515-3.008,3.225-3.008
				c1.286,0,2.368,0.675,2.978,1.833L87.876,17.081z"/>
			<path fill="#F9F9F9" d="M102.454,20.698c0,3.402-2.721,6.097-6.005,6.097c-3.287,0-6.006-2.694-6.006-6.097
				c0-3.384,2.719-6.125,6.006-6.125C99.731,14.573,102.454,17.314,102.454,20.698z M91.725,20.685c0,2.664,2.11,4.888,4.725,4.888
				c2.611,0,4.722-2.224,4.722-4.888c0-2.68-2.079-4.887-4.722-4.887C93.804,15.798,91.725,18.007,91.725,20.685z"/>
			<path fill="#F9F9F9" d="M105.447,25.37h3.182v1.221h-4.466V14.779h1.284V25.37L105.447,25.37z"/>
		</g>
		<g>
			<path fill="#F9F9F9" d="M108.791,15.446c0-0.707,0.564-1.271,1.279-1.271s1.275,0.565,1.275,1.271
				c0,0.708-0.561,1.273-1.275,1.273C109.355,16.718,108.791,16.154,108.791,15.446z M111.152,15.446
				c0-0.598-0.498-1.077-1.082-1.077c-0.583,0-1.083,0.479-1.083,1.077c0,0.601,0.498,1.075,1.083,1.075
				C110.652,16.521,111.152,16.047,111.152,15.446z M110.676,16.134h-0.234l-0.416-0.644h-0.237v0.644h-0.193v-1.392h0.605
				c0.251,0,0.496,0.067,0.496,0.368c0,0.275-0.19,0.376-0.439,0.38L110.676,16.134z M110.025,15.295
				c0.171,0,0.475,0.034,0.475-0.188c0-0.144-0.188-0.168-0.337-0.168h-0.375v0.357H110.025z"/>
		</g>
	</g>
	<g>
		<path fill="#F9F9F9" d="M69.87,33.132c0.038,0.386,0.33,0.527,0.689,0.527c0.251,0,0.693-0.051,0.675-0.396
			c-0.018-0.355-0.506-0.396-0.994-0.507c-0.493-0.107-0.975-0.283-0.975-0.9c0-0.664,0.717-0.868,1.27-0.868
			c0.622,0,1.186,0.259,1.269,0.934h-0.699c-0.059-0.318-0.323-0.408-0.617-0.408c-0.192,0-0.552,0.047-0.552,0.314
			c0,0.329,0.494,0.375,0.986,0.487c0.487,0.11,0.982,0.287,0.982,0.886c0,0.726-0.728,0.987-1.357,0.987
			c-0.766,0-1.336-0.339-1.346-1.056H69.87z"/>
		<path fill="#F9F9F9" d="M72.939,32.76c0,0.479,0.261,0.899,0.817,0.899c0.389,0,0.622-0.171,0.74-0.504h0.636
			c-0.148,0.662-0.713,1.032-1.375,1.032c-0.952,0-1.488-0.662-1.488-1.597c0-0.866,0.565-1.604,1.469-1.604
			c0.96,0,1.546,0.864,1.435,1.772H72.939z M74.502,32.318c-0.022-0.421-0.311-0.806-0.764-0.806c-0.465,0-0.78,0.354-0.799,0.806
			H74.502z"/>
		<path fill="#F9F9F9" d="M76.21,32.76c0,0.479,0.257,0.899,0.814,0.899c0.388,0,0.625-0.171,0.741-0.504H78.4
			c-0.146,0.662-0.712,1.032-1.376,1.032c-0.95,0-1.488-0.662-1.488-1.597c0-0.866,0.565-1.604,1.471-1.604
			c0.958,0,1.544,0.864,1.433,1.772H76.21z M77.771,32.318c-0.022-0.421-0.312-0.806-0.765-0.806c-0.462,0-0.781,0.354-0.797,0.806
			H77.771z"/>
		<path fill="#F9F9F9" d="M78.97,29.911h0.673v0.633H78.97V29.911z M78.97,31.068h0.673v3.037H78.97V31.068z"/>
		<path fill="#F9F9F9" d="M80.368,31.068h0.637v0.444l0.012,0.013c0.199-0.334,0.547-0.54,0.946-0.54
			c0.66,0,1.075,0.353,1.075,1.034v2.086H82.37v-1.912c-0.012-0.476-0.203-0.681-0.594-0.681c-0.445,0-0.734,0.354-0.734,0.801
			v1.792h-0.671v-3.037H80.368z"/>
		<path fill="#F9F9F9" d="M86.553,33.946c0,0.912-0.536,1.366-1.494,1.366c-0.61,0-1.297-0.235-1.354-0.947h0.667
			c0.083,0.382,0.388,0.443,0.729,0.443c0.54,0,0.781-0.273,0.781-0.773v-0.467H85.87c-0.189,0.336-0.534,0.536-0.914,0.536
			c-0.961,0-1.362-0.729-1.362-1.598c0-0.818,0.512-1.522,1.374-1.522c0.383,0,0.73,0.158,0.902,0.499h0.01v-0.417h0.671v2.879
			L86.553,33.946L86.553,33.946z M85.882,32.52c0-0.523-0.235-1.007-0.815-1.007c-0.593,0-0.802,0.555-0.802,1.06
			c0,0.5,0.241,1.007,0.802,1.007C85.66,33.577,85.882,33.038,85.882,32.52z"/>
		<path fill="#F9F9F9" d="M88.879,29.911h0.672v1.548h0.012c0.182-0.292,0.564-0.474,0.904-0.474c0.957,0,1.424,0.729,1.424,1.614
			c0,0.819-0.413,1.586-1.31,1.586c-0.411,0-0.854-0.098-1.058-0.497h-0.011v0.417h-0.636L88.879,29.911L88.879,29.911z
			 M90.378,31.513c-0.562,0-0.854,0.43-0.854,1.078c0,0.609,0.315,1.068,0.854,1.068c0.61,0,0.84-0.538,0.84-1.068
			C91.22,32.036,90.933,31.513,90.378,31.513z"/>
		<path fill="#F9F9F9" d="M92.977,32.76c0,0.479,0.261,0.899,0.817,0.899c0.389,0,0.624-0.171,0.74-0.504h0.636
			c-0.146,0.662-0.71,1.032-1.376,1.032c-0.95,0-1.486-0.662-1.486-1.597c0-0.866,0.562-1.604,1.468-1.604
			c0.959,0,1.547,0.864,1.433,1.772H92.977z M94.541,32.318c-0.022-0.421-0.314-0.806-0.766-0.806c-0.463,0-0.783,0.354-0.799,0.806
			H94.541z"/>
		<path fill="#F9F9F9" d="M95.388,31.068h0.735l0.791,2.269h0.014l0.77-2.269h0.697l-1.181,3.202
			c-0.215,0.547-0.373,1.04-1.074,1.04c-0.158,0-0.308-0.012-0.464-0.036v-0.563c0.106,0.017,0.212,0.041,0.315,0.041
			c0.312,0,0.39-0.164,0.471-0.427l0.078-0.232L95.388,31.068z"/>
		<path fill="#F9F9F9" d="M98.631,32.582c0-0.925,0.56-1.597,1.533-1.597c0.979,0,1.536,0.67,1.536,1.597
			c0,0.936-0.558,1.604-1.536,1.604C99.192,34.186,98.631,33.518,98.631,32.582z M101.03,32.582c0-0.521-0.267-1.069-0.864-1.069
			c-0.601,0-0.863,0.548-0.863,1.069c0,0.53,0.263,1.077,0.863,1.077C100.764,33.659,101.03,33.112,101.03,32.582z"/>
		<path fill="#F9F9F9" d="M102.257,31.068h0.638v0.444l0.011,0.013c0.202-0.334,0.55-0.54,0.947-0.54
			c0.657,0,1.074,0.353,1.074,1.034v2.086h-0.668v-1.912c-0.014-0.476-0.201-0.681-0.598-0.681c-0.443,0-0.729,0.354-0.729,0.801
			v1.792h-0.674v-3.037H102.257z"/>
		<path fill="#F9F9F9" d="M108.494,34.105h-0.636v-0.411h-0.016c-0.173,0.347-0.555,0.491-0.937,0.491
			c-0.959,0-1.422-0.709-1.422-1.619c0-1.097,0.652-1.58,1.315-1.58c0.382,0,0.807,0.14,1.012,0.474h0.013v-1.549h0.668v4.194
			H108.494z M106.995,33.659c0.6,0,0.85-0.547,0.85-1.077c0-0.666-0.321-1.069-0.837-1.069c-0.632,0-0.852,0.562-0.852,1.108
			C106.156,33.142,106.412,33.659,106.995,33.659z"/>
	</g>
</g>
<text transform="matrix(1 0 0 1 38.0342 6.3672)" fill="#F4F2F2" font-family="'MyriadPro-Regular'" font-size="7.0703">powered by</text>
</svg>
