<?xml version="1.0" encoding="utf-8"?>
<!-- Generator: Adobe Illustrator 16.0.0, SVG Export Plug-In . SVG Version: 6.00 Build 0)  -->
<!DOCTYPE svg PUBLIC "-//W3C//DTD SVG 1.1//EN" "http://www.w3.org/Graphics/SVG/1.1/DTD/svg11.dtd">
<svg version="1.1" id="Layer_1" xmlns="http://www.w3.org/2000/svg" xmlns:xlink="http://www.w3.org/1999/xlink" x="0px" y="0px"
	 width="170px" height="60px" viewBox="80 0 170 60" enable-background="new 80 0 170 60" xml:space="preserve">
<g>
	<g>
		<path fill="#F9F9F9" d="M143.157,42.357c-1.831-2.371-7.1-1.562-8.643,0.809c-1.014,1.559-1.024,4.215,0.403,5.576
			c0.507,0.48,1.437,0.257,1.615,1.21c0.412,2.184-3.294,0.821-4.687,0.403c-1.465-0.438-2.897-0.955-3.795-1.293
			c-6.193-2.312-12.195-4.553-18.017-7.433c-0.474-0.231-3.269-1.263-2.666-2.423c0.218-0.42,1.84-0.5,2.506-0.646
			c0.83-0.178,2.218-0.34,2.343-0.809c0.131-0.482-0.803-1.277-1.211-1.372c-0.684-0.159-1.822,0.08-2.425,0.08
			c-4.286,0-7.755-0.515-10.741-1.776c-1.133-0.478-2.773-0.992-3.07-1.938c-0.672-2.144,2.934-3.482,4.44-4.118
			c0.449-0.189,1.675-0.844,2.101-0.728c0.606,0.168,0.904,1.703,1.133,2.181c0.363,0.768,0.742,1.527,1.212,2.1
			c2.103,2.568,7.315,3.215,10.097,0.484c1.271-1.243,2.154-3.133,2.747-4.927c0.167-0.511,0.407-1.777,0.646-1.938
			c0.602-0.406,2.893,0.043,3.715,0.16c1.285,0.185,2.441,0.511,3.314,0.728c2.434,0.604,3.979,0.855,5.492,2.666
			c-2.471,2.256-4.867,2.983-8,3.879c-1.072,0.305-2.8,0.785-4.604,1.289c-0.78,0.219-4.239,0.951-4.442,1.537
			c-0.249,0.717,0.491,1.838,1.211,2.018c1.15,0.292,3.037-0.357,4.283-0.646c1.497-0.344,2.887-0.748,3.957-1.05
			c2.69-0.752,5.205-1.425,7.271-2.664c1.414-0.853,2.961-2.786,4.442-2.991c1.774-0.242,3.079,0.881,5.006,0.811
			c1.038-0.041,2.459-0.536,2.587-1.694c0.137-1.249-1.127-2.449-1.938-2.91c-1.865-1.061-4.917-1.242-7.188-1.859
			c-5.105-1.384-9.854-2.202-15.753-2.505c-2.78-0.144-6.069-0.32-8.724-0.081c-4.512,0.41-7.955,2.154-11.311,3.717
			c-1.121,0.523-2.552,1.373-3.798,1.293c-1.111-0.071-2.793-1.501-2.746-2.668c0.035-0.881,1.076-1.573,1.775-2.099
			c3.942-2.958,8.45-4.521,14.703-4.927c2.37-0.155,4.896,0.172,7.188,0.485c8.233,1.122,15.656,2.629,23.346,4.12
			c0.758,0.145,2.845,0.815,3.312,0.484c0.404-0.287,0.312-1.555,0.161-2.1c-0.621-2.257-2.356-2.033-4.927-2.426
			c-4.1-0.624-8.409-1.329-12.198-1.938c-5.397-0.864-11.39-1.894-17.367-1.615c-4.741,0.218-8.778,0.966-12.279,2.908
			c-1.604,0.892-3.223,1.898-4.604,2.987c-1.22,0.967-2.93,2.384-3.797,3.797c-0.336,0.55-1.25,2.607-0.644,3.312
			c0.695,0.811,2.829-0.428,3.552-0.243c0.441,0.114,1.157,1.461,1.778,1.858c1.041,0.673,2.365,0.596,2.422,2.02
			c0.105,2.545-3.811,1.013-5.492,1.695c-1.054,0.43-2.18,2.994-0.403,3.639c1.086,0.395,2.795-0.658,4.443-0.812
			c2.502-0.225,4.287,0.315,6.301,1.051c1.036,0.381,3.396,1.279,3.635,2.021c0.196,0.605,0.011,1.643,0.083,2.503
			c0.059,0.759,0.146,1.593,0.238,2.343c0.141,1.129,0.271,3.733,1.213,4.043c0.691,0.219,1.635-0.264,1.859-0.649
			c0.543-0.933-0.17-2.423-0.406-3.229c-0.314-1.076-0.771-1.949-0.646-3.314c0.08-0.866,0.777-2.096,1.373-1.938
			c0.699,0.185,0.986,2.218,1.052,3.153c0.198,2.929-0.593,5.248-0.162,8.156c0.147,1,0.875,2.617,2.02,1.938
			c0.818-0.486,0.327-2.818,0.242-3.88c-0.086-1.058-0.471-3.662,0.082-4.036c0.283-0.195,0.876,0.006,1.775,0.483
			c1.75,0.931,3.215,1.618,4.848,2.424c4.638,2.295,8.826,3.708,13.896,5.494c2.464,0.866,5.191,1.808,8.238,1.53
			c2.45-0.219,4.825-1.484,6.06-2.982C144.079,49.277,144.785,44.465,143.157,42.357z M104.06,27.093
			c0.418-1.002,2.132-1.728,3.877-1.94c2.572-0.316,6.373,0.72,6.302,3.068c-0.047,1.536-2.339,3.505-3.718,4.04
			c-2.129,0.826-4.176-0.047-5.329-1.45C104.455,29.91,103.567,28.274,104.06,27.093z M140.493,46.156
			c-0.146,0.908-1.383,1.873-1.374,2.503c0.001,0.183,0.263,0.409,0.241,0.563c-0.051,0.396-0.602,1.111-1.051,1.133
			c-0.373,0.021-0.711-0.19-0.725-0.484c-0.035-0.633,1.166-0.571,1.371-0.967c0.557-1.081-0.454-1.788-1.697-1.86
			c-0.32-0.976-0.082-1.841,0.326-2.183C138.685,43.945,140.744,44.575,140.493,46.156z"/>
		<g>
			<path fill="#F9F9F9" d="M152.851,43.16h-1.887V25.807h1.887V43.16z"/>
			<path fill="#F9F9F9" d="M156.396,25.069l13.201,14.175V25.807h1.886v18.132l-13.199-14.155V43.16h-1.888V25.069z"/>
			<path fill="#F9F9F9" d="M176.892,27.6v5.156h5.637v1.794h-5.637v8.61h-1.887V25.807h7.704V27.6H176.892z"/>
			<path fill="#F9F9F9" d="M202.526,34.503c0,4.997-3.992,8.955-8.821,8.955c-4.825,0-8.819-3.958-8.819-8.955
				c0-4.972,3.994-8.999,8.819-8.999C198.534,25.504,202.526,29.531,202.526,34.503z M186.769,34.482
				c0,3.914,3.098,7.181,6.937,7.181c3.841,0,6.937-3.267,6.937-7.181c0-3.935-3.049-7.179-6.937-7.179
				C189.821,27.303,186.769,30.549,186.769,34.482z"/>
			<path fill="#F9F9F9" d="M212.519,29.188c-0.674-1.197-1.482-1.885-2.918-1.885c-1.504,0-2.808,1.104-2.808,2.69
				c0,1.496,1.505,2.187,2.647,2.717l1.123,0.506c2.201,0.991,4.061,2.116,4.061,4.88c0,3.039-2.379,5.362-5.316,5.362
				c-2.715,0-4.738-1.795-5.274-4.487l1.842-0.529c0.246,1.771,1.567,3.223,3.388,3.223c1.819,0,3.48-1.428,3.48-3.387
				c0-2.025-1.55-2.715-3.119-3.452l-1.033-0.457c-1.977-0.921-3.683-1.956-3.683-4.442c0-2.695,2.226-4.42,4.735-4.42
				c1.89,0,3.479,0.992,4.377,2.693L212.519,29.188z"/>
			<path fill="#F9F9F9" d="M233.937,34.503c0,4.997-3.998,8.955-8.822,8.955c-4.829,0-8.822-3.958-8.822-8.955
				c0-4.972,3.993-8.999,8.822-8.999C229.938,25.504,233.937,29.531,233.937,34.503z M218.175,34.482c0,3.914,3.1,7.181,6.939,7.181
				c3.837,0,6.936-3.267,6.936-7.181c0-3.935-3.055-7.179-6.936-7.179C221.228,27.303,218.175,30.549,218.175,34.482z"/>
			<path fill="#F9F9F9" d="M238.334,41.366h4.673v1.794h-6.559V25.807h1.886V41.366L238.334,41.366z"/>
		</g>
		<g>
			<path fill="#F9F9F9" d="M243.246,26.786c0-1.038,0.829-1.867,1.878-1.867c1.051,0,1.876,0.83,1.876,1.867
				c0,1.042-0.825,1.871-1.876,1.871C244.075,28.656,243.246,27.828,243.246,26.786z M246.714,26.786
				c0-0.879-0.731-1.581-1.59-1.581c-0.857,0-1.589,0.702-1.589,1.581c0,0.883,0.729,1.58,1.589,1.58
				C245.981,28.365,246.714,27.669,246.714,26.786z M246.015,27.797h-0.344l-0.613-0.945h-0.346v0.945h-0.285v-2.045h0.891
				c0.367,0,0.727,0.098,0.727,0.541c0,0.403-0.281,0.553-0.646,0.559L246.015,27.797z M245.058,26.565
				c0.254,0,0.699,0.05,0.699-0.276c0-0.212-0.277-0.248-0.498-0.248h-0.547v0.524H245.058z"/>
		</g>
	</g>
	<g>
		<path fill="#F9F9F9" d="M186.069,52.768c0.053,0.568,0.484,0.774,1.012,0.774c0.37,0,1.018-0.073,0.992-0.583
			c-0.025-0.521-0.744-0.579-1.461-0.744c-0.725-0.158-1.432-0.416-1.432-1.322c0-0.975,1.053-1.276,1.865-1.276
			c0.914,0,1.742,0.38,1.864,1.372h-1.028c-0.086-0.467-0.475-0.598-0.906-0.598c-0.282,0-0.812,0.067-0.812,0.459
			c0,0.483,0.726,0.553,1.451,0.717c0.716,0.162,1.442,0.423,1.442,1.303c0,1.064-1.07,1.449-1.994,1.449
			c-1.123,0-1.961-0.498-1.977-1.551H186.069z"/>
		<path fill="#F9F9F9" d="M190.577,52.221c0,0.702,0.382,1.321,1.201,1.321c0.57,0,0.914-0.25,1.088-0.74h0.934
			c-0.218,0.974-1.047,1.517-2.021,1.517c-1.398,0-2.186-0.973-2.186-2.346c0-1.271,0.83-2.356,2.158-2.356
			c1.41,0,2.271,1.27,2.106,2.604H190.577z M192.874,51.573c-0.035-0.618-0.457-1.183-1.122-1.183c-0.685,0-1.147,0.519-1.175,1.183
			H192.874z"/>
		<path fill="#F9F9F9" d="M195.38,52.221c0,0.702,0.379,1.321,1.199,1.321c0.57,0,0.916-0.25,1.087-0.74h0.935
			c-0.217,0.974-1.047,1.517-2.021,1.517c-1.398,0-2.188-0.973-2.188-2.346c0-1.271,0.83-2.356,2.16-2.356
			c1.408,0,2.269,1.27,2.106,2.604H195.38z M197.675,51.573c-0.033-0.618-0.457-1.183-1.123-1.183c-0.68,0-1.146,0.519-1.172,1.183
			H197.675z"/>
		<path fill="#F9F9F9" d="M199.435,48.035h0.988v0.931h-0.988V48.035z M199.435,49.736h0.988V54.2h-0.988V49.736z"/>
		<path fill="#F9F9F9" d="M201.491,49.736h0.936v0.654l0.017,0.019c0.292-0.491,0.803-0.794,1.39-0.794
			c0.969,0,1.579,0.518,1.579,1.52V54.2h-0.983v-2.81c-0.016-0.699-0.295-1-0.871-1c-0.655,0-1.078,0.519-1.078,1.176V54.2h-0.986
			v-4.464H201.491z"/>
		<path fill="#F9F9F9" d="M210.577,53.965c0,1.34-0.788,2.006-2.197,2.006c-0.895,0-1.904-0.345-1.99-1.39h0.983
			c0.119,0.56,0.568,0.651,1.069,0.651c0.794,0,1.148-0.402,1.148-1.137v-0.685h-0.017c-0.276,0.493-0.786,0.788-1.342,0.788
			c-1.412,0-2.003-1.071-2.003-2.348c0-1.201,0.753-2.237,2.021-2.237c0.562,0,1.071,0.231,1.323,0.733h0.016v-0.613h0.986v4.23
			H210.577z M209.591,51.871c0-0.771-0.346-1.48-1.199-1.48c-0.871,0-1.176,0.813-1.176,1.555c0,0.734,0.354,1.479,1.176,1.479
			C209.263,53.423,209.591,52.63,209.591,51.871z"/>
		<path fill="#F9F9F9" d="M213.994,48.035h0.987v2.277h0.016c0.268-0.432,0.83-0.697,1.329-0.697c1.406,0,2.09,1.07,2.09,2.373
			c0,1.201-0.604,2.328-1.924,2.328c-0.604,0-1.254-0.144-1.551-0.729h-0.017V54.2h-0.932L213.994,48.035L213.994,48.035z
			 M216.196,50.391c-0.828,0-1.255,0.629-1.255,1.582c0,0.896,0.462,1.569,1.255,1.569c0.896,0,1.234-0.791,1.234-1.569
			C217.431,51.159,217.009,50.391,216.196,50.391z"/>
		<path fill="#F9F9F9" d="M220.013,52.221c0,0.702,0.383,1.321,1.201,1.321c0.569,0,0.916-0.25,1.086-0.74h0.936
			c-0.215,0.974-1.043,1.517-2.021,1.517c-1.398,0-2.185-0.973-2.185-2.346c0-1.271,0.829-2.356,2.157-2.356
			c1.408,0,2.271,1.27,2.106,2.604H220.013z M222.31,51.573c-0.032-0.618-0.459-1.183-1.123-1.183c-0.682,0-1.151,0.519-1.174,1.183
			H222.31z"/>
		<path fill="#F9F9F9" d="M223.554,49.736h1.08l1.164,3.332h0.018l1.131-3.332h1.027l-1.734,4.705
			c-0.318,0.804-0.552,1.527-1.579,1.527c-0.233,0-0.456-0.017-0.683-0.051v-0.831c0.156,0.026,0.311,0.062,0.465,0.062
			c0.458,0,0.572-0.241,0.691-0.627l0.113-0.342L223.554,49.736z"/>
		<path fill="#F9F9F9" d="M228.319,51.961c0-1.359,0.822-2.346,2.253-2.346c1.435,0,2.255,0.984,2.255,2.346
			c0,1.375-0.82,2.355-2.255,2.355C229.142,54.316,228.319,53.336,228.319,51.961z M231.845,51.961c0-0.768-0.392-1.57-1.271-1.57
			s-1.268,0.803-1.268,1.57c0,0.78,0.388,1.581,1.268,1.581S231.845,52.741,231.845,51.961z"/>
		<path fill="#F9F9F9" d="M233.646,49.736h0.936v0.654l0.016,0.019c0.297-0.491,0.808-0.794,1.391-0.794
			c0.968,0,1.579,0.518,1.579,1.52V54.2h-0.981v-2.81c-0.019-0.699-0.295-1-0.875-1c-0.654,0-1.074,0.519-1.074,1.176V54.2h-0.988
			v-4.464H233.646z"/>
		<path fill="#F9F9F9" d="M242.808,54.2h-0.932v-0.604h-0.021c-0.256,0.508-0.817,0.721-1.377,0.721c-1.409,0-2.09-1.043-2.09-2.379
			c0-1.612,0.959-2.322,1.932-2.322c0.562,0,1.186,0.205,1.486,0.697h0.02v-2.277h0.98V54.2H242.808z M240.606,53.542
			c0.882,0,1.25-0.801,1.25-1.581c0-0.98-0.473-1.57-1.23-1.57c-0.927,0-1.253,0.824-1.253,1.627
			C239.373,52.783,239.751,53.542,240.606,53.542z"/>
	</g>
</g>
<text transform="matrix(1 0 0 1 152.8506 9.5352)" fill="#F4F2F2" font-family="'MyriadPro-Regular'" font-size="7.8601">powered by</text>
</svg>
