<?xml version="1.0" encoding="utf-8"?>
<!-- Generator: Adobe Illustrator 16.0.0, SVG Export Plug-In . SVG Version: 6.00 Build 0)  -->
<!DOCTYPE svg PUBLIC "-//W3C//DTD SVG 1.1//EN" "http://www.w3.org/Graphics/SVG/1.1/DTD/svg11.dtd">
<svg version="1.1" id="Layer_1" xmlns="http://www.w3.org/2000/svg" xmlns:xlink="http://www.w3.org/1999/xlink" x="0px" y="0px"
	 width="165px" height="60px" viewBox="0 0 165 60" enable-background="new 0 0 165 60" xml:space="preserve">
<g>
	<path fill-rule="evenodd" clip-rule="evenodd" fill="#528440" d="M53.426,30.07C53.354,13.888,66.21,0.987,82.474,0.924
		c16.161-0.063,29.048,12.822,29.101,29.098c0.052,16.057-12.832,28.983-28.956,29.055C66.415,59.148,53.499,46.313,53.426,30.07z
		 M106.311,30.059c0.006-13.152-10.578-23.856-23.607-23.875c-13.299-0.02-24.006,10.526-24.02,23.655
		c-0.013,13.286,10.546,23.964,23.704,23.974C95.651,53.821,106.306,43.242,106.311,30.059z"/>
	<path fill-rule="evenodd" clip-rule="evenodd" fill="#528440" d="M82.469,44.724c-8.191-0.009-14.721-6.585-14.697-14.804
		c0.024-8.179,6.621-14.685,14.852-14.648c8.085,0.037,14.593,6.592,14.599,14.707C97.229,38.185,90.676,44.733,82.469,44.724z
		 M91.974,29.986c-0.009-5.171-4.323-9.474-9.488-9.464c-5.17,0.009-9.474,4.324-9.464,9.488c0.009,5.172,4.323,9.475,9.488,9.465
		C87.681,39.466,91.983,35.151,91.974,29.986z"/>
</g>
</svg>
