<?xml version="1.0" encoding="utf-8"?>
<!-- Generator: Adobe Illustrator 16.0.0, SVG Export Plug-In . SVG Version: 6.00 Build 0)  -->
<!DOCTYPE svg PUBLIC "-//W3C//DTD SVG 1.1//EN" "http://www.w3.org/Graphics/SVG/1.1/DTD/svg11.dtd">
<svg version="1.1" id="Layer_1" xmlns="http://www.w3.org/2000/svg" xmlns:xlink="http://www.w3.org/1999/xlink" x="0px" y="0px"
	 width="165px" height="30px" viewBox="0 0 165 30" enable-background="new 0 0 165 30" xml:space="preserve">
<g>
	<path fill-rule="evenodd" clip-rule="evenodd" fill="#F9CA04" d="M81.015,7.951c-11.053,2.253-22.096,4.557-33.168,6.709
		c-1.768,0.345-1.503,1.547-1.689,2.581c-1.742,9.693-12.512,14.363-20.653,8.901c-2.311-1.55-4.011-3.638-5.017-6.267
		c-0.213-0.557-0.182-1.259-0.819-1.604c0-2.093,0-4.187,0-6.28c1.255-2.777,2.471-5.545,5.032-7.48
		c6.476-4.895,15.403-3.352,19.652,3.551c0.709,1.151,1.292,1.404,2.618,1.124c13.354-2.817,26.727-5.542,40.095-8.295
		c2.347-0.483,2.391-0.44,1.74,1.931c-1.585,5.774-3.097,11.57-4.796,17.311c-0.588,1.984-0.09,2.026,1.654,1.661
		c9.949-2.09,19.915-4.101,29.891-6.06c1.929-0.378,3.035-0.898,3.383-3.239c0.932-6.287,6.595-10.828,12.971-10.891
		c6.11-0.061,11.603,4.297,13.06,10.362c1.504,6.258-1.754,12.82-7.622,15.359c-5.99,2.591-13.154,0.523-16.549-4.986
		c-0.911-1.479-1.745-1.72-3.326-1.388c-13.221,2.774-26.457,5.468-39.691,8.177c-2.15,0.44-2.161,0.422-1.556-1.807
		c1.714-6.313,3.434-12.627,5.151-18.941c0.057-0.118,0.191-0.271,0.157-0.348C81.422,7.786,81.209,7.849,81.015,7.951z
		 M131.988,7.324c-4.405-0.004-7.835,3.397-7.814,7.75c0.021,4.315,3.583,7.854,7.856,7.801c4.172-0.053,7.709-3.594,7.731-7.744
		C139.786,10.781,136.349,7.328,131.988,7.324z"/>
	<path fill-rule="evenodd" clip-rule="evenodd" fill="#FEFEFE" d="M81.807,7.482c0.223-0.117,0.467-0.19,0.593,0.093
		c0.039,0.089-0.115,0.264-0.18,0.399C82.082,7.811,81.944,7.646,81.807,7.482z"/>
</g>
</svg>
