<?xml version="1.0" encoding="utf-8"?>
<!-- Generator: Adobe Illustrator 16.0.0, SVG Export Plug-In . SVG Version: 6.00 Build 0)  -->
<!DOCTYPE svg PUBLIC "-//W3C//DTD SVG 1.1//EN" "http://www.w3.org/Graphics/SVG/1.1/DTD/svg11.dtd">
<svg version="1.1" id="Layer_1" xmlns="http://www.w3.org/2000/svg" xmlns:xlink="http://www.w3.org/1999/xlink" x="0px" y="0px"
	 width="165px" height="30px" viewBox="0 0 165 30" enable-background="new 0 0 165 30" xml:space="preserve">
<g>
	<path fill-rule="evenodd" clip-rule="evenodd" fill="#389393" d="M16.155,11.836c0.466-1.054,0.89-2.128,1.403-3.158
		c3.028-6.056,9.625-9.051,16.328-7.434C40.214,2.77,44.614,8.708,44.462,15.51c-0.144,6.472-4.844,12.014-11.377,13.417
		c-6.395,1.37-13.006-2.072-15.793-8.178c-0.352-0.769-0.331-1.734-1.137-2.279C16.155,16.259,16.155,14.047,16.155,11.836z"/>
	<path fill-rule="evenodd" clip-rule="evenodd" fill="#389393" d="M65.01,29.163c-7.842-0.041-14.186-6.411-14.147-14.204
		c0.038-7.909,6.506-14.27,14.423-14.185c7.769,0.084,14.147,6.601,14.049,14.354C79.235,22.959,72.859,29.205,65.01,29.163z
		 M65.089,6.767c-4.604-0.007-8.244,3.626-8.241,8.225c0.003,4.536,3.741,8.303,8.247,8.31c4.465,0.007,8.273-3.812,8.286-8.304
		C73.393,10.47,69.667,6.772,65.089,6.767z"/>
	<path fill-rule="evenodd" clip-rule="evenodd" fill="#389393" d="M99.918,29.163c-7.845,0.01-14.207-6.285-14.258-14.101
		C85.61,7.294,92.004,0.823,99.774,0.775c7.908-0.049,14.394,6.388,14.358,14.25C114.1,22.855,107.767,29.154,99.918,29.163z
		 M108.146,15.11c0.044-4.625-3.525-8.292-8.121-8.343c-4.601-0.052-8.339,3.558-8.402,8.113c-0.064,4.492,3.681,8.353,8.158,8.411
		C104.302,23.348,108.105,19.626,108.146,15.11z"/>
	<path fill-rule="evenodd" clip-rule="evenodd" fill="#389393" d="M148.845,15.076c-0.011,7.89-6.272,14.116-14.168,14.087
		c-7.892-0.027-14.138-6.278-14.146-14.157c-0.008-7.855,6.275-14.197,14.105-14.231C142.61,0.741,148.855,7.025,148.845,15.076z
		 M134.707,6.764c-4.548-0.007-8.353,3.745-8.343,8.229c0.01,4.444,3.882,8.296,8.343,8.296c4.491,0,8.309-3.817,8.306-8.299
		C143.01,10.429,139.318,6.772,134.707,6.764z"/>
</g>
</svg>
