<?xml version="1.0" encoding="utf-8"?>
<!-- Generator: Adobe Illustrator 16.0.0, SVG Export Plug-In . SVG Version: 6.00 Build 0)  -->
<!DOCTYPE svg PUBLIC "-//W3C//DTD SVG 1.1//EN" "http://www.w3.org/Graphics/SVG/1.1/DTD/svg11.dtd">
<svg version="1.1" id="Layer_1" xmlns="http://www.w3.org/2000/svg" xmlns:xlink="http://www.w3.org/1999/xlink" x="0px" y="0px"
	 width="165px" height="30px" viewBox="0 0 165 30" enable-background="new 0 0 165 30" xml:space="preserve">
<g>
	<path fill-rule="evenodd" clip-rule="evenodd" fill="#9E2105" d="M81.27,5.739c-9.696,0.328-19.711,3.163-28.048,10.629
		c-1.47,1.317-2.574,2.769-3.268,4.719c-2.129,5.98-8.116,9.382-14.519,8.528c-5.791-0.772-10.763-5.896-11.272-11.619
		c-0.608-6.812,3.03-12.481,9.268-14.447c6.001-1.891,12.426,0.478,15.507,6.003c1.016,1.82,1.575,1.656,3.027,0.529
		c9.337-7.248,20.11-10.066,31.764-9.852c11.103,0.204,21.149,3.534,29.794,10.629c1.355,1.112,1.574,0.405,2.125-0.661
		c2.938-5.686,9.273-8.472,15.396-6.844c6.025,1.603,9.984,7.003,9.857,13.45c-0.119,6.12-4.461,11.328-10.57,12.675
		c-6.006,1.323-12.551-1.772-14.861-7.514c-1.141-2.84-3.064-4.785-5.238-6.608C102.758,9.084,92.979,5.738,81.27,5.739z
		 M127.559,8.513c-4.33-0.003-7.791,3.502-7.773,7.873c0.016,4.234,3.473,7.759,7.656,7.809c4.238,0.049,7.904-3.557,7.934-7.802
		C135.402,12.088,131.859,8.517,127.559,8.513z"/>
</g>
</svg>
