<?xml version="1.0" encoding="utf-8"?>
<!-- Generator: Adobe Illustrator 16.0.0, SVG Export Plug-In . SVG Version: 6.00 Build 0)  -->
<!DOCTYPE svg PUBLIC "-//W3C//DTD SVG 1.1//EN" "http://www.w3.org/Graphics/SVG/1.1/DTD/svg11.dtd">
<svg version="1.1" id="Layer_1" xmlns="http://www.w3.org/2000/svg" xmlns:xlink="http://www.w3.org/1999/xlink" x="0px" y="0px"
	 width="165px" height="60px" viewBox="0 0 165 60" enable-background="new 0 0 165 60" xml:space="preserve">
<g>
	<path fill-rule="evenodd" clip-rule="evenodd" fill="#B24D54" d="M84.301,23.167c-6.003,0.01-10.96-4.917-10.935-10.871
		C73.39,6.335,78.389,1.39,84.346,1.433c5.906,0.044,10.782,4.908,10.851,10.826C95.266,18.196,90.308,23.156,84.301,23.167z"/>
	<path fill-rule="evenodd" clip-rule="evenodd" fill="#B24D54" d="M55.523,30.129c0.017-5.995,4.913-10.804,10.954-10.76
		c5.978,0.043,10.89,5.037,10.783,10.966c-0.108,6.031-5.004,10.828-10.991,10.774C60.263,41.058,55.506,36.199,55.523,30.129z
		 M66.443,23.962c-3.571-0.019-6.498,2.848-6.449,6.319c0.049,3.425,2.976,6.306,6.381,6.28c3.498-0.027,6.28-2.807,6.297-6.296
		C72.689,26.742,69.963,23.981,66.443,23.962z"/>
	<path fill-rule="evenodd" clip-rule="evenodd" fill="#B24D54" d="M113.039,30.4c-0.038,5.971-4.999,10.793-11.016,10.709
		c-5.896-0.074-10.722-4.971-10.722-10.873c0-5.996,4.896-10.885,10.881-10.868C108.304,19.388,113.078,24.24,113.039,30.4z
		 M102.253,23.962c-3.562-0.016-6.316,2.656-6.363,6.167c-0.049,3.562,2.777,6.433,6.332,6.436c3.403,0.004,6.326-2.908,6.344-6.316
		C108.587,26.829,105.72,23.977,102.253,23.962z"/>
	<path fill-rule="evenodd" clip-rule="evenodd" fill="#B24D54" d="M84.241,37.328c6.044-0.009,10.917,4.784,10.956,10.78
		c0.042,5.937-4.896,10.876-10.88,10.892c-6.002,0.013-10.908-4.831-10.956-10.82C73.314,42.236,78.227,37.337,84.241,37.328z
		 M84.271,54.479c3.451,0.002,6.312-2.83,6.342-6.283c0.026-3.448-2.801-6.348-6.235-6.394c-3.513-0.048-6.46,2.872-6.427,6.37
		C77.982,51.638,80.826,54.474,84.271,54.479z"/>
</g>
</svg>
