<?xml version="1.0" encoding="utf-8"?>
<!-- Generator: Adobe Illustrator 16.0.0, SVG Export Plug-In . SVG Version: 6.00 Build 0)  -->
<!DOCTYPE svg PUBLIC "-//W3C//DTD SVG 1.1//EN" "http://www.w3.org/Graphics/SVG/1.1/DTD/svg11.dtd">
<svg version="1.1" id="Layer_1" xmlns="http://www.w3.org/2000/svg" xmlns:xlink="http://www.w3.org/1999/xlink" x="0px" y="0px"
	 width="165px" height="60px" viewBox="0 0 165 60" enable-background="new 0 0 165 60" xml:space="preserve">
<g>
	<path fill="#FEFEFE" d="M86.728,15.809c0.934,0.086,1.271,0.837,1.769,1.37c4.286,4.591,8.568,9.186,12.852,13.781
		c3.33,3.573,4.171,3.499,7.275-0.343c0.679-0.84,0.475-1.275-0.123-1.917c-8.363-8.982-16.72-17.969-25.055-26.977
		c-0.664-0.718-1.048-0.857-1.801-0.043c-8.331,9.011-16.696,17.99-25.076,26.957c-0.732,0.783-0.913,1.39,0.012,2.117
		c0.607,0.476,1.257,0.952,1.708,1.56c1.608,2.168,2.801,1.645,4.419-0.182C67.257,27,71.999,22.035,76.679,17.021
		c0.474-0.506,0.769-1.392,2.022-1.032c0,0.995,0,2.037,0,3.078c0,11.22-0.008,22.438,0.011,33.657
		c0.002,1.153,0.041,2.332,0.281,3.451c0.371,1.725,1.64,2.61,3.336,2.694c1.851,0.09,3.207-0.821,3.681-2.627
		c0.289-1.101,0.304-2.294,0.306-3.445c0.021-11.315,0.001-22.632,0.031-33.947C86.35,17.85,85.993,16.757,86.728,15.809z"/>
	<path fill-rule="evenodd" clip-rule="evenodd" fill="#4E2E5C" d="M86.728,15.809c-0.734,0.948-0.378,2.041-0.381,3.04
		c-0.03,11.315-0.011,22.631-0.031,33.947c-0.002,1.151-0.017,2.345-0.306,3.445c-0.474,1.806-1.83,2.717-3.681,2.627
		c-1.697-0.084-2.965-0.97-3.336-2.694c-0.24-1.119-0.279-2.298-0.281-3.451c-0.019-11.219-0.011-22.437-0.011-33.657
		c0-1.041,0-2.083,0-3.078c-1.253-0.359-1.548,0.526-2.022,1.032C71.999,22.035,67.257,27,62.708,32.133
		c-1.618,1.826-2.811,2.35-4.419,0.182c-0.451-0.607-1.101-1.084-1.708-1.56c-0.925-0.727-0.744-1.333-0.012-2.117
		c8.379-8.967,16.745-17.946,25.076-26.957c0.753-0.814,1.137-0.675,1.801,0.043c8.335,9.008,16.691,17.995,25.055,26.977
		c0.598,0.642,0.802,1.076,0.123,1.917c-3.104,3.842-3.945,3.916-7.275,0.343c-4.283-4.595-8.565-9.19-12.852-13.781
		C87.999,16.646,87.661,15.896,86.728,15.809z"/>
</g>
</svg>
