<?xml version="1.0" encoding="utf-8"?>
<!-- Generator: Adobe Illustrator 16.0.0, SVG Export Plug-In . SVG Version: 6.00 Build 0)  -->
<!DOCTYPE svg PUBLIC "-//W3C//DTD SVG 1.1//EN" "http://www.w3.org/Graphics/SVG/1.1/DTD/svg11.dtd">
<svg version="1.1" id="Layer_1" xmlns="http://www.w3.org/2000/svg" xmlns:xlink="http://www.w3.org/1999/xlink" x="0px" y="0px"
	 width="165px" height="30px" viewBox="0 0 165 30" enable-background="new 0 0 165 30" xml:space="preserve">
<g>
	<path fill="#FEFEFE" d="M63.511,7.014c0,1.4,0.001,2.803,0,4.203c-0.001,1.895-0.002,1.895-1.969,1.896
		c-3.052,0.001-6.105-0.022-9.157,0.011c-1.478,0.016-2.398,1.233-1.934,2.483c0.419,1.128,1.363,1.35,2.432,1.348
		c3.103-0.007,6.206,0.036,9.307-0.023c1.044-0.021,1.367,0.296,1.345,1.349c-0.065,3.151-0.002,6.306-0.035,9.457
		c-0.011,1.004,0.259,1.794,1.231,2.175c1.342,0.527,2.583-0.465,2.606-2.151c0.043-3.052,0.075-6.106-0.016-9.156
		c-0.038-1.274,0.239-1.738,1.622-1.688c3.098,0.113,6.204,0.061,9.306,0.019c1.233-0.017,2.141-0.555,2.155-1.964
		c0.012-1.201-0.747-1.848-2.198-1.854c-3.152-0.014-6.306-0.058-9.457,0.024c-1.143,0.029-1.446-0.325-1.422-1.429
		c0.067-3.102,0.04-6.206,0.016-9.308c-0.012-1.578-0.791-2.487-2.001-2.457c-1.2,0.031-1.819,0.838-1.828,2.412
		C63.503,3.911,63.51,5.462,63.511,7.014z M101.504,7.014c0-1.751,0.02-3.503-0.008-5.254c-0.018-1.068-0.666-1.684-1.672-1.785
		c-1.086-0.108-1.83,0.447-2.059,1.538c-0.102,0.483-0.093,0.994-0.094,1.492c-0.008,2.902-0.05,5.806,0.019,8.707
		c0.026,1.104-0.279,1.457-1.422,1.429c-3.2-0.081-6.405-0.02-9.607-0.032c-1.186-0.005-1.935,0.516-2.036,1.715
		c-0.109,1.291,0.641,1.928,1.848,2.092c0.393,0.054,0.798,0.035,1.197,0.035c2.803,0.003,5.609,0.086,8.406-0.034
		c1.385-0.059,1.658,0.415,1.621,1.688c-0.091,3.05-0.055,6.104-0.018,9.156c0.018,1.513,0.783,2.332,2.021,2.24
		c1.381-0.103,1.825-0.979,1.815-2.263c-0.025-3.153,0.033-6.307-0.031-9.457c-0.021-1.053,0.299-1.371,1.344-1.351
		c3.102,0.06,6.205,0.036,9.307,0.015c1.621-0.012,2.523-0.728,2.537-1.925c0.014-1.253-0.824-1.902-2.488-1.906
		c-2.902-0.007-5.805-0.001-8.707-0.002c-1.967-0.001-1.969-0.001-1.969-1.896C101.506,9.816,101.506,8.415,101.504,7.014z"/>
	<path fill-rule="evenodd" clip-rule="evenodd" fill="#294373" d="M63.511,7.014c0-1.551-0.007-3.103,0.002-4.654
		c0.009-1.574,0.628-2.381,1.828-2.412c1.211-0.031,1.989,0.878,2.001,2.457c0.024,3.102,0.051,6.206-0.016,9.308
		c-0.024,1.104,0.279,1.458,1.422,1.429c3.15-0.082,6.304-0.038,9.457-0.024c1.451,0.007,2.21,0.653,2.198,1.854
		c-0.014,1.409-0.921,1.947-2.155,1.964c-3.103,0.042-6.208,0.095-9.306-0.019c-1.383-0.051-1.66,0.413-1.622,1.688
		c0.091,3.05,0.059,6.104,0.016,9.156c-0.023,1.687-1.265,2.679-2.606,2.151c-0.973-0.381-1.242-1.171-1.231-2.175
		c0.033-3.151-0.03-6.306,0.035-9.457c0.022-1.053-0.3-1.369-1.345-1.349c-3.102,0.06-6.205,0.017-9.307,0.023
		c-1.069,0.002-2.013-0.22-2.432-1.348c-0.464-1.25,0.457-2.468,1.934-2.483c3.052-0.033,6.105-0.01,9.157-0.011
		c1.967-0.001,1.968-0.001,1.969-1.896C63.512,9.816,63.511,8.414,63.511,7.014z"/>
	<path fill-rule="evenodd" clip-rule="evenodd" fill="#294373" d="M101.504,7.014c0.002,1.401,0.002,2.803,0.004,4.203
		c0,1.895,0.002,1.895,1.969,1.896c2.902,0.001,5.805-0.005,8.707,0.002c1.664,0.004,2.502,0.653,2.488,1.906
		c-0.014,1.197-0.916,1.913-2.537,1.925c-3.102,0.021-6.205,0.045-9.307-0.015c-1.045-0.021-1.365,0.298-1.344,1.351
		c0.064,3.15,0.006,6.304,0.031,9.457c0.01,1.284-0.435,2.16-1.815,2.263c-1.237,0.092-2.003-0.728-2.021-2.24
		c-0.037-3.052-0.073-6.106,0.018-9.156c0.037-1.273-0.236-1.747-1.621-1.688c-2.797,0.12-5.604,0.037-8.406,0.034
		c-0.399,0-0.805,0.019-1.197-0.035c-1.207-0.164-1.957-0.801-1.848-2.092c0.102-1.199,0.851-1.72,2.036-1.715
		c3.202,0.013,6.407-0.049,9.607,0.032c1.143,0.028,1.448-0.324,1.422-1.429c-0.068-2.901-0.026-5.805-0.019-8.707
		c0.001-0.498-0.008-1.009,0.094-1.492c0.229-1.091,0.973-1.646,2.059-1.538c1.006,0.101,1.654,0.716,1.672,1.785
		C101.523,3.51,101.504,5.262,101.504,7.014z"/>
</g>
</svg>
