<?xml version="1.0" encoding="utf-8"?>
<!-- Generator: Adobe Illustrator 16.0.0, SVG Export Plug-In . SVG Version: 6.00 Build 0)  -->
<!DOCTYPE svg PUBLIC "-//W3C//DTD SVG 1.1//EN" "http://www.w3.org/Graphics/SVG/1.1/DTD/svg11.dtd">
<svg version="1.1" id="Layer_1" xmlns="http://www.w3.org/2000/svg" xmlns:xlink="http://www.w3.org/1999/xlink" x="0px" y="0px"
	 width="532px" height="300px" viewBox="0 0 532 300" enable-background="new 0 0 532 300" xml:space="preserve">
<g>
	<path fill="#ECA616" d="M266.145,299.406c-88.288,0-176.577-0.003-264.865,0.023c-1.039,0.002-1.273-0.232-1.273-1.271
		c0.028-98.962,0.028-197.922,0-296.883c0-1.039,0.234-1.273,1.273-1.273c176.576,0.027,353.154,0.027,529.729,0
		c1.039,0,1.274,0.233,1.273,1.273c-0.027,98.961-0.027,197.921,0,296.881c0.001,1.04-0.232,1.274-1.272,1.274
		C442.721,299.403,354.434,299.406,266.145,299.406z"/>
	<path fill-rule="evenodd" clip-rule="evenodd" fill="#FEFEFE" d="M435.07,118.709c0-0.503,0-1.006,0-1.51
		c0-7.112,0.018-14.223-0.02-21.334c-0.006-0.986,0.194-1.389,1.287-1.338c2.027,0.094,4.064,0.087,6.093,0.003
		c1.085-0.045,1.39,0.268,1.386,1.371c-0.04,11.913-0.024,23.827-0.024,35.74c0,0.093-0.012,0.187,0.002,0.277
		c0.122,0.872-0.181,1.224-1.128,1.188c-1.891-0.072-3.788-0.083-5.678,0.003c-0.965,0.044-1.486-0.328-1.994-1.094
		c-4.977-7.496-9.99-14.97-14.992-22.451c-0.28-0.419-0.566-0.838-0.904-1.342c-0.403,0.485-0.244,0.993-0.246,1.444
		c-0.012,7.25-0.057,14.5,0.033,21.749c0.018,1.47-0.432,1.782-1.773,1.697c-1.795-0.113-3.604-0.104-5.399-0.002
		c-1.237,0.069-1.628-0.263-1.621-1.57c0.056-10.805,0.032-21.61,0.032-32.416c0-1.062,0.059-2.128-0.018-3.185
		c-0.076-1.039,0.189-1.475,1.348-1.415c1.981,0.103,3.973,0.073,5.954,0.007c0.851-0.029,1.315,0.282,1.772,0.972
		c4.895,7.384,9.824,14.746,14.746,22.111c0.271,0.406,0.566,0.795,0.852,1.192C434.875,118.776,434.972,118.743,435.07,118.709z"/>
	<path fill-rule="evenodd" clip-rule="evenodd" fill="#FEFEFE" d="M131.861,118.93c0.344-0.665,0.222-1.177,0.223-1.668
		c0.009-7.111,0.026-14.223-0.016-21.333c-0.006-1.055,0.232-1.452,1.365-1.401c2.12,0.095,4.248,0.058,6.371,0.012
		c0.788-0.017,1.021,0.24,1.021,1.023c-0.021,12.19-0.019,24.381-0.002,36.571c0.001,0.707-0.193,0.979-0.936,0.965
		c-2.124-0.04-4.249-0.059-6.371,0.009c-0.846,0.026-1.104-0.528-1.453-1.05c-5.029-7.517-10.053-15.039-15.08-22.557
		c-0.275-0.41-0.567-0.809-1.041-1.485c-0.036,0.773-0.076,1.251-0.076,1.729c-0.004,7.295-0.026,14.592,0.021,21.887
		c0.008,1.108-0.21,1.546-1.417,1.483c-1.98-0.106-3.972-0.089-5.955-0.005c-1.077,0.046-1.41-0.26-1.399-1.366
		c0.055-5.495,0.025-10.99,0.025-16.485c0-6.464,0.019-12.929-0.021-19.394c-0.006-0.99,0.2-1.388,1.289-1.336
		c1.981,0.094,3.972,0.082,5.954,0.002c0.914-0.038,1.393,0.306,1.877,1.038c4.894,7.386,9.824,14.746,14.746,22.112
		C131.241,118.059,131.509,118.427,131.861,118.93z"/>
	<path fill-rule="evenodd" clip-rule="evenodd" fill="#FEFEFE" d="M175.108,118.932c0.337-0.67,0.219-1.183,0.22-1.675
		c0.009-7.111,0.027-14.222-0.016-21.333c-0.007-1.061,0.243-1.446,1.369-1.396c2.12,0.094,4.248,0.058,6.371,0.011
		c0.792-0.016,1.019,0.25,1.017,1.027c-0.021,12.19-0.019,24.381-0.002,36.572c0.001,0.711-0.202,0.975-0.938,0.961
		c-2.124-0.04-4.25-0.059-6.372,0.009c-0.847,0.026-1.102-0.531-1.451-1.053c-5.029-7.517-10.052-15.038-15.079-22.557
		c-0.275-0.41-0.568-0.808-1.04-1.477c-0.036,0.771-0.077,1.249-0.077,1.727c-0.004,7.342-0.02,14.684,0.019,22.026
		c0.005,0.991-0.19,1.388-1.278,1.338c-2.028-0.093-4.065-0.087-6.093-0.002c-1.083,0.045-1.405-0.27-1.396-1.371
		c0.053-5.817,0.025-11.636,0.025-17.454c0-6.141,0.021-12.283-0.021-18.424c-0.006-0.996,0.21-1.383,1.294-1.333
		c1.981,0.093,3.972,0.082,5.954,0.001c0.917-0.037,1.392,0.312,1.876,1.043c4.893,7.385,9.824,14.746,14.746,22.112
		C174.487,118.061,174.755,118.429,175.108,118.932z"/>
	<path fill-rule="evenodd" clip-rule="evenodd" fill="#FEFEFE" d="M211.906,134.194c-11.185,0.198-19.53-9.086-19.514-20.358
		c0.016-11.915,9.562-20.435,20.586-20.169c11.029,0.266,19.507,8.98,19.52,20.531C232.511,125.49,223.258,134.679,211.906,134.194z
		"/>
	<path fill-rule="evenodd" clip-rule="evenodd" fill="#FEFEFE" d="M381.852,93.723c11.428,0,19.998,8.694,20.014,20.267
		c0.018,12.202-9.709,20.5-20.495,20.258c-11.092-0.249-19.603-8.92-19.591-20.462C361.791,102.358,370.43,93.723,381.852,93.723z"
		/>
	<path fill-rule="evenodd" clip-rule="evenodd" fill="#FEFEFE" d="M306.219,133.083c-3.032,0-5.977-0.016-8.92,0.011
		c-0.713,0.006-0.78-0.463-0.941-0.954c-0.747-2.27-1.545-4.522-2.256-6.802c-0.262-0.839-0.672-1.155-1.572-1.142
		c-3.693,0.047-7.39,0.054-11.084-0.004c-0.924-0.015-1.256,0.321-1.51,1.154c-0.695,2.294-1.516,4.55-2.242,6.836
		c-0.213,0.672-0.533,0.938-1.268,0.922c-2.354-0.048-4.713-0.053-7.066,0c-0.957,0.02-1.178-0.138-0.802-1.128
		c2.771-7.333,5.48-14.688,8.215-22.035c1.769-4.753,3.573-9.493,5.296-14.263c0.326-0.905,0.762-1.171,1.693-1.145
		c2.492,0.068,4.988,0.04,7.482,0.012c0.67-0.007,1.062,0.117,1.327,0.848c4.468,12.309,8.972,24.603,13.465,36.903
		C306.112,132.502,306.139,132.729,306.219,133.083z"/>
	<path fill-rule="evenodd" clip-rule="evenodd" fill="#FEFEFE" d="M254.97,122.13c1.333-4.108,2.663-8.216,3.998-12.324
		c1.538-4.732,3.099-9.458,4.6-14.202c0.249-0.789,0.583-1.095,1.437-1.072c2.352,0.062,4.71,0.068,7.062,0.001
		c1.072-0.031,1.102,0.297,0.775,1.182c-4.478,12.15-8.929,24.309-13.365,36.473c-0.238,0.652-0.541,0.93-1.273,0.915
		c-2.446-0.048-4.896-0.072-7.339,0.01c-0.937,0.031-1.331-0.413-1.595-1.144c-3.278-9.088-6.547-18.179-9.828-27.266
		c-1.095-3.034-2.19-6.067-3.34-9.082c-0.318-0.838-0.242-1.11,0.733-1.087c2.493,0.059,4.989,0.084,7.477-0.012
		c1.03-0.04,1.314,0.424,1.588,1.256c2.752,8.357,5.535,16.703,8.312,25.051c0.141,0.428,0.303,0.85,0.455,1.274
		C254.768,122.112,254.869,122.121,254.97,122.13z"/>
	<path fill-rule="evenodd" clip-rule="evenodd" fill="#FEFEFE" d="M320.816,94.554c5.175,0,10.35,0.03,15.523-0.025
		c1.042-0.011,1.355,0.272,1.307,1.312c-0.084,1.798-0.064,3.604-0.006,5.404c0.029,0.86-0.26,1.1-1.1,1.089
		c-3.234-0.043-6.469,0.047-9.701-0.048c-1.287-0.039-1.701,0.229-1.689,1.621c0.072,9.239,0.008,18.479,0.071,27.719
		c0.009,1.27-0.359,1.545-1.539,1.486c-1.981-0.098-3.973-0.084-5.956-0.003c-1.07,0.043-1.402-0.245-1.396-1.363
		c0.046-9.194,0.033-18.387,0.021-27.581c-0.004-2.16,0.267-1.831-1.812-1.844c-3.189-0.021-6.377-0.03-9.564,0.011
		c-0.826,0.011-1.141-0.203-1.11-1.078c0.062-1.8,0.076-3.606-0.004-5.404c-0.046-1.023,0.237-1.333,1.296-1.322
		C310.376,94.585,315.597,94.554,320.816,94.554z"/>
	<path fill-rule="evenodd" clip-rule="evenodd" fill="#EDA914" d="M299.471,273.585c-0.059,3.214-1.982,6.092-4.74,7.004
		c-3.178,1.05-6.298,0.064-8.291-2.775c-0.596-0.851-1.193-0.972-2.093-0.778c-6.725,1.442-13.454,2.865-20.185,4.289
		c-1.83,0.388-1.852,0.376-1.387-1.393c0.74-2.812,1.508-5.619,2.273-8.426c0.373-1.365,0.191-1.543-1.23-1.246
		c-4.925,1.027-9.848,2.07-14.786,3.035c-1.249,0.244-1.915,0.58-2.185,2.07c-0.509,2.805-2.417,4.724-5.195,5.365
		c-2.971,0.686-5.658-0.121-7.467-2.715c-1.729-2.478-1.898-5.224-0.428-7.864c2.689-4.831,8.961-5.101,12.115-0.562
		c0.54,0.779,1.066,0.938,1.961,0.75c6.773-1.44,13.556-2.834,20.337-4.229c1.567-0.32,1.658-0.229,1.258,1.305
		c-0.768,2.949-1.552,5.895-2.373,8.828c-0.221,0.79-0.313,1.242,0.783,1.007c5.463-1.167,10.932-2.301,16.399-3.439
		c0.766-0.161,0.966-0.646,1.065-1.382c0.436-3.229,3.127-5.813,6.152-6.006c3.846-0.242,6.893,1.795,7.787,5.247
		C299.4,272.287,299.397,272.947,299.471,273.585z"/>
	<path fill-rule="evenodd" clip-rule="evenodd" fill="#F9C800" d="M299.403,27.101c-0.018,3.137-2.126,6.073-4.999,6.962
		c-2.998,0.928-6.209-0.214-7.957-2.929c-0.49-0.758-0.983-0.92-1.83-0.741c-6.819,1.448-13.644,2.861-20.472,4.27
		c-1.56,0.322-1.563,0.295-1.149-1.254c0.774-2.9,1.523-5.807,2.328-8.698c0.295-1.058,0.15-1.431-1.065-1.167
		c-5.368,1.168-10.748,2.281-16.129,3.383c-0.857,0.176-1.023,0.694-1.169,1.45c-1.074,5.561-6.887,7.891-11.351,4.474
		c-2.265-1.733-3.087-4.194-2.517-7.027c0.646-3.208,2.65-5.171,5.827-5.712c2.776-0.473,5.112,0.59,6.739,2.887
		c0.625,0.881,1.14,1.2,2.249,0.958c6.766-1.474,13.549-2.859,20.326-4.282c1.462-0.308,1.562-0.208,1.176,1.212
		c-0.808,2.986-1.592,5.979-2.416,8.96c-0.269,0.969-0.064,1.229,0.973,1.006c5.418-1.157,10.844-2.279,16.276-3.354
		c0.998-0.198,1.065-0.91,1.209-1.611c0.606-2.957,2.349-4.879,5.253-5.648C295.025,19.096,299.428,22.6,299.403,27.101z"/>
	<path fill-rule="evenodd" clip-rule="evenodd" fill="#FEFEFE" d="M353.463,113.938c0,5.954-0.025,11.909,0.022,17.864
		c0.009,1.018-0.225,1.354-1.286,1.31c-2.119-0.089-4.246-0.057-6.368-0.011c-0.8,0.018-1.146-0.146-1.145-1.049
		c0.025-12.141,0.024-24.28,0.001-36.421c-0.001-0.841,0.249-1.116,1.1-1.094c2.17,0.055,4.342,0.074,6.508-0.006
		c1.029-0.039,1.192,0.35,1.187,1.266C353.443,101.843,353.463,107.891,353.463,113.938z"/>
	<path fill-rule="evenodd" clip-rule="evenodd" fill="#FEFEFE" d="M97.33,113.959c0,5.955-0.029,11.911,0.026,17.864
		c0.009,1.057-0.291,1.327-1.312,1.287c-2.027-0.082-4.065-0.107-6.09,0.006c-1.241,0.069-1.418-0.424-1.405-1.502
		c0.053-4.569,0.022-9.14,0.022-13.71c0-7.247,0.04-14.495-0.035-21.741c-0.015-1.379,0.391-1.716,1.698-1.638
		c1.932,0.114,3.878,0.088,5.813,0.006c1.025-0.045,1.319,0.234,1.309,1.287C97.302,101.865,97.33,107.912,97.33,113.959z"/>
	<path fill-rule="evenodd" clip-rule="evenodd" fill="#FEFEFE" d="M273.912,149.442c1.43-0.002,2.862,0.024,4.293-0.013
		c0.669-0.018,0.986,0.117,0.983,0.897c-0.028,7.248-0.024,14.496-0.002,21.745c0.002,0.719-0.203,1.04-0.937,0.933
		c-0.09-0.014-0.187-0.016-0.275,0c-2.701,0.473-4.432-0.486-5.878-2.963c-2.345-4.014-5.159-7.754-7.776-11.609
		c-0.051-0.074-0.127-0.133-0.244-0.252c-0.423,0.42-0.25,0.942-0.252,1.398c-0.015,4.062-0.034,8.127,0.012,12.189
		c0.01,0.941-0.225,1.33-1.225,1.252c-1.327-0.104-3.052,0.412-3.89-0.248c-0.893-0.706-0.278-2.506-0.286-3.824
		c-0.032-6.095,0.006-12.188-0.035-18.283c-0.007-0.958,0.243-1.248,1.226-1.248c3.987-0.004,3.967-0.026,6.198,3.287
		c2.507,3.727,5.053,7.427,7.582,11.139c0.693-0.203,0.34-0.772,0.344-1.15c0.029-3.968,0.012-7.934,0.023-11.9
		C273.775,150.342,273.643,149.868,273.912,149.442z"/>
	<path fill-rule="evenodd" clip-rule="evenodd" fill="#FEFEFE" d="M211.313,162.738c-0.628,6.379-5.143,9.967-11.304,10.236
		c-3.084,0.137-6.181-0.004-9.271,0.047c-0.872,0.014-1.083-0.276-1.08-1.107c0.03-7.151,0.018-14.304,0.019-21.454
		c0-0.503-0.094-1.053,0.714-1.021c3.771,0.143,7.569-0.364,11.317,0.272c5.996,1.019,8.849,4.125,9.613,10.272
		C211.439,160.902,211.455,161.82,211.313,162.738z"/>
	<path fill-rule="evenodd" clip-rule="evenodd" fill="#FEFEFE" d="M346.42,165.296c0.002,1.062-0.104,2.136,0.026,3.182
		c0.182,1.46-0.433,2.299-1.655,2.985c-4.225,2.383-8.674,2.809-13.22,1.328c-4.764-1.55-7.374-5.575-7.512-11.281
		c-0.12-4.949,1.717-9.021,6.178-11.405c4.437-2.372,8.99-2.2,13.263,0.583c2.869,1.869,2.848,2.274,0.402,4.611
		c-0.268,0.254-0.577,0.475-0.805,0.76c-0.504,0.634-0.834,0.516-1.398-0.036c-2.762-2.692-6.123-3.145-8.904-1.29
		c-2.696,1.797-3.843,5.763-2.652,9.179c1.114,3.193,4.069,4.966,7.666,4.563c0.637-0.07,1.275-0.224,1.884-0.423
		c1.6-0.526,2.138-1.614,1.673-3.185c-0.1-0.336-0.268-0.449-0.576-0.452c-0.232-0.003-0.465,0.013-0.691-0.009
		c-0.949-0.09-2.416,0.441-2.73-0.246c-0.477-1.035-0.188-2.425-0.207-3.664c-0.009-0.55,0.414-0.52,0.783-0.52
		c2.542-0.002,5.081,0.018,7.621-0.014c0.688-0.01,0.873,0.271,0.863,0.898C346.402,162.339,346.419,163.817,346.42,165.296z"/>
	<path fill-rule="evenodd" clip-rule="evenodd" fill="#FEFEFE" d="M277.509,68.077c0,3.555-0.031,7.11,0.022,10.663
		c0.014,0.926-0.277,1.202-1.168,1.139c-1.012-0.07-2.035-0.073-3.045,0.001c-0.949,0.071-1.29-0.222-1.262-1.215
		c0.064-2.445-0.012-4.893,0.037-7.338c0.017-0.877-0.211-1.209-1.15-1.187c-2.629,0.062-5.264,0.066-7.893-0.001
		c-0.969-0.025-1.135,0.35-1.119,1.201c0.047,2.399-0.049,4.803,0.045,7.199c0.044,1.146-0.367,1.432-1.411,1.342
		c-0.917-0.079-1.851-0.079-2.767,0c-0.995,0.087-1.352-0.179-1.344-1.268c0.053-7.016,0.052-14.032,0.001-21.049
		c-0.007-1.071,0.321-1.374,1.333-1.276c1.323,0.128,3.039-0.537,3.882,0.245c0.861,0.799,0.213,2.532,0.267,3.854
		c0.051,1.244,0.044,2.493-0.001,3.737c-0.025,0.725,0.116,1.082,0.967,1.067c2.722-0.05,5.447-0.044,8.169-0.002
		c0.799,0.013,1.03-0.262,1.017-1.032c-0.038-2.261,0.021-4.525-0.028-6.785c-0.02-0.858,0.263-1.157,1.11-1.079
		c1.407,0.129,3.245-0.584,4.105,0.307c0.682,0.704,0.222,2.533,0.229,3.864C277.52,62.999,277.509,65.539,277.509,68.077z"/>
	<path fill-rule="evenodd" clip-rule="evenodd" fill="#FEFEFE" d="M281.982,68.018c0-3.462,0.033-6.925-0.02-10.388
		c-0.015-0.965,0.146-1.374,1.26-1.357c4.617,0.067,9.233,0.058,13.852,0.004c1.008-0.012,1.211,0.331,1.209,1.265
		c-0.009,3.471,0.023,3.471-3.412,3.471c-2.077,0-4.156,0.031-6.232-0.015c-0.834-0.019-1.207,0.13-1.216,1.107
		c-0.028,3.621-0.069,3.621,3.535,3.621c1.245,0,2.494,0.039,3.738-0.014c0.788-0.033,1.124,0.122,1.135,1.037
		c0.041,3.413,0.081,3.413-3.315,3.413c-1.339,0-2.681,0.056-4.016-0.02c-0.895-0.05-1.114,0.297-1.061,1.113
		c0.079,1.236-0.38,2.842,0.236,3.616c0.658,0.828,2.332,0.24,3.561,0.266c2.215,0.047,4.434,0.064,6.646-0.009
		c0.958-0.033,1.145,0.323,1.155,1.187c0.044,3.549,0.067,3.549-3.478,3.549c-3.925,0-7.848,0.011-11.773-0.005
		c-2.062-0.008-1.789,0.277-1.799-1.868C281.971,74.667,281.982,71.342,281.982,68.018z"/>
	<path fill-rule="evenodd" clip-rule="evenodd" fill="#FEFEFE" d="M350.73,161.183c0-3.555,0.023-7.11-0.02-10.665
		c-0.01-0.852,0.242-1.102,1.093-1.096c4.71,0.037,9.419,0.037,14.127,0c0.853-0.006,1.085,0.247,1.097,1.096
		c0.056,3.635,0.084,3.635-3.523,3.635c-2.123,0-4.248,0.026-6.371-0.014c-0.725-0.014-0.924,0.222-0.955,0.941
		c-0.156,3.785-0.179,3.785,3.639,3.785c1.293,0,2.586,0.029,3.879-0.012c0.664-0.02,0.836,0.22,0.871,0.871
		c0.193,3.577,0.212,3.576-3.279,3.576c-1.387,0-2.772,0.034-4.156-0.015c-0.727-0.024-0.922,0.226-0.953,0.942
		c-0.173,4.062-0.192,4.062,3.779,4.062c2.262,0,4.524,0.028,6.785-0.016c0.779-0.015,1.014,0.233,1.041,1.015
		c0.135,3.713,0.158,3.713-3.59,3.713c-4.063,0-8.127-0.037-12.188,0.026c-1.056,0.017-1.317-0.296-1.3-1.319
		C350.768,168.201,350.729,164.69,350.73,161.183z"/>
	<path fill-rule="evenodd" clip-rule="evenodd" fill="#FEFEFE" d="M255.854,173.001c-1.756,0-3.46-0.024-5.163,0.012
		c-0.646,0.013-0.74-0.417-0.883-0.854c-0.417-1.272-0.857-2.536-1.238-3.817c-0.18-0.606-0.435-0.916-1.141-0.899
		c-2.17,0.045-4.342,0.038-6.513,0.003c-0.67-0.01-0.981,0.215-1.161,0.872c-0.34,1.243-0.816,2.45-1.168,3.691
		c-0.207,0.726-0.532,1.054-1.348,1.014c-1.508-0.073-3.023-0.021-4.684-0.021c0.89-2.469,1.712-4.791,2.566-7.104
		c1.273-3.443,2.575-6.875,3.857-10.316c0.63-1.691,1.25-3.391,1.863-5.088c0.28-0.776,0.733-1.139,1.632-1.078
		c1.333,0.092,2.678,0.03,4.017,0.022c0.529-0.004,0.899,0.025,1.138,0.684c2.694,7.424,5.438,14.829,8.161,22.241
		C255.847,172.524,255.828,172.715,255.854,173.001z"/>
	<path fill-rule="evenodd" clip-rule="evenodd" fill="#FEFEFE" d="M300.083,173.002c2.854-7.546,5.675-14.945,8.432-22.365
		c0.347-0.934,0.782-1.29,1.772-1.218c1.24,0.089,2.496,0.078,3.737,0.001c0.803-0.051,1.126,0.281,1.382,0.984
		c2.613,7.189,5.237,14.375,7.906,21.544c0.346,0.933,0.111,1.106-0.779,1.067c-1.564-0.07-3.434,0.455-4.613-0.232
		c-1.133-0.658-1.154-2.688-1.592-4.134c-0.266-0.881-0.633-1.267-1.624-1.219c-1.935,0.095-3.881,0.091-5.815,0
		c-0.988-0.046-1.424,0.3-1.606,1.226c-0.125,0.629-0.399,1.227-0.604,1.838c-0.836,2.508-0.834,2.508-3.403,2.508
		C302.261,173.002,301.246,173.002,300.083,173.002z"/>
	<path fill-rule="evenodd" clip-rule="evenodd" fill="#FEFEFE" d="M163.701,173.002c-0.122-0.551,0.136-0.912,0.276-1.287
		c2.631-7.039,5.29-14.066,7.893-21.115c0.319-0.866,0.687-1.271,1.658-1.178c1.599,0.15,3.582-0.606,4.712,0.29
		c1.053,0.836,1.237,2.78,1.778,4.245c2.187,5.925,4.345,11.859,6.567,17.771c0.392,1.044,0.276,1.384-0.899,1.295
		c-1.24-0.093-2.494-0.062-3.739-0.005c-0.681,0.032-0.989-0.225-1.172-0.854c-0.362-1.238-0.812-2.452-1.174-3.691
		c-0.205-0.699-0.492-1.066-1.33-1.037c-2.121,0.07-4.248,0.045-6.372,0.01c-0.667-0.01-0.985,0.206-1.166,0.866
		c-0.34,1.243-0.814,2.45-1.168,3.69c-0.206,0.721-0.52,1.062-1.344,1.021C166.713,172.949,165.197,173.002,163.701,173.002z"/>
	<path fill-rule="evenodd" clip-rule="evenodd" fill="#FEFEFE" d="M211.623,149.505c2.126,0,4.43-0.645,5.893,0.186
		c1.387,0.79,1.376,3.314,1.989,5.072c1.177,3.367,2.252,6.768,3.35,10.162c0.138,0.43,0.19,0.877,0.707,1.228
		c0.509-1.206,0.78-2.423,1.15-3.618c1.255-4.051,2.659-8.057,3.919-12.105c0.245-0.784,0.574-1.02,1.333-1
		c1.566,0.039,3.135,0.011,4.835,0.011c-0.943,2.622-1.835,5.146-2.758,7.659c-1.829,4.979-3.689,9.943-5.496,14.93
		c-0.258,0.71-0.56,1.068-1.365,0.988c-0.777-0.076-1.569-0.016-2.354-0.016c-2.601,0-2.613,0.005-3.481-2.4
		c-2.044-5.666-4.068-11.336-6.118-17C212.737,152.246,212.177,150.913,211.623,149.505z"/>
	<path fill-rule="evenodd" clip-rule="evenodd" fill="#FEFEFE" d="M243.134,56.301c3.094,0,6.188,0.038,9.28-0.023
		c0.939-0.018,1.154,0.301,1.165,1.177c0.042,3.558,0.07,3.532-3.47,3.571c-1.366,0.015-3.187-0.599-3.967,0.279
		c-0.675,0.761-0.224,2.542-0.228,3.873c-0.013,4.479-0.028,8.958,0.015,13.437c0.009,0.907-0.142,1.376-1.181,1.26
		c-1.403-0.156-3.239,0.593-4.114-0.315c-0.803-0.834-0.213-2.639-0.221-4.015c-0.024-4.386-0.04-8.773,0.013-13.159
		c0.013-1.041-0.201-1.466-1.347-1.4c-1.794,0.104-3.6,0-5.4,0.04c-0.705,0.015-0.94-0.204-0.981-0.932
		c-0.21-3.794-0.231-3.793,3.51-3.793C238.516,56.301,240.825,56.301,243.134,56.301z"/>
	<path fill-rule="evenodd" clip-rule="evenodd" fill="#FEFEFE" d="M292.473,149.44c3.094,0,6.189,0.038,9.281-0.023
		c0.936-0.018,1.154,0.294,1.166,1.174c0.044,3.561,0.07,3.535-3.467,3.574c-1.367,0.014-3.188-0.6-3.969,0.277
		c-0.675,0.76-0.227,2.542-0.229,3.873c-0.014,4.479-0.027,8.957,0.014,13.436c0.008,0.904-0.135,1.379-1.18,1.264
		c-1.402-0.156-3.237,0.592-4.113-0.314c-0.807-0.834-0.215-2.639-0.223-4.014c-0.025-4.387-0.039-8.773,0.012-13.16
		c0.014-1.037-0.194-1.469-1.344-1.402c-1.794,0.104-3.6,0.002-5.398,0.039c-0.703,0.016-0.943-0.197-0.984-0.928
		c-0.212-3.797-0.233-3.796,3.51-3.796C287.856,149.44,290.165,149.44,292.473,149.44z"/>
	<path fill-rule="evenodd" clip-rule="evenodd" fill="#FEFEFE" d="M263.84,215.935c-0.664,0.485-1.149,0.962-1.807,1.198
		c-2.052,0.741-3.872,0.06-4.577-1.953c-1.085-3.098-1.006-6.195,0.05-9.348c0.706-2.105,3.841-3.008,5.633-1.734
		c0.289,0.206,0.578,0.813,0.939-0.086c0.207-0.518,1.01-0.281,1.511-0.176c0.469,0.1,0.269,0.618,0.27,0.95
		c0.013,4.149,0.026,8.3-0.013,12.448c-0.008,0.861-0.162,1.744-0.385,2.578c-0.519,1.932-2.104,2.853-4.52,2.816
		c-2.273-0.037-3.36-1.181-3.791-2.704c-0.094-0.336-0.407-0.925,0.248-0.995c0.503-0.055,1.235-0.466,1.537,0.377
		c0.48,1.345,1.481,1.977,2.788,1.586c1.297-0.387,2.1-1.314,2.002-2.883C263.688,217.422,264.003,216.784,263.84,215.935z"/>
	<path fill-rule="evenodd" clip-rule="evenodd" fill="#FEFEFE" d="M151.942,234.128c2.289,1.603,3.02,3.778,2.225,6.454
		c-0.665,2.23-2.335,3.377-5.092,3.369c-1.411-0.005-3.242,0.611-4.116-0.27c-0.806-0.809-0.211-2.626-0.219-3.999
		c-0.025-4.193,0.014-8.39-0.028-12.583c-0.008-0.875,0.194-1.237,1.134-1.172c1.147,0.082,2.303,0.012,3.457,0.021
		c2.339,0.018,3.702,0.879,4.321,2.719C154.329,230.762,153.753,232.684,151.942,234.128z"/>
	<path fill-rule="evenodd" clip-rule="evenodd" fill="#FEFEFD" d="M145.522,214.261c0.707-3.195,1.435-6.386,2.104-9.588
		c0.156-0.743,0.497-0.904,1.207-0.932c0.832-0.032,0.996,0.405,1.13,1.042c0.677,3.198,1.371,6.394,2.141,9.967
		c0.689-3.366,1.301-6.369,1.921-9.373c0.346-1.678,0.352-1.676,2.316-1.515c-0.452,1.872-0.899,3.722-1.346,5.571
		c-0.562,2.33-1.168,4.652-1.665,6.997c-0.182,0.862-0.64,0.938-1.36,0.944c-0.717,0.006-1.047-0.183-1.202-0.947
		c-0.621-3.102-1.323-6.186-2.054-9.547c-0.74,3.221-1.426,6.176-2.095,9.135c-0.178,0.789-0.307,1.397-1.432,1.391
		c-1.166-0.008-1.188-0.669-1.361-1.452c-0.807-3.646-1.662-7.281-2.455-10.93c-0.085-0.395-0.778-1.138,0.297-1.226
		c0.648-0.052,1.474-0.367,1.677,0.822c0.507,2.953,1.119,5.889,1.689,8.831C145.367,213.619,144.785,214.337,145.522,214.261z"/>
	<path fill-rule="evenodd" clip-rule="evenodd" fill="#FEFEFE" d="M286.883,242.445c-2.744,2.586-5.832,1.779-6.746-1.693
		c-0.693-2.636-0.674-5.318,0.308-7.897c1.104-2.903,3.952-3.614,6.425-1.571c0.037-1.205,0.892-0.954,1.556-0.871
		c0.805,0.1,0.429,0.809,0.431,1.225c0.033,3.924,0.027,7.845,0.012,11.768c-0.002,0.688-0.047,1.387-0.17,2.062
		c-0.61,3.324-3.863,4.842-6.862,3.228c-0.772-0.414-1.313-1.03-1.54-1.864c-0.115-0.419-0.649-1.059,0.076-1.273
		c0.553-0.162,1.4-0.453,1.727,0.542c0.399,1.222,1.346,1.569,2.514,1.448c1.227-0.127,1.85-0.905,2.108-2.056
		C286.935,244.537,286.981,243.577,286.883,242.445z"/>
	<path fill-rule="evenodd" clip-rule="evenodd" fill="#FEFEFE" d="M182.453,216.037c-2.774,2.732-5.906,1.891-6.806-1.607
		c-0.569-2.212-0.615-4.477-0.181-6.725c0.754-3.904,3.351-5.172,6.964-3.334c0-1.653,0.035-3.256-0.015-4.857
		c-0.024-0.762,0.182-1.035,0.99-1.038c0.828-0.005,0.982,0.308,0.979,1.05c-0.025,5.535-0.008,11.07-0.024,16.605
		c-0.002,0.513,0.318,1.234-0.746,1.248C182.756,217.391,182.298,217.18,182.453,216.037z"/>
	<path fill-rule="evenodd" clip-rule="evenodd" fill="#FEFEFE" d="M179.89,242.767c-2.854,2.655-5.99,1.727-6.804-1.943
		c-0.503-2.271-0.567-4.581-0.045-6.866c0.829-3.622,3.55-4.822,6.895-2.932c0-1.672,0.024-3.262-0.012-4.852
		c-0.015-0.697,0.069-1.072,0.938-1.092c0.937-0.021,1.03,0.375,1.026,1.144c-0.024,5.442,0.001,10.886-0.035,16.329
		c-0.004,0.502,0.492,1.346-0.684,1.432C180.263,244.054,179.833,243.748,179.89,242.767z"/>
	<path fill-rule="evenodd" clip-rule="evenodd" fill="#FEFEFE" d="M231.771,243.151c0,1.661-0.03,3.264,0.014,4.866
		c0.019,0.705-0.173,0.967-0.921,0.961c-0.732-0.006-1.057-0.137-1.051-0.974c0.035-5.483,0.012-10.968,0.03-16.452
		c0.001-0.465-0.32-1.18,0.656-1.18c0.732,0.002,1.442-0.058,1.259,1.279c1.215-1.525,2.61-1.858,4.145-1.325
		c1.558,0.542,2.182,1.896,2.485,3.39c0.444,2.187,0.455,4.387-0.009,6.575c-0.261,1.234-0.696,2.401-1.737,3.212
		C235.266,244.576,233.757,244.472,231.771,243.151z"/>
	<path fill-rule="evenodd" clip-rule="evenodd" fill="#FEFEFE" d="M332.996,204.951c2.764-2.533,5.657-1.68,6.504,1.849
		c0.592,2.454,0.586,4.948-0.08,7.397c-0.928,3.416-3.479,4.36-6.47,2.335c0,1.669-0.03,3.271,0.013,4.872
		c0.02,0.704-0.172,0.97-0.921,0.964c-0.735-0.007-1.056-0.14-1.051-0.978c0.036-5.442,0.009-10.887,0.036-16.33
		c0.001-0.482-0.406-1.236,0.671-1.312C332.589,203.688,333.047,203.956,332.996,204.951z"/>
	<path fill-rule="evenodd" clip-rule="evenodd" fill="#FEFEFE" d="M206.57,238.554c-0.165-1.675-1.514-2.264-2.742-2.915
		c-1.521-0.805-3.065-1.533-3.862-3.219c-0.869-1.84-0.322-4.484,1.305-6.023c0.984-0.93,3.926-0.974,5.357-0.052
		c1.23,0.792,1.584,2.077,1.821,3.409c0.055,0.312-0.043,0.593-0.405,0.561c-0.508-0.047-1.115,0.301-1.5-0.312
		c-0.071-0.111-0.083-0.264-0.113-0.397c-0.29-1.283-0.905-2.234-2.376-2.266c-1.139-0.023-1.942,0.474-2.325,1.584
		c-0.456,1.326-0.1,2.768,1.046,3.596c0.815,0.588,1.747,1.021,2.633,1.512c2.819,1.559,3.956,4.143,3.091,7.05
		c-0.676,2.272-2.616,3.417-5.317,3.136c-2.274-0.236-3.904-1.921-4.066-4.197c-0.026-0.369-0.126-0.834,0.461-0.744
		c0.478,0.074,1.135-0.398,1.415,0.375c0.14,0.388,0.194,0.805,0.348,1.185c0.507,1.253,1.637,1.945,2.96,1.724
		c1.288-0.215,2.174-0.909,2.272-2.328C206.736,239.671,206.739,239.112,206.57,238.554z"/>
	<path fill-rule="evenodd" clip-rule="evenodd" fill="#FEFEFE" d="M203.219,204.759c1.415-1.268,2.968-1.665,4.591-0.964
		c1.633,0.709,2.071,2.214,2.065,3.889c-0.01,2.863-0.015,5.729,0.006,8.592c0.004,0.668-0.008,1.105-0.917,1.113
		c-0.91,0.01-1.062-0.328-1.048-1.129c0.043-2.493,0.02-4.988,0.013-7.482c-0.001-0.543-0.117-1.084-0.172-1.611
		c-0.109-1.049-0.672-1.664-1.564-1.775c-1.171-0.148-2.332,0.064-2.691,1.51c-0.155,0.62-0.304,1.236-0.295,1.896
		c0.033,2.495-0.001,4.989,0.022,7.482c0.007,0.676-0.021,1.1-0.923,1.109c-0.919,0.012-1.045-0.344-1.041-1.135
		c0.027-5.542,0.025-11.086,0.002-16.628c-0.002-0.757,0.072-1.151,1.017-1.159c1.043-0.008,0.942,0.569,0.938,1.229
		C203.213,201.351,203.219,203.004,203.219,204.759z"/>
	<path fill-rule="evenodd" clip-rule="evenodd" fill="#FEFEFD" d="M311.562,240.614c1.102-4.571,2.252-9.132,3.277-13.72
		c0.293-1.316,1.148-0.92,1.896-0.914c0.575,0.004,0.29,0.441,0.221,0.707c-1.409,5.492-2.846,10.976-4.22,16.475
		c-0.209,0.834-0.705,0.852-1.324,0.799c-0.584-0.049-1.263,0.266-1.503-0.732c-1.317-5.467-2.704-10.918-4.05-16.381
		c-0.082-0.334-0.383-0.914,0.368-0.879c0.649,0.03,1.502-0.413,1.755,0.75c0.615,2.838,1.314,5.657,1.951,8.492
		c0.406,1.797,0.766,3.607,1.145,5.41C311.243,240.835,311.405,240.849,311.562,240.614z"/>
	<path fill-rule="evenodd" clip-rule="evenodd" fill="#FEFEFE" d="M233.615,210.728c-2.156,1.522-1.505,3.646-1.541,5.557
		c-0.015,0.839-0.218,1.097-1.082,1.103c-0.947,0.006-0.89-0.502-0.89-1.137c0.01-5.544,0.018-11.088-0.008-16.631
		c-0.004-0.77,0.091-1.144,1.026-1.152c1.056-0.012,0.931,0.586,0.93,1.236c-0.005,3.227-0.002,6.453-0.002,9.875
		c0.941-0.699,1.374-1.591,1.946-2.35c0.516-0.686,0.941-1.441,1.395-2.172c0.667-1.076,1.548-1.641,3.069-1.123
		c-0.925,1.298-1.765,2.636-2.771,3.836c-0.709,0.848-0.704,1.537-0.219,2.471c1.185,2.278,2.275,4.605,3.409,6.924
		c-1.586,0.588-2.366-0.012-2.916-1.387C235.281,214.07,234.417,212.433,233.615,210.728z"/>
	<path fill-rule="evenodd" clip-rule="evenodd" fill="#FEFEFE" d="M285.905,201.277c-0.024,1.613-0.024,3.229-0.092,4.84
		c-0.032,0.758,0.288,0.946,0.979,0.927c1.385-0.036,2.771,0.02,4.156-0.021c0.727-0.02,0.949,0.253,0.951,0.97
		c0.002,0.778-0.438,0.775-0.982,0.771c-1.387-0.01-2.773,0.032-4.158-0.016c-0.717-0.025-0.971,0.193-0.949,0.934
		c0.049,1.614,0.055,3.234-0.002,4.848c-0.027,0.829,0.21,1.148,1.08,1.115c1.568-0.062,3.141-0.025,4.711-0.009
		c0.376,0.003,0.935-0.136,0.838,0.557c-0.07,0.501,0.059,1.171-0.814,1.165c-2.355-0.017-4.711-0.018-7.067,0.002
		c-0.583,0.004-0.676-0.287-0.674-0.771c0.007-5.496,0.013-10.993-0.006-16.489c-0.002-0.63,0.255-0.776,0.824-0.771
		c2.216,0.021,4.434,0.021,6.649,0.005c1.367-0.011,0.582,1.063,0.839,1.608c-1.224,0.439-2.49,0.081-3.732,0.195
		C287.607,201.216,286.743,200.98,285.905,201.277z"/>
	<path fill-rule="evenodd" clip-rule="evenodd" fill="#FEFEFE" d="M163.57,216.352c-0.58,0.399-0.988,0.838-1.577,1.047
		c-1.916,0.674-3.852,0.014-4.645-1.629c-0.951-1.97-0.357-4.465,1.348-5.568c1.085-0.701,2.314-0.987,3.575-0.862
		c1.16,0.115,1.363-0.366,1.329-1.391c-0.069-2.075-0.543-2.812-2.009-2.836c-1.063-0.016-1.841,0.401-2.005,1.49
		c-0.162,1.073-0.918,0.915-1.551,0.802c-0.993-0.182-0.339-0.92-0.248-1.316c0.428-1.844,1.994-2.742,4.313-2.584
		c2.009,0.138,3.266,1.121,3.344,3.01c0.143,3.414,0.088,6.834,0.121,10.251c0.004,0.396-0.148,0.554-0.56,0.597
		C164.235,217.443,163.669,217.273,163.57,216.352z"/>
	<path fill-rule="evenodd" clip-rule="evenodd" fill="#FEFEFE" d="M367.437,242.788c-1.642,1.565-3.226,1.858-4.87,1.079
		c-1.641-0.777-1.986-2.329-1.875-3.982c0.122-1.797,1.104-2.98,2.787-3.583c0.97-0.347,1.98-0.438,2.998-0.366
		c0.674,0.049,0.914-0.211,0.851-0.863c-0.062-0.641-0.015-1.294-0.132-1.92c-0.174-0.932-0.776-1.414-1.754-1.43
		c-0.96-0.015-1.707,0.244-2.07,1.241c-0.141,0.388,0.008,0.935-0.646,1.085c-1.127,0.261-1.526-0.102-1.25-1.234
		c0.467-1.923,1.987-2.861,4.369-2.699c2.053,0.141,3.29,1.17,3.36,3.137c0.121,3.358,0.074,6.725,0.104,10.087
		c0.004,0.372-0.082,0.622-0.521,0.624C368.094,243.963,367.297,244.156,367.437,242.788z"/>
	<path fill-rule="evenodd" clip-rule="evenodd" fill="#FEFEFE" d="M412.773,216.357c-1.721,1.373-3.496,1.653-4.92,0.832
		c-1.275-0.736-1.951-2.439-1.68-4.24c0.269-1.78,1.383-2.936,3.344-3.412c0.489-0.119,1.027-0.07,1.493-0.238
		c0.599-0.219,1.681,0.735,1.78-0.746c0.135-2.008-0.289-3.117-1.385-3.395c-1.291-0.33-2.264,0.145-2.623,1.518
		c-0.276,1.067-1.014,0.829-1.605,0.708c-0.806-0.163-0.303-0.829-0.213-1.222c0.438-1.912,2.007-2.836,4.386-2.655
		c2.091,0.159,3.28,1.248,3.339,3.316c0.091,3.269,0.051,6.542,0.077,9.813c0.003,0.41-0.036,0.682-0.562,0.729
		C413.426,217.435,412.873,217.258,412.773,216.357z"/>
	<path fill-rule="evenodd" clip-rule="evenodd" fill="#FEFEFD" d="M324.953,210.98c-0.923,0-1.848,0.044-2.766-0.016
		c-0.778-0.049-0.961,0.298-0.872,0.979c0.11,0.868,0.181,1.741,0.536,2.559c0.41,0.94,1.115,1.459,2.145,1.455
		c1.01-0.003,1.759-0.471,2.203-1.395c0.157-0.326,0.235-0.808,0.492-0.942c0.432-0.223,1.038-0.26,1.46,0.006
		c0.442,0.281,0.095,0.773-0.017,1.133c-0.536,1.732-2.042,2.795-3.982,2.869c-2.002,0.074-3.546-0.785-4.137-2.579
		c-0.976-2.971-1.01-5.997,0.139-8.938c0.754-1.929,2.321-2.775,4.404-2.605c1.859,0.151,3.125,1.289,3.63,3.264
		C329.181,210.639,328.918,210.979,324.953,210.98z"/>
	<path fill-rule="evenodd" clip-rule="evenodd" fill="#FEFEFD" d="M354.908,210.98c-1.209,0-2.135,0.043-3.053-0.016
		c-0.768-0.047-0.971,0.281-0.882,0.971c0.114,0.867,0.181,1.741,0.536,2.561c0.408,0.941,1.109,1.463,2.139,1.462
		c1.01,0,1.762-0.464,2.207-1.389c0.157-0.326,0.23-0.808,0.489-0.944c0.433-0.23,1.036-0.258,1.462-0.002
		c0.453,0.274,0.104,0.77-0.008,1.129c-0.533,1.732-2.041,2.802-3.979,2.877c-2.001,0.078-3.55-0.779-4.14-2.571
		c-0.979-2.972-1.014-5.997,0.133-8.938c0.752-1.934,2.314-2.779,4.399-2.613c1.86,0.147,3.145,1.279,3.63,3.258
		c0.32,1.304,0.815,2.885,0.172,3.906C357.432,211.594,355.78,210.742,354.908,210.98z"/>
	<path fill-rule="evenodd" clip-rule="evenodd" fill="#FEFEFD" d="M376.991,210.979c-0.599,0-1.198,0-1.797,0
		c-1.968,0.002-1.977,0.002-1.636,1.999c0.178,1.053,0.378,2.116,1.43,2.704c1.26,0.703,2.845,0.168,3.363-1.331
		c0.362-1.05,1.117-1.003,1.727-0.768c0.812,0.313,0.22,1.021,0.03,1.497c-0.665,1.69-2.211,2.599-4.194,2.549
		c-1.874-0.047-3.249-0.908-3.812-2.648c-0.933-2.886-0.945-5.824,0.078-8.689c0.739-2.066,2.396-2.988,4.568-2.779
		c1.884,0.18,3.13,1.383,3.595,3.467C381.21,210.873,381.122,210.979,376.991,210.979z"/>
	<path fill-rule="evenodd" clip-rule="evenodd" fill="#FEFEFD" d="M389.188,230.538c-1.557,5.383-2.793,10.867-4.592,16.19
		c-0.628,1.862-1.663,2.535-3.238,2.5c-0.582-0.012-1.104-0.044-1.162-0.843c-0.061-0.786,0.333-0.843,0.982-0.914
		c1.602-0.175,2.573-2.118,2.049-3.991c-1.145-4.088-2.307-8.17-3.46-12.255c-0.062-0.22-0.112-0.443-0.169-0.666
		c2.027-0.409,2.027-0.409,2.512,1.499c0.75,2.948,1.497,5.898,2.339,9.211c0.388-1.552,0.695-2.785,1.005-4.016
		c0.44-1.744,0.982-3.472,1.297-5.238C387.012,230.551,387.655,230.013,389.188,230.538z"/>
	<path fill-rule="evenodd" clip-rule="evenodd" fill="#FEFEFD" d="M131.703,210.384c0.008,1.576-0.126,3.134-0.743,4.604
		c-0.737,1.766-2.076,2.641-3.987,2.643c-1.906,0-3.333-0.822-3.978-2.631c-1.038-2.912-1.07-5.889-0.006-8.801
		c0.673-1.844,2.254-2.758,4.24-2.702c1.912,0.052,3.233,1.029,3.914,2.938C131.597,207.71,131.722,209.037,131.703,210.384z"/>
	<path fill-rule="evenodd" clip-rule="evenodd" fill="#FEFEFD" d="M347.364,237.111c0.011,1.484-0.137,2.95-0.677,4.344
		c-0.715,1.85-2.085,2.779-4.031,2.785c-1.975,0.008-3.416-0.87-4.049-2.732c-0.959-2.827-0.996-5.719-0.023-8.552
		c0.661-1.92,2.255-2.896,4.286-2.848c1.965,0.046,3.299,1.06,3.972,3.048C347.277,234.438,347.393,235.766,347.364,237.111z"/>
	<path fill-rule="evenodd" clip-rule="evenodd" fill="#FEFEFD" d="M165.844,237.004c-0.04,1.581-0.173,3.138-0.794,4.609
		c-0.745,1.765-2.083,2.632-3.996,2.627c-1.908-0.004-3.327-0.836-3.969-2.641c-1.021-2.867-1.043-5.801-0.053-8.676
		c0.656-1.907,2.279-2.877,4.306-2.815c1.91,0.058,3.228,1.039,3.9,2.952c0.182,0.52,0.316,1.064,0.393,1.606
		C165.741,235.441,165.777,236.225,165.844,237.004z"/>
	<path fill-rule="evenodd" clip-rule="evenodd" fill="#FEFEFE" d="M217.669,242.652c-1.752,1.743-3.67,2.029-5.151,1.05
		c-0.976-0.644-1.167-1.657-1.194-2.621c-0.088-3.319-0.035-6.644-0.076-9.964c-0.009-0.8,0.465-0.711,0.984-0.744
		c0.671-0.044,0.996,0.111,0.983,0.892c-0.043,2.583-0.016,5.167-0.016,7.75c0,0.323-0.005,0.647,0.001,0.968
		c0.025,1.528,0.675,2.494,1.734,2.588c1.112,0.1,2.343-1.109,2.534-2.453c0.312-2.193,0.108-4.396,0.163-6.594
		c0.018-0.783,0.049-1.571-0.008-2.352c-0.067-0.9,0.516-0.762,1.07-0.799c0.634-0.041,0.898,0.145,0.894,0.838
		c-0.027,3.967-0.016,7.936-0.008,11.902c0.001,0.512-0.029,0.85-0.715,0.875C218.007,244.02,217.516,243.802,217.669,242.652z"/>
	<path fill-rule="evenodd" clip-rule="evenodd" fill="#FEFEFE" d="M220.106,205.208c1.481-1.876,3.025-2.055,4.635-1.411
		c1.63,0.653,2.034,2.124,2.038,3.734c0.007,2.858-0.005,5.717,0.008,8.576c0.004,0.723,0.089,1.309-1.02,1.289
		c-1.048-0.021-0.93-0.59-0.929-1.238c0.005-2.813,0.048-5.625-0.015-8.438c-0.047-2.079-1.518-3.058-3.226-2.252
		c-0.898,0.423-1.201,1.249-1.334,2.132c-0.296,1.972-0.079,3.959-0.131,5.938c-0.024,0.877-0.013,1.753-0.001,2.629
		c0.008,0.658,0.1,1.209-0.937,1.23c-1.122,0.022-1.013-0.584-1.012-1.297c0.01-3.688-0.012-7.377,0.025-11.064
		c0.004-0.438-0.41-1.188,0.557-1.262C219.535,203.715,220.281,203.664,220.106,205.208z"/>
	<path fill-rule="evenodd" clip-rule="evenodd" fill="#FEFEFE" d="M247.563,205.209c1.422-1.842,2.916-2.023,4.497-1.455
		c1.734,0.623,2.154,2.123,2.161,3.783c0.012,2.904-0.018,5.81,0.019,8.715c0.009,0.779-0.11,1.152-1.035,1.137
		c-0.887-0.014-0.936-0.413-0.93-1.099c0.024-2.813,0.042-5.624-0.002-8.438c-0.034-2.139-1.355-3.134-3.109-2.435
		c-0.99,0.395-1.316,1.256-1.456,2.188c-0.298,1.972-0.078,3.959-0.131,5.937c-0.022,0.831,0.003,1.661-0.007,2.491
		c-0.008,0.648,0.231,1.344-0.937,1.363c-1.132,0.017-1.005-0.598-1.004-1.303c0.008-3.688-0.012-7.377,0.024-11.066
		c0.004-0.436-0.407-1.178,0.562-1.257C246.999,203.707,247.707,203.701,247.563,205.209z"/>
	<path fill-rule="evenodd" clip-rule="evenodd" fill="#FEFEFE" d="M296.514,205.104c2.181-1.927,4.066-2.062,5.642-0.738
		c0.858,0.723,1.093,1.705,1.107,2.725c0.044,3.135-0.003,6.271,0.043,9.406c0.011,0.811-0.369,0.861-1.005,0.875
		c-0.689,0.016-0.978-0.152-0.967-0.912c0.037-2.951,0.045-5.902-0.009-8.854c-0.022-1.182-0.462-2.191-1.847-2.367
		c-1.293-0.164-2.248,0.532-2.601,1.938c-0.144,0.575-0.203,1.179-0.232,1.772c-0.038,0.783-0.009,1.568-0.009,2.353
		c0,1.659-0.02,3.319,0.009,4.979c0.012,0.674-0.021,1.098-0.921,1.107c-0.911,0.01-1.051-0.334-1.043-1.129
		c0.034-3.781,0.006-7.562,0.023-11.344c0.003-0.477-0.287-1.186,0.686-1.151C296.104,203.787,296.897,203.626,296.514,205.104z"/>
	<path fill-rule="evenodd" clip-rule="evenodd" fill="#FEFEFE" d="M270.818,231.631c0.877-0.643,1.307-1.289,2.158-1.441
		c2.523-0.455,4.382,0.789,4.48,3.34c0.124,3.223,0.024,6.453,0.064,9.681c0.01,0.78-0.424,0.745-0.964,0.767
		c-0.644,0.025-1.017-0.063-1.005-0.87c0.041-2.903,0.053-5.81,0.002-8.714c-0.038-2.066-1.311-3.008-3.045-2.387
		c-0.721,0.261-1.117,0.799-1.34,1.477c-0.248,0.748-0.324,1.525-0.319,2.316c0.016,2.307-0.003,4.612,0.012,6.918
		c0.004,0.72,0.095,1.312-1.018,1.29c-1.045-0.021-0.932-0.583-0.931-1.235c0.005-3.735-0.009-7.471,0.017-11.204
		c0.003-0.458-0.34-1.187,0.642-1.19C270.301,230.373,271.027,230.301,270.818,231.631z"/>
	<path fill-rule="evenodd" clip-rule="evenodd" fill="#FEFEFE" d="M351.984,231.752c0.817-0.723,1.316-1.246,2.059-1.473
		c2.299-0.705,4.416,0.431,4.565,2.811c0.21,3.404,0.089,6.83,0.119,10.246c0.009,0.873-0.638,0.564-1.079,0.627
		c-0.662,0.098-0.877-0.186-0.871-0.85c0.027-2.863,0.032-5.727,0.004-8.592c-0.018-1.723-0.703-2.602-1.979-2.681
		c-1.383-0.087-2.252,0.685-2.583,2.335c-0.091,0.449-0.126,0.914-0.138,1.373c-0.02,0.875-0.006,1.754-0.006,2.631
		c0,1.57-0.02,3.143,0.01,4.713c0.014,0.677-0.023,1.098-0.924,1.107c-0.918,0.011-1.047-0.346-1.041-1.135
		c0.035-3.787,0.01-7.576,0.023-11.362c0-0.494-0.248-1.144,0.715-1.141C351.67,230.365,352.25,230.453,351.984,231.752z"/>
	<path fill-rule="evenodd" clip-rule="evenodd" fill="#FEFEFE" d="M362.388,205.245c0.946-0.818,1.44-1.347,2.184-1.575
		c2.298-0.707,4.421,0.424,4.569,2.801c0.212,3.406,0.089,6.832,0.123,10.248c0.009,0.873-0.631,0.572-1.076,0.636
		c-0.654,0.091-0.884-0.175-0.876-0.847c0.028-2.863,0.032-5.727,0.003-8.59c-0.018-1.725-0.697-2.605-1.973-2.688
		c-1.379-0.091-2.263,0.682-2.584,2.329c-0.106,0.538-0.136,1.099-0.142,1.648c-0.017,1.664-0.006,3.326-0.006,4.99
		c0,0.785-0.05,1.572,0.012,2.354c0.069,0.888-0.489,0.785-1.058,0.812c-0.62,0.031-0.912-0.117-0.908-0.826
		c0.029-3.973,0.018-7.945,0.009-11.916c-0.001-0.519,0.035-0.895,0.723-0.861C362.123,203.795,362.938,203.646,362.388,205.245z"/>
	<path fill-rule="evenodd" clip-rule="evenodd" fill="#FEFEFE" d="M389.578,215.916c-1.412,1.721-2.879,2.067-4.498,1.475
		c-1.662-0.611-1.932-2.112-1.947-3.643c-0.033-2.954,0.01-5.908-0.023-8.862c-0.008-0.767,0.088-1.144,1.023-1.152
		c1.053-0.01,0.934,0.581,0.934,1.233c-0.006,2.77-0.02,5.538,0.008,8.307c0.01,0.976,0.082,1.988,1.164,2.458
		c1.195,0.521,2.49-0.136,2.955-1.477c0.402-1.161,0.303-2.372,0.305-3.568c0.004-1.985,0.039-3.972-0.017-5.954
		c-0.023-0.828,0.302-0.961,1.042-0.988c0.904-0.033,0.928,0.422,0.924,1.098c-0.018,3.786,0,7.571-0.02,11.355
		c-0.004,0.472,0.305,1.155-0.672,1.172C389.939,217.387,389.353,217.281,389.578,215.916z"/>
	<path fill-rule="evenodd" clip-rule="evenodd" fill="#FEFEFD" d="M257.159,244.242c-2.581,0.007-3.967-1.02-4.226-3.164
		c-0.042-0.343-0.369-0.963,0.33-0.948c0.513,0.014,1.212-0.513,1.559,0.522c0.59,1.759,1.65,2.326,3.095,1.887
		c0.788-0.24,1.396-0.684,1.501-1.586c0.11-0.925-0.14-1.768-0.929-2.253c-1.17-0.723-2.437-1.281-3.631-1.964
		c-1.3-0.742-1.705-1.926-1.41-3.794c0.222-1.396,0.907-2.341,2.357-2.687c2.548-0.611,4.597,0.4,5.114,2.614
		c0.085,0.364,0.56,1.006-0.249,1.067c-0.572,0.041-1.473,0.494-1.665-0.606c-0.083-0.477-0.243-0.87-0.637-1.161
		c-0.896-0.664-2.087-0.556-2.705,0.248c-0.602,0.782-0.441,2.052,0.402,2.726c0.76,0.606,1.701,0.876,2.581,1.263
		c2.407,1.057,3.291,2.95,2.513,5.346C260.611,243.44,259.334,244.236,257.159,244.242z"/>
	<path fill-rule="evenodd" clip-rule="evenodd" fill="#FEFEFD" d="M327.34,244.242c-2.305,0.018-3.801-1.022-4.225-2.99
		c-0.079-0.373-0.48-1.027,0.237-1.108c0.556-0.063,1.437-0.528,1.667,0.583c0.183,0.879,0.691,1.509,1.553,1.797
		c1.166,0.388,2.395-0.09,2.844-1.07c0.5-1.096,0.168-2.361-0.93-3.009c-0.989-0.58-2.092-0.966-3.096-1.524
		c-1.605-0.896-2.217-2.474-1.736-4.254c0.457-1.701,1.882-2.627,3.939-2.56c1.881,0.063,3.107,1.011,3.48,2.76
		c0.076,0.358,0.533,1.01-0.272,1.073c-0.526,0.041-1.347,0.489-1.544-0.566c-0.125-0.663-0.424-1.271-1.097-1.494
		c-0.938-0.309-1.888-0.291-2.424,0.701c-0.519,0.957-0.388,1.88,0.53,2.584c0.818,0.628,1.822,0.878,2.736,1.311
		c1.324,0.629,2.299,1.52,2.523,3.055C331.941,242.373,330.307,244.221,327.34,244.242z"/>
	<path fill-rule="evenodd" clip-rule="evenodd" fill="#FEFEFE" d="M112.576,208.326c-0.001-2.63,0.026-5.261-0.017-7.892
		c-0.013-0.8,0.139-1.15,1.048-1.12c2.075,0.069,4.153,0.033,6.229,0.014c0.625-0.006,1.039,0.045,1.034,0.865
		c-0.005,0.813-0.417,0.883-1.043,0.875c-1.476-0.02-2.954,0.016-4.43-0.014c-0.642-0.012-0.909,0.194-0.892,0.869
		c0.037,1.43,0.052,2.862-0.005,4.291c-0.031,0.787,0.321,0.914,0.987,0.893c1.245-0.037,2.492-0.014,3.738-0.008
		c0.625,0,1.307-0.187,1.281,0.891c-0.024,0.977-0.636,0.83-1.221,0.832c-1.154,0.006-2.312,0.064-3.46-0.018
		c-1.003-0.068-1.382,0.206-1.335,1.285c0.089,2.074,0.001,4.154,0.04,6.23c0.013,0.727-0.119,1.076-0.966,1.062
		c-0.789-0.012-1.015-0.254-1.003-1.025C112.601,213.68,112.576,211.004,112.576,208.326z"/>
	<path fill-rule="evenodd" clip-rule="evenodd" fill="#FEFEFE" d="M306.895,210.656c-0.002-1.431-0.035-2.863,0.012-4.29
		c0.023-0.714-0.188-1.034-0.928-0.935c-0.651,0.086-1.018-0.084-1.005-0.878c0.011-0.759,0.405-0.851,0.964-0.774
		c0.84,0.109,1.027-0.307,0.963-1.037c-0.045-0.504,0.024-1.018-0.016-1.522c-0.055-0.706,0.08-1.065,0.941-1.085
		c0.944-0.023,1.092,0.387,1.012,1.15c-0.033,0.319,0.033,0.651-0.012,0.968c-0.159,1.13,0.132,1.778,1.445,1.526
		c0.584-0.111,0.934,0.071,0.945,0.795c0.018,0.811-0.399,0.963-1.027,0.853c-1.25-0.221-1.41,0.405-1.379,1.47
		c0.072,2.49,0.033,4.984,0.02,7.475c-0.008,0.973,0.279,1.643,1.399,1.596c0.474-0.021,0.796,0.062,0.787,0.659
		c-0.007,0.536-0.146,0.841-0.724,0.97c-2.061,0.465-3.34-0.502-3.391-2.648C306.867,213.518,306.895,212.088,306.895,210.656z"/>
	<path fill-rule="evenodd" clip-rule="evenodd" fill="#FEFEFE" d="M195.181,210.742c0-1.43-0.034-2.861,0.015-4.291
		c0.025-0.749-0.164-1.134-0.984-1.022c-0.577,0.077-0.957-0.05-0.946-0.793c0.009-0.658,0.223-0.966,0.878-0.86
		c0.898,0.145,1.134-0.278,1.047-1.092c-0.053-0.502,0.033-1.019-0.019-1.521c-0.08-0.779,0.217-1.008,1-1.023
		c0.853-0.014,1.031,0.344,0.955,1.067c-0.034,0.321,0.031,0.651-0.012,0.969c-0.156,1.163,0.139,1.86,1.506,1.604
		c0.66-0.126,0.873,0.206,0.882,0.856c0.01,0.735-0.374,0.901-0.95,0.79c-1.333-0.258-1.488,0.42-1.456,1.536
		c0.075,2.444,0.048,4.893,0.013,7.339c-0.014,1.025,0.198,1.754,1.423,1.667c0.491-0.034,0.788,0.1,0.77,0.681
		c-0.014,0.472-0.148,0.771-0.633,0.925c-1.845,0.587-3.392-0.442-3.469-2.397c-0.058-1.476-0.012-2.955-0.012-4.434
		C195.187,210.742,195.184,210.742,195.181,210.742z"/>
	<path fill-rule="evenodd" clip-rule="evenodd" fill="#FEFEFE" d="M418.051,207.926c0-2.814,0.026-5.631-0.018-8.443
		c-0.012-0.802,0.26-1.012,1.025-1.002c0.713,0.01,0.949,0.205,0.947,0.939c-0.029,5.675-0.029,11.352,0,17.025
		c0.004,0.744-0.252,0.918-0.953,0.932c-0.777,0.016-1.029-0.217-1.02-1.008C418.076,213.556,418.051,210.74,418.051,207.926z"/>
	<path fill-rule="evenodd" clip-rule="evenodd" fill="#FEFEFE" d="M168.57,234.546c0-2.767,0.018-5.536-0.012-8.306
		c-0.008-0.75,0.056-1.184,1.012-1.158c0.851,0.023,0.955,0.367,0.952,1.078c-0.021,5.584-0.021,11.167-0.001,16.75
		c0.002,0.698-0.074,1.07-0.94,1.09c-0.94,0.021-1.034-0.383-1.024-1.148C168.591,240.082,168.57,237.315,168.57,234.546z"/>
	<path fill-rule="evenodd" clip-rule="evenodd" fill="#FEFEFD" d="M224.681,232.117c0.439-0.902,1.021-1.441,1.839-1.67
		c0.523-0.146,1.265-0.765,1.511,0.023c0.198,0.631,0.643,1.693-0.831,1.99c-1.775,0.354-2.59,1.638-2.627,3.722
		c-0.04,2.259-0.037,4.521,0.006,6.782c0.015,0.77-0.207,1.02-1,1.029c-0.841,0.012-0.974-0.328-0.968-1.059
		c0.028-3.783,0.006-7.567,0.021-11.352c0.002-0.533-0.27-1.209,0.773-1.23c0.95-0.021,1.236,0.332,1.132,1.197
		C224.522,231.664,224.594,231.791,224.681,232.117z"/>
	<path fill-rule="evenodd" clip-rule="evenodd" fill="#FEFEFD" d="M243.484,231.94c0.514-0.749,1.1-1.288,1.929-1.511
		c0.516-0.139,1.241-0.773,1.482,0.082c0.19,0.672,0.541,1.679-0.889,1.961c-1.751,0.348-2.552,1.653-2.584,3.754
		c-0.035,2.215-0.039,4.432,0.008,6.646c0.016,0.8-0.139,1.136-1.048,1.128c-0.905-0.008-0.922-0.44-0.918-1.11
		c0.02-3.646-0.017-7.292,0.036-10.937c0.008-0.567-0.573-1.524,0.799-1.6C243.605,230.281,243.382,231.124,243.484,231.94z"/>
	<path fill-rule="evenodd" clip-rule="evenodd" fill="#FEFEFD" d="M136.21,205.65c0.686-1.007,1.366-1.752,2.398-1.984
		c0.379-0.086,1.037-0.501,1.038,0.303c0.001,0.575,0.53,1.385-0.464,1.76c-2.522,0.953-3.037,1.705-3.044,4.384
		c-0.005,2.076-0.03,4.152,0.013,6.228c0.016,0.753-0.167,1.045-0.985,1.045c-0.818,0-0.991-0.294-0.985-1.045
		c0.032-3.781,0.013-7.564,0.016-11.347c0.001-0.618-0.197-1.275,0.896-1.258c0.952,0.015,1.079,0.431,1.007,1.181
		C136.087,205.078,136.147,205.248,136.21,205.65z"/>
	<path fill-rule="evenodd" clip-rule="evenodd" fill="#FEFEFD" d="M170.843,205.709c0.687-1.062,1.347-1.76,2.322-2.012
		c0.383-0.1,1.039-0.537,1.108,0.178c0.058,0.59,0.61,1.473-0.48,1.859c-2.404,0.856-2.994,1.707-3.004,4.279
		c-0.008,2.031-0.011,4.061,0.003,6.088c0.005,0.721,0.102,1.317-1.017,1.295c-1.042-0.021-0.933-0.58-0.931-1.235
		c0.004-3.736,0.006-7.472-0.001-11.208c-0.001-0.662-0.094-1.227,0.941-1.22c1.01,0.008,1,0.534,0.966,1.222
		C170.744,205.089,170.781,205.226,170.843,205.709z"/>
	<path fill-rule="evenodd" clip-rule="evenodd" fill="#FEFEFD" d="M374.545,232.4c0.759-1.215,1.486-1.9,2.52-2.145
		c0.348-0.082,0.945-0.42,0.97,0.254c0.021,0.596,0.513,1.584-0.399,1.775c-2.717,0.572-3.141,2.484-3.11,4.783
		c0.026,1.982-0.035,3.967,0.024,5.95c0.025,0.845-0.33,0.962-1.056,0.972c-0.757,0.01-0.921-0.271-0.916-0.968
		c0.026-3.875,0.019-7.748,0.007-11.624c-0.002-0.596-0.023-1.075,0.832-1.037c0.693,0.031,1.197,0.079,1.078,0.957
		C374.463,231.539,374.512,231.771,374.545,232.4z"/>
	<path fill-rule="evenodd" clip-rule="evenodd" fill="#FEFEFE" d="M314.994,205.717c0.703-1.125,1.423-1.822,2.453-2.066
		c0.348-0.082,0.943-0.432,0.986,0.229c0.039,0.597,0.502,1.603-0.377,1.787c-2.807,0.588-3.166,2.575-3.13,4.908
		c0.028,1.89-0.025,3.783,0.021,5.673c0.018,0.777-0.104,1.16-1.034,1.141c-0.876-0.018-0.938-0.404-0.933-1.096
		c0.023-3.783,0.016-7.564,0.006-11.346c-0.002-0.674-0.076-1.224,0.949-1.212c1.01,0.01,0.994,0.54,0.959,1.228
		C314.889,205.095,314.928,205.232,314.994,205.717z"/>
	<path fill-rule="evenodd" clip-rule="evenodd" fill="#FEFEFD" d="M344.672,205.629c0.697-1.002,1.354-1.711,2.348-1.949
		c0.381-0.092,1.022-0.518,1.076,0.246c0.038,0.58,0.503,1.4-0.416,1.789c-2.686,1.132-3.084,1.721-3.087,4.628
		c-0.002,1.984-0.021,3.968,0.012,5.95c0.01,0.694-0.062,1.076-0.937,1.096c-0.93,0.02-1.038-0.367-1.03-1.143
		c0.03-3.734,0.007-7.471,0.021-11.207c0.003-0.58-0.279-1.283,0.844-1.304c1.062-0.02,1.104,0.515,1.057,1.273
		C344.549,205.139,344.604,205.273,344.672,205.629z"/>
	<path fill-rule="evenodd" clip-rule="evenodd" fill="#FEFEFD" d="M396.799,205.623c0.684-1.01,1.351-1.707,2.346-1.947
		c0.381-0.092,1.024-0.508,1.065,0.26c0.03,0.578,0.509,1.396-0.427,1.781c-2.627,1.082-3.072,1.727-3.076,4.5
		c-0.004,1.938,0.006,3.873-0.006,5.811c-0.002,0.642,0.25,1.354-0.93,1.369c-1.125,0.016-1.012-0.586-1.01-1.298
		c0.008-3.69-0.002-7.382,0.01-11.069c0.002-0.59-0.26-1.276,0.855-1.296c1.078-0.018,1.082,0.542,1.045,1.285
		C396.666,205.146,396.723,205.277,396.799,205.623z"/>
	<path fill-rule="evenodd" clip-rule="evenodd" fill="#FEFEFE" d="M250.621,237.26c0,1.938-0.032,3.875,0.016,5.811
		c0.019,0.761-0.28,0.928-0.967,0.912c-0.638-0.014-1.012-0.066-1.005-0.875c0.038-3.966,0.039-7.934,0-11.898
		c-0.009-0.853,0.44-0.809,1.037-0.842c0.734-0.043,0.949,0.224,0.933,0.943C250.592,233.293,250.621,235.277,250.621,237.26z"/>
	<path fill-rule="evenodd" clip-rule="evenodd" fill="#FEFEFE" d="M265.589,237.109c0,1.984-0.03,3.969,0.016,5.949
		c0.019,0.748-0.253,0.947-0.956,0.924c-0.622-0.02-1.021-0.04-1.014-0.865c0.037-3.965,0.037-7.932-0.002-11.896
		c-0.008-0.838,0.416-0.826,1.025-0.854c0.719-0.034,0.964,0.198,0.946,0.932C265.561,233.234,265.589,235.172,265.589,237.109z"/>
	<path fill-rule="evenodd" clip-rule="evenodd" fill="#FEFEFE" d="M320.754,237.313c0,1.845-0.028,3.69,0.012,5.534
		c0.016,0.761-0.074,1.175-1.02,1.15c-0.859-0.02-0.949-0.379-0.944-1.084c0.024-3.828,0.024-7.656,0-11.484
		c-0.006-0.707,0.092-1.059,0.946-1.08c0.951-0.025,1.033,0.396,1.018,1.153C320.728,233.439,320.754,235.376,320.754,237.313z"/>
	<path fill-rule="evenodd" clip-rule="evenodd" fill="#FEFEFE" d="M333.782,237.033c0-1.844,0.026-3.689-0.014-5.533
		c-0.018-0.762,0.073-1.176,1.02-1.15c0.86,0.021,0.95,0.379,0.946,1.084c-0.025,3.827-0.025,7.656,0,11.483
		c0.004,0.708-0.094,1.06-0.949,1.081c-0.949,0.026-1.031-0.396-1.017-1.152C333.807,240.908,333.782,238.971,333.782,237.033z"/>
	<path fill-rule="evenodd" clip-rule="evenodd" fill="#FEFEFE" d="M403.914,210.7c0,1.844-0.027,3.69,0.012,5.534
		c0.016,0.756-0.066,1.179-1.017,1.152c-0.854-0.021-0.952-0.373-0.948-1.081c0.024-3.827,0.024-7.654,0-11.483
		c-0.004-0.703,0.086-1.063,0.944-1.084c0.945-0.025,1.036,0.389,1.021,1.15C403.887,206.825,403.914,208.763,403.914,210.7z"/>
	<path fill-rule="evenodd" clip-rule="evenodd" fill="#FEFEFE" d="M215.14,210.703c0,1.845-0.027,3.689,0.013,5.533
		c0.017,0.762-0.075,1.176-1.02,1.152c-0.86-0.021-0.95-0.381-0.945-1.086c0.024-3.826,0.025-7.656,0-11.482
		c-0.005-0.708,0.092-1.061,0.947-1.082c0.95-0.025,1.032,0.396,1.017,1.153C215.114,206.828,215.14,208.766,215.14,210.703z"/>
	<path fill-rule="evenodd" clip-rule="evenodd" fill="#FEFEFE" d="M240.364,210.422c0-1.844,0.027-3.689-0.012-5.533
		c-0.017-0.762,0.075-1.176,1.021-1.15c0.86,0.021,0.949,0.381,0.944,1.084c-0.024,3.829-0.024,7.656,0.001,11.483
		c0.004,0.708-0.094,1.06-0.949,1.081c-0.95,0.026-1.031-0.396-1.017-1.152C240.39,214.297,240.364,212.359,240.364,210.422z"/>
	<path fill-rule="evenodd" clip-rule="evenodd" fill="#FEFDFC" d="M189.7,211.318c-0.595,0.002-1.193-0.032-1.785,0.01
		c-0.734,0.053-0.938-0.274-0.938-0.968c0-0.747,0.411-0.782,0.969-0.773c1.235,0.017,2.472,0.03,3.707-0.004
		c0.617-0.018,0.771,0.243,0.77,0.812c-0.003,0.584-0.073,0.982-0.803,0.934C190.983,211.284,190.34,211.318,189.7,211.318z"/>
	<path fill-rule="evenodd" clip-rule="evenodd" fill="#FEFCF9" d="M299.373,234.657c0.157,1.015,0.117,1.642-1.174,1.597
		c-1.104-0.039-1.53-0.25-1.48-1.439c0.044-0.998,0.179-1.494,1.35-1.422C299.051,233.453,299.77,233.49,299.373,234.657z"/>
	<path fill-rule="evenodd" clip-rule="evenodd" fill="#FEFCF9" d="M276.097,208.204c0.229,1.038-0.086,1.427-1.246,1.44
		c-1.22,0.015-1.403-0.429-1.417-1.504c-0.016-1.119,0.373-1.338,1.413-1.365C276.006,206.746,276.331,207.161,276.097,208.204z"/>
	<path fill-rule="evenodd" clip-rule="evenodd" fill="#FEFCF9" d="M192.093,234.701c0.201,1.053,0.033,1.573-1.199,1.555
		c-1.151-0.02-1.475-0.326-1.453-1.47c0.021-1.052,0.266-1.425,1.379-1.396C191.873,233.417,192.451,233.596,192.093,234.701z"/>
	<path fill-rule="evenodd" clip-rule="evenodd" fill="#FEFEFE" d="M215.14,199.893c-0.041,0.677,0.277,1.398-0.917,1.426
		c-1.242,0.027-1.032-0.705-1.019-1.408c0.013-0.675-0.294-1.453,0.982-1.445C215.49,198.471,215.062,199.303,215.14,199.893z"/>
	<path fill-rule="evenodd" clip-rule="evenodd" fill="#FEFEFE" d="M240.386,199.914c0.037-0.639-0.34-1.447,0.945-1.448
		c1.277-0.001,0.969,0.792,0.962,1.456c-0.007,0.606,0.333,1.375-0.884,1.395C240.223,201.333,240.283,200.709,240.386,199.914z"/>
	<path fill-rule="evenodd" clip-rule="evenodd" fill="#FEFEFE" d="M402.001,199.61c0.029-0.335-0.346-1.144,0.938-1.145
		c1.278-0.001,0.97,0.792,0.962,1.456c-0.008,0.606,0.332,1.369-0.884,1.395C401.814,201.34,401.941,200.672,402.001,199.61z"/>
	<path fill-rule="evenodd" clip-rule="evenodd" fill="#FEFEFE" d="M250.614,226.627c-0.036,0.526,0.303,1.314-0.979,1.301
		c-1.3-0.012-0.928-0.832-0.942-1.477c-0.013-0.625-0.29-1.352,0.905-1.376C250.836,225.049,250.623,225.771,250.614,226.627z"/>
	<path fill-rule="evenodd" clip-rule="evenodd" fill="#FEFEFE" d="M265.592,226.543c-0.041,0.645,0.269,1.361-0.924,1.385
		c-1.391,0.028-0.969-0.865-1.014-1.553c-0.043-0.693-0.146-1.309,0.988-1.302C265.95,225.084,265.51,225.922,265.592,226.543z"/>
	<path fill-rule="evenodd" clip-rule="evenodd" fill="#FEFEFE" d="M320.745,226.625c-0.034,0.528,0.304,1.316-0.979,1.303
		c-1.299-0.012-0.928-0.832-0.94-1.477c-0.015-0.625-0.29-1.352,0.903-1.376C320.969,225.049,320.754,225.771,320.745,226.625z"/>
	<path fill-rule="evenodd" clip-rule="evenodd" fill="#FEFEFE" d="M335.69,226.188c0.067,1.102,0.185,1.764-1.014,1.737
		c-1.354-0.028-0.818-0.929-0.88-1.532c-0.068-0.67-0.199-1.328,0.961-1.319C336.041,225.082,335.664,225.888,335.69,226.188z"/>
	<path fill-rule="evenodd" clip-rule="evenodd" fill="#ECA616" d="M273.912,149.442c-0.023,4.505-0.039,9.011-0.074,13.517
		c-0.003,0.379,0.172,0.805-0.17,1.139c-0.016,0.016-0.098-0.008-0.121-0.037c-0.056-0.064-0.094-0.145-0.141-0.219
		c0.291-0.51,0.22-1.072,0.221-1.619c0.004-3.682-0.001-7.362,0.006-11.044C273.635,150.588,273.529,149.973,273.912,149.442z"/>
	<path fill-rule="evenodd" clip-rule="evenodd" fill="#ECA616" d="M285.905,201.277c1.387-0.467,2.815-0.102,4.219-0.211
		c0.688-0.056,1.378-0.085,2.064-0.125c-1.167,0.656-2.435,0.236-3.655,0.324C287.661,201.327,286.781,201.277,285.905,201.277z"/>
	<path fill-rule="evenodd" clip-rule="evenodd" fill="#ECA616" d="M211.313,162.738c0.003-0.918,0.006-1.836,0.009-2.754
		C211.643,160.902,211.652,161.82,211.313,162.738z"/>
	<path fill-rule="evenodd" clip-rule="evenodd" fill="#F5D293" d="M145.522,214.261c0,0.132,0.054,0.31-0.01,0.392
		c-0.203,0.256-0.307-0.002-0.335-0.135c-0.073-0.35-0.098-0.709-0.141-1.065C145.197,213.721,145.36,213.991,145.522,214.261z"/>
	<path fill-rule="evenodd" clip-rule="evenodd" fill="#ECA616" d="M206.57,238.554c0.261,0.558,0.298,1.116,0.002,1.677
		C206.571,239.671,206.57,239.112,206.57,238.554z"/>
	<path fill-rule="evenodd" clip-rule="evenodd" fill="#F2C572" d="M311.562,240.614c0.021,0.259,0.043,0.614-0.271,0.61
		c-0.357-0.004-0.211-0.371-0.213-0.604C311.239,240.62,311.401,240.617,311.562,240.614z"/>
	<path fill-rule="evenodd" clip-rule="evenodd" fill="#ECA616" d="M223.303,114.072c-0.174,4.615-1.889,8.735-6.649,10.901
		c-6.267,2.852-13.313-1.06-14.79-8.084c-0.502-2.389-0.452-4.77,0.229-7.124c1.484-5.139,5.575-8.105,10.95-7.943
		c4.714,0.141,8.68,3.556,9.851,8.474C223.162,111.425,223.255,112.573,223.303,114.072z"/>
	<path fill-rule="evenodd" clip-rule="evenodd" fill="#ECA616" d="M392.669,114.246c-0.214,4.56-1.96,8.664-6.755,10.77
		c-6.314,2.775-13.307-1.209-14.703-8.243c-0.467-2.348-0.416-4.681,0.248-6.989c1.48-5.146,5.559-8.115,10.934-7.962
		c4.721,0.133,8.688,3.536,9.867,8.455C392.541,111.451,392.636,112.644,392.669,114.246z"/>
	<path fill-rule="evenodd" clip-rule="evenodd" fill="#ECA616" d="M287.065,103.111c1.594,4.999,3.075,9.641,4.606,14.448
		c-2.945,0-5.746-0.002-8.545,0.003c-0.426,0.001-0.765-0.067-0.586-0.613C284.009,112.451,285.481,107.953,287.065,103.111z"/>
	<path fill-rule="evenodd" clip-rule="evenodd" fill="#ECA616" d="M243.966,273.646c-0.005,2.37-1.78,4.164-4.077,4.125
		c-2.255-0.037-3.948-1.805-3.954-4.127c-0.005-2.146,1.967-4.128,4.063-4.084C242.33,269.607,243.971,271.298,243.966,273.646z"/>
	<path fill-rule="evenodd" clip-rule="evenodd" fill="#ECA616" d="M292.277,31.355c-2.351-0.019-4.268-1.949-4.209-4.235
		c0.062-2.354,1.95-4.121,4.36-4.082c2.239,0.037,4.125,1.994,4.069,4.224C296.442,29.497,294.508,31.373,292.277,31.355z"/>
	<path fill-rule="evenodd" clip-rule="evenodd" fill="#ECA616" d="M195.143,161.203c0-1.981,0.029-3.963-0.015-5.943
		c-0.018-0.788,0.131-1.178,1.045-1.127c1.422,0.08,2.852,0.001,4.266,0.269c3.248,0.61,5.11,2.944,5.271,6.632
		c0.147,3.426-1.687,6.107-4.768,6.9c-1.667,0.428-3.38,0.342-5.083,0.365c-0.815,0.01-0.714-0.516-0.714-1.016
		C195.142,165.256,195.143,163.229,195.143,161.203z"/>
	<path fill-rule="evenodd" clip-rule="evenodd" fill="#ECA717" d="M244.183,154.725c0.948,2.9,1.753,5.387,2.577,7.865
		c0.184,0.553,0.031,0.73-0.545,0.719c-1.336-0.028-2.674-0.04-4.011,0.003c-0.722,0.024-0.884-0.196-0.648-0.872
		C242.403,160.01,243.218,157.567,244.183,154.725z"/>
	<path fill-rule="evenodd" clip-rule="evenodd" fill="#ECA717" d="M308.943,163.246c0.936-2.773,1.838-5.451,2.873-8.524
		c1,3.056,1.877,5.741,2.788,8.524C312.672,163.246,310.891,163.246,308.943,163.246z"/>
	<path fill-rule="evenodd" clip-rule="evenodd" fill="#ECA717" d="M175.164,154.733c0.944,2.889,1.749,5.374,2.572,7.853
		c0.181,0.546,0.044,0.781-0.54,0.715c-0.045-0.006-0.092,0-0.138,0c-1.517-0.027-3.034-0.054-4.55-0.081
		c0.071-1.53,0.803-2.874,1.235-4.3C174.129,157.646,174.596,156.396,175.164,154.733z"/>
	<path fill-rule="evenodd" clip-rule="evenodd" fill="#ECA716" d="M263.973,210.269c0,1.244-0.048,2.482-0.473,3.675
		c-0.359,1.001-1.025,1.646-2.126,1.667c-1.116,0.021-1.816-0.636-2.139-1.634c-0.772-2.395-0.728-4.809,0.118-7.171
		c0.364-1.018,1.118-1.709,2.3-1.632c1.192,0.08,1.741,0.874,2.025,1.943C263.955,208.154,263.951,209.211,263.973,210.269z"/>
	<path fill-rule="evenodd" clip-rule="evenodd" fill="#ECA616" d="M146.671,238.729c0-0.922,0.042-1.846-0.013-2.764
		c-0.045-0.75,0.267-0.984,0.962-0.917c0.365,0.034,0.737,0.001,1.105,0.005c3.213,0.049,4.885,3.02,3.268,5.824
		c-0.819,1.419-2.204,1.402-3.62,1.502c-1.378,0.094-1.949-0.291-1.72-1.719C146.754,240.032,146.67,239.374,146.671,238.729z"/>
	<path fill-rule="evenodd" clip-rule="evenodd" fill="#ECA716" d="M146.67,230.542c0-0.138-0.046-0.298,0.008-0.41
		c0.39-0.817-0.971-2.396,0.993-2.505c3.004-0.167,4.148,0.598,4.265,2.67c0.106,1.914-0.808,2.973-2.7,3.128
		C146.67,233.635,146.67,233.635,146.67,230.542z"/>
	<path fill-rule="evenodd" clip-rule="evenodd" fill="#ECA716" d="M286.981,236.812c0.017,1.155-0.039,2.306-0.361,3.42
		c-0.315,1.093-0.925,1.938-2.173,1.986c-1.254,0.051-1.946-0.721-2.273-1.83c-0.673-2.267-0.631-4.55,0.106-6.785
		c0.37-1.122,1.135-1.936,2.454-1.811c1.262,0.119,1.736,1.029,2,2.141C286.963,234.887,286.938,235.852,286.981,236.812z"/>
	<path fill-rule="evenodd" clip-rule="evenodd" fill="#ECA616" d="M182.43,210.539c0.051,1.023-0.008,2.27-0.354,3.479
		c-0.324,1.129-1.018,1.869-2.262,1.873c-1.187,0.006-1.886-0.693-2.183-1.772c-0.648-2.359-0.708-4.737,0.022-7.093
		c0.385-1.243,1.226-1.945,2.573-1.848c1.278,0.092,1.78,0.944,2.011,2.101C182.439,208.287,182.424,209.297,182.43,210.539z"/>
	<path fill-rule="evenodd" clip-rule="evenodd" fill="#ECA616" d="M179.939,237.285c0.048,0.905-0.019,2.102-0.337,3.27
		c-0.307,1.123-0.958,1.908-2.208,1.947c-1.256,0.037-1.978-0.697-2.28-1.83c-0.616-2.315-0.675-4.65,0.016-6.965
		c0.368-1.234,1.169-1.986,2.526-1.922c1.356,0.062,1.866,0.956,2.101,2.164C179.952,234.961,179.922,235.971,179.939,237.285z"/>
	<path fill-rule="evenodd" clip-rule="evenodd" fill="#ECA616" d="M236.764,237.08c0.003,1.347-0.112,2.68-0.645,3.934
		c-0.407,0.958-1.07,1.658-2.21,1.547c-1.058-0.104-1.641-0.824-1.848-1.801c-0.504-2.377-0.52-4.77,0.049-7.137
		c0.257-1.07,0.958-1.814,2.14-1.836c1.157-0.023,1.71,0.762,2.047,1.744C236.692,234.682,236.777,235.875,236.764,237.08z"/>
	<path fill-rule="evenodd" clip-rule="evenodd" fill="#ECA616" d="M337.947,209.971c-0.006,1.861-0.113,3.241-0.695,4.529
		c-0.408,0.903-1.061,1.544-2.135,1.451c-1.062-0.093-1.658-0.8-1.869-1.773c-0.518-2.377-0.523-4.768,0.031-7.137
		c0.253-1.07,0.94-1.826,2.121-1.865c1.156-0.038,1.725,0.732,2.064,1.717C337.864,208.041,337.957,209.233,337.947,209.971z"/>
	<path fill-rule="evenodd" clip-rule="evenodd" fill="#ECA717" d="M163.654,212.369c-0.114,0.616-0.191,1.21-0.338,1.786
		c-0.28,1.101-0.974,1.755-2.145,1.809c-1.044,0.046-1.77-0.405-2.11-1.417c-0.39-1.152-0.248-2.203,0.735-2.996
		c0.969-0.785,2.155-0.803,3.299-0.646C164.073,211.035,163.359,211.904,163.654,212.369z"/>
	<path fill-rule="evenodd" clip-rule="evenodd" fill="#ECA717" d="M367.391,238.93c-0.104,0.598-0.175,1.193-0.314,1.77
		c-0.279,1.161-0.992,1.846-2.23,1.877c-1.131,0.027-1.82-0.549-2.106-1.614c-0.317-1.177-0.084-2.204,0.964-2.923
		c0.93-0.638,2.01-0.646,3.068-0.539C367.779,237.602,367.145,238.445,367.391,238.93z"/>
	<path fill-rule="evenodd" clip-rule="evenodd" fill="#ECA717" d="M412.835,212.439c-0.088,0.496-0.161,1.09-0.303,1.666
		c-0.284,1.164-1.009,1.837-2.245,1.859c-1.058,0.02-1.742-0.493-2.051-1.5c-0.359-1.164-0.18-2.203,0.832-2.968
		c0.949-0.716,2.081-0.728,3.182-0.603C413.225,211.004,412.644,211.836,412.835,212.439z"/>
	<path fill-rule="evenodd" clip-rule="evenodd" fill="#ECA717" d="M323.971,209.442c-0.182,0-0.383,0.046-0.549-0.008
		c-0.67-0.221-1.684,0.563-2.019-0.505c-0.36-1.15,0.749-3.216,1.806-3.601c1.071-0.388,2.001-0.177,2.668,0.809
		c0.539,0.797,0.607,1.724,0.69,2.646c0.044,0.486-0.212,0.656-0.659,0.651c-0.645-0.006-1.29-0.001-1.938-0.001
		C323.971,209.437,323.971,209.439,323.971,209.442z"/>
	<path fill-rule="evenodd" clip-rule="evenodd" fill="#ECA717" d="M353.517,209.442c-0.093,0-0.196,0.029-0.276-0.005
		c-0.711-0.295-1.908,0.705-2.168-0.623c-0.292-1.48,0.833-3.247,2.033-3.577c1.186-0.326,2.241,0.246,2.746,1.491
		C356.792,209.057,356.46,209.442,353.517,209.442z"/>
	<path fill-rule="evenodd" clip-rule="evenodd" fill="#ECA717" d="M376.062,209.442c-0.184,0-0.375,0.032-0.553-0.006
		c-0.668-0.138-1.555,0.421-1.984-0.397c-0.415-0.791,0.568-3.047,1.443-3.541c0.934-0.527,1.891-0.533,2.686,0.234
		c0.895,0.864,0.974,2.049,1.018,3.211c0.018,0.455-0.338,0.484-0.672,0.488c-0.645,0.008-1.291,0.003-1.938,0.003
		C376.062,209.437,376.062,209.439,376.062,209.442z"/>
	<path fill-rule="evenodd" clip-rule="evenodd" fill="#ECA616" d="M129.765,210.289c0.003,1.532-0.1,2.82-0.594,4.039
		c-0.393,0.969-1.072,1.634-2.185,1.626c-1.107-0.009-1.836-0.657-2.171-1.646c-0.842-2.476-0.863-4.987-0.043-7.475
		c0.33-1.002,1.066-1.643,2.16-1.66c1.147-0.016,1.897,0.614,2.296,1.672C129.675,208.031,129.782,209.266,129.765,210.289z"/>
	<path fill-rule="evenodd" clip-rule="evenodd" fill="#ECA616" d="M345.426,237c0.012,1.348-0.082,2.683-0.595,3.944
		c-0.396,0.97-1.079,1.632-2.19,1.62c-1.105-0.013-1.832-0.662-2.167-1.65c-0.839-2.478-0.86-4.989-0.038-7.477
		c0.33-1,1.071-1.638,2.166-1.65c1.146-0.014,1.893,0.619,2.291,1.674C345.322,234.602,345.432,235.793,345.426,237z"/>
	<path fill-rule="evenodd" clip-rule="evenodd" fill="#ECA616" d="M163.862,237.09c0.003,1.254-0.095,2.492-0.532,3.68
		c-0.38,1.033-1.033,1.779-2.208,1.792c-1.17,0.015-1.901-0.684-2.245-1.732c-0.802-2.437-0.817-4.904-0.024-7.345
		c0.343-1.059,1.111-1.723,2.271-1.697c1.146,0.026,1.856,0.698,2.235,1.759C163.769,234.695,163.866,235.885,163.862,237.09z"/>
</g>
</svg>
